<ttFont>
<head>
    <!-- Most of this table will be recalculated by the compiler -->
    <tableVersion value="1.0"/>
    <fontRevision value="1.0"/>
    <checkSumAdjustment value="0x4c9ddd0f"/>
    <magicNumber value="0x5f0f3cf5"/>
    <flags value="00000000 00001011"/>
    <unitsPerEm value="2048"/>
    <created value="Mon Jan 19 02:08:33 2026"/>
    <modified value="Mon Jan 19 02:08:33 2026"/>
    <xMin value="0"/>
    <yMin value="-256"/>
    <xMax value="2048"/>
    <yMax value="2048"/>
    <macStyle value="00000000 00000000"/>
    <lowestRecPPEM value="8"/>
    <fontDirectionHint value="2"/>
    <indexToLocFormat value="0"/>
    <glyphDataFormat value="0"/>
  </head>
    <TTGlyph name="A" xMin="0" yMin="512" xMax="1280" yMax="1792">
      <contour>
        <pt x="512" y="512" on="1"/>
        <pt x="512" y="768" on="1"/>
        <pt x="768" y="768" on="1"/>
        <pt x="768" y="512" on="1"/>
      </contour>
      <contour>
        <pt x="1024" y="1280" on="1"/>
        <pt x="1024" y="1536" on="1"/>
        <pt x="1280" y="1536" on="1"/>
        <pt x="1280" y="1280" on="1"/>
      </contour>
      <contour>
        <pt x="0" y="1280" on="1"/>
        <pt x="0" y="1536" on="1"/>
        <pt x="256" y="1536" on="1"/>
        <pt x="256" y="1280" on="1"/>
      </contour>
      <contour>
        <pt x="1024" y="1536" on="1"/>
        <pt x="768" y="1536" on="1"/>
        <pt x="512" y="1536" on="1"/>
        <pt x="256" y="1536" on="1"/>
        <pt x="256" y="1792" on="1"/>
        <pt x="512" y="1792" on="1"/>
        <pt x="768" y="1792" on="1"/>
        <pt x="1024" y="1792" on="1"/>
      </contour>
    </TTGlyph>
    <TTGlyph name="AE" xMin="0" yMin="0" xMax="1792" yMax="1792">
      <contour>
        <pt x="1280" y="768" on="1"/>
        <pt x="1280" y="1024" on="1"/>
        <pt x="1536" y="1024" on="1"/>
        <pt x="1536" y="768" on="1"/>
      </contour>
      <contour>
        <pt x="512" y="768" on="1"/>
        <pt x="512" y="1024" on="1"/>
        <pt x="768" y="1024" on="1"/>
        <pt x="768" y="768" on="1"/>
      </contour>
      <contour>
        <pt x="0" y="1024" on="1"/>
        <pt x="0" y="1280" on="1"/>
        <pt x="256" y="1280" on="1"/>
        <pt x="256" y="1024" on="1"/>
      </contour>
      <contour>
        <pt x="1536" y="256" on="1"/>
        <pt x="1792" y="256" on="1"/>
        <pt x="1792" y="0" on="1"/>
        <pt x="1536" y="0" on="1"/>
        <pt x="1280" y="0" on="1"/>
        <pt x="1280" y="256" on="1"/>
      </contour>
      <contour>
        <pt x="256" y="1280" on="1"/>
        <pt x="256" y="1536" on="1"/>
        <pt x="512" y="1536" on="1"/>
        <pt x="512" y="1280" on="1"/>
      </contour>
      <contour>
        <pt x="1536" y="1792" on="1"/>
        <pt x="1792" y="1792" on="1"/>
        <pt x="1792" y="1536" on="1"/>
        <pt x="1536" y="1536" on="1"/>
        <pt x="1280" y="1536" on="1"/>
        <pt x="1024" y="1536" on="1"/>
        <pt x="768" y="1536" on="1"/>
        <pt x="512" y="1536" on="1"/>
        <pt x="512" y="1792" on="1"/>
        <pt x="768" y="1792" on="1"/>
        <pt x="1024" y="1792" on="1"/>
        <pt x="1280" y="1792" on="1"/>
      </contour>
    </TTGlyph>
    <TTGlyph name="Aacute" xMin="0" yMin="512" xMax="1280" yMax="1792">
      <contour>
        <pt x="512" y="512" on="1"/>
        <pt x="512" y="768" on="1"/>
        <pt x="768" y="768" on="1"/>
        <pt x="768" y="512" on="1"/>
      </contour>
      <contour>
        <pt x="1024" y="768" on="1"/>
        <pt x="1024" y="1024" on="1"/>
        <pt x="1280" y="1024" on="1"/>
        <pt x="1280" y="768" on="1"/>
      </contour>
      <contour>
        <pt x="0" y="768" on="1"/>
        <pt x="0" y="1024" on="1"/>
        <pt x="256" y="1024" on="1"/>
        <pt x="256" y="768" on="1"/>
      </contour>
      <contour>
        <pt x="1024" y="1024" on="1"/>
        <pt x="768" y="1024" on="1"/>
        <pt x="768" y="1280" on="1"/>
        <pt x="1024" y="1280" on="1"/>
      </contour>
      <contour>
        <pt x="256" y="1024" on="1"/>
        <pt x="256" y="1280" on="1"/>
        <pt x="512" y="1280" on="1"/>
        <pt x="512" y="1024" on="1"/>
      </contour>
      <contour>
        <pt x="512" y="1280" on="1"/>
        <pt x="512" y="1536" on="1"/>
        <pt x="768" y="1536" on="1"/>
        <pt x="768" y="1280" on="1"/>
      </contour>
      <contour>
        <pt x="768" y="1536" on="1"/>
        <pt x="768" y="1792" on="1"/>
        <pt x="1024" y="1792" on="1"/>
        <pt x="1024" y="1536" on="1"/>
      </contour>
    </TTGlyph>
    <TTGlyph name="Acircumflex" xMin="0" yMin="512" xMax="1280" yMax="1792">
      <contour>
        <pt x="512" y="512" on="1"/>
        <pt x="512" y="768" on="1"/>
        <pt x="768" y="768" on="1"/>
        <pt x="768" y="512" on="1"/>
      </contour>
      <contour>
        <pt x="1024" y="1024" on="1"/>
        <pt x="1024" y="1280" on="1"/>
        <pt x="1280" y="1280" on="1"/>
        <pt x="1280" y="1024" on="1"/>
      </contour>
      <contour>
        <pt x="512" y="1024" on="1"/>
        <pt x="512" y="1280" on="1"/>
        <pt x="768" y="1280" on="1"/>
        <pt x="768" y="1024" on="1"/>
      </contour>
      <contour>
        <pt x="0" y="1024" on="1"/>
        <pt x="0" y="1280" on="1"/>
        <pt x="256" y="1280" on="1"/>
        <pt x="256" y="1024" on="1"/>
      </contour>
      <contour>
        <pt x="768" y="1280" on="1"/>
        <pt x="768" y="1536" on="1"/>
        <pt x="1024" y="1536" on="1"/>
        <pt x="1024" y="1280" on="1"/>
      </contour>
      <contour>
        <pt x="256" y="1280" on="1"/>
        <pt x="256" y="1536" on="1"/>
        <pt x="512" y="1536" on="1"/>
        <pt x="512" y="1280" on="1"/>
      </contour>
      <contour>
        <pt x="512" y="1536" on="1"/>
        <pt x="512" y="1792" on="1"/>
        <pt x="768" y="1792" on="1"/>
        <pt x="768" y="1536" on="1"/>
      </contour>
    </TTGlyph>
    <TTGlyph name="Adieresis" xMin="0" yMin="512" xMax="1280" yMax="1792">
      <contour>
        <pt x="512" y="512" on="1"/>
        <pt x="512" y="768" on="1"/>
        <pt x="768" y="768" on="1"/>
        <pt x="768" y="512" on="1"/>
      </contour>
      <contour>
        <pt x="1024" y="768" on="1"/>
        <pt x="1024" y="1024" on="1"/>
        <pt x="1280" y="1024" on="1"/>
        <pt x="1280" y="768" on="1"/>
      </contour>
      <contour>
        <pt x="0" y="768" on="1"/>
        <pt x="0" y="1024" on="1"/>
        <pt x="256" y="1024" on="1"/>
        <pt x="256" y="768" on="1"/>
      </contour>
      <contour>
        <pt x="768" y="1536" on="1"/>
        <pt x="768" y="1792" on="1"/>
        <pt x="1024" y="1792" on="1"/>
        <pt x="1024" y="1536" on="1"/>
      </contour>
      <contour>
        <pt x="256" y="1536" on="1"/>
        <pt x="256" y="1792" on="1"/>
        <pt x="512" y="1792" on="1"/>
        <pt x="512" y="1536" on="1"/>
      </contour>
      <contour>
        <pt x="1024" y="1024" on="1"/>
        <pt x="768" y="1024" on="1"/>
        <pt x="512" y="1024" on="1"/>
        <pt x="256" y="1024" on="1"/>
        <pt x="256" y="1280" on="1"/>
        <pt x="512" y="1280" on="1"/>
        <pt x="768" y="1280" on="1"/>
        <pt x="1024" y="1280" on="1"/>
      </contour>
    </TTGlyph>
    <TTGlyph name="Agrave" xMin="0" yMin="512" xMax="1280" yMax="1792">
      <contour>
        <pt x="512" y="512" on="1"/>
        <pt x="512" y="768" on="1"/>
        <pt x="768" y="768" on="1"/>
        <pt x="768" y="512" on="1"/>
      </contour>
      <contour>
        <pt x="1024" y="768" on="1"/>
        <pt x="1024" y="1024" on="1"/>
        <pt x="1280" y="1024" on="1"/>
        <pt x="1280" y="768" on="1"/>
      </contour>
      <contour>
        <pt x="0" y="768" on="1"/>
        <pt x="0" y="1024" on="1"/>
        <pt x="256" y="1024" on="1"/>
        <pt x="256" y="768" on="1"/>
      </contour>
      <contour>
        <pt x="1024" y="1024" on="1"/>
        <pt x="768" y="1024" on="1"/>
        <pt x="768" y="1280" on="1"/>
        <pt x="1024" y="1280" on="1"/>
      </contour>
      <contour>
        <pt x="256" y="1024" on="1"/>
        <pt x="256" y="1280" on="1"/>
        <pt x="512" y="1280" on="1"/>
        <pt x="512" y="1024" on="1"/>
      </contour>
      <contour>
        <pt x="512" y="1280" on="1"/>
        <pt x="512" y="1536" on="1"/>
        <pt x="768" y="1536" on="1"/>
        <pt x="768" y="1280" on="1"/>
      </contour>
      <contour>
        <pt x="512" y="1536" on="1"/>
        <pt x="256" y="1536" on="1"/>
        <pt x="256" y="1792" on="1"/>
        <pt x="512" y="1792" on="1"/>
      </contour>
    </TTGlyph>
    <TTGlyph name="ApplicationProgramCo" xMin="0" yMin="0" xMax="1280" yMax="1792">
      <contour>
        <pt x="512" y="0" on="1"/>
        <pt x="512" y="256" on="1"/>
        <pt x="768" y="256" on="1"/>
        <pt x="768" y="0" on="1"/>
      </contour>
      <contour>
        <pt x="768" y="1536" on="1"/>
        <pt x="768" y="1792" on="1"/>
        <pt x="1024" y="1792" on="1"/>
        <pt x="1024" y="1536" on="1"/>
      </contour>
      <contour>
        <pt x="256" y="1536" on="1"/>
        <pt x="256" y="1792" on="1"/>
        <pt x="512" y="1792" on="1"/>
        <pt x="512" y="1536" on="1"/>
      </contour>
      <contour>
        <pt x="1024" y="1280" on="1"/>
        <pt x="1280" y="1280" on="1"/>
        <pt x="1280" y="1024" on="1"/>
        <pt x="1024" y="1024" on="1"/>
        <pt x="768" y="1024" on="1"/>
        <pt x="768" y="1280" on="1"/>
      </contour>
      <contour>
        <pt x="256" y="1280" on="1"/>
        <pt x="512" y="1280" on="1"/>
        <pt x="512" y="1024" on="1"/>
        <pt x="256" y="1024" on="1"/>
        <pt x="0" y="1024" on="1"/>
        <pt x="0" y="1280" on="1"/>
      </contour>
    </TTGlyph>
    <TTGlyph name="Aring" xMin="0" yMin="512" xMax="1280" yMax="1792">
      <contour>
        <pt x="512" y="512" on="1"/>
        <pt x="512" y="768" on="1"/>
        <pt x="768" y="768" on="1"/>
        <pt x="768" y="512" on="1"/>
      </contour>
      <contour>
        <pt x="1024" y="768" on="1"/>
        <pt x="1024" y="1024" on="1"/>
        <pt x="1280" y="1024" on="1"/>
        <pt x="1280" y="768" on="1"/>
      </contour>
      <contour>
        <pt x="0" y="768" on="1"/>
        <pt x="0" y="1024" on="1"/>
        <pt x="256" y="1024" on="1"/>
        <pt x="256" y="768" on="1"/>
      </contour>
      <contour>
        <pt x="512" y="1024" on="1"/>
        <pt x="512" y="1280" on="1"/>
        <pt x="768" y="1280" on="1"/>
        <pt x="768" y="1024" on="1"/>
      </contour>
      <contour>
        <pt x="768" y="1280" on="1"/>
        <pt x="768" y="1536" on="1"/>
        <pt x="1024" y="1536" on="1"/>
        <pt x="1024" y="1280" on="1"/>
      </contour>
      <contour>
        <pt x="512" y="1280" on="1"/>
        <pt x="256" y="1280" on="1"/>
        <pt x="256" y="1536" on="1"/>
        <pt x="512" y="1536" on="1"/>
      </contour>
      <contour>
        <pt x="512" y="1536" on="1"/>
        <pt x="512" y="1792" on="1"/>
        <pt x="768" y="1792" on="1"/>
        <pt x="768" y="1536" on="1"/>
      </contour>
    </TTGlyph>
    <TTGlyph name="Atilde" xMin="0" yMin="512" xMax="1280" yMax="1792">
      <contour>
        <pt x="512" y="512" on="1"/>
        <pt x="512" y="768" on="1"/>
        <pt x="768" y="768" on="1"/>
        <pt x="768" y="512" on="1"/>
      </contour>
      <contour>
        <pt x="1024" y="768" on="1"/>
        <pt x="1024" y="1024" on="1"/>
        <pt x="1280" y="1024" on="1"/>
        <pt x="1280" y="768" on="1"/>
      </contour>
      <contour>
        <pt x="0" y="768" on="1"/>
        <pt x="0" y="1024" on="1"/>
        <pt x="256" y="1024" on="1"/>
        <pt x="256" y="768" on="1"/>
      </contour>
      <contour>
        <pt x="768" y="1280" on="1"/>
        <pt x="768" y="1536" on="1"/>
        <pt x="1024" y="1536" on="1"/>
        <pt x="1024" y="1280" on="1"/>
      </contour>
      <contour>
        <pt x="256" y="1024" on="1"/>
        <pt x="256" y="1280" on="1"/>
        <pt x="512" y="1280" on="1"/>
        <pt x="512" y="1024" on="1"/>
      </contour>
      <contour>
        <pt x="256" y="1280" on="1"/>
        <pt x="0" y="1280" on="1"/>
        <pt x="0" y="1536" on="1"/>
        <pt x="256" y="1536" on="1"/>
      </contour>
      <contour>
        <pt x="1024" y="1536" on="1"/>
        <pt x="1024" y="1792" on="1"/>
        <pt x="1280" y="1792" on="1"/>
        <pt x="1280" y="1536" on="1"/>
      </contour>
      <contour>
        <pt x="768" y="1536" on="1"/>
        <pt x="512" y="1536" on="1"/>
        <pt x="256" y="1536" on="1"/>
        <pt x="256" y="1792" on="1"/>
        <pt x="512" y="1792" on="1"/>
        <pt x="768" y="1792" on="1"/>
      </contour>
    </TTGlyph>
    <TTGlyph name="B" xMin="0" yMin="0" xMax="1280" yMax="1792">
      <contour>
        <pt x="512" y="0" on="1"/>
        <pt x="512" y="256" on="1"/>
        <pt x="768" y="256" on="1"/>
        <pt x="768" y="0" on="1"/>
      </contour>
      <contour>
        <pt x="1024" y="768" on="1"/>
        <pt x="1024" y="1024" on="1"/>
        <pt x="1280" y="1024" on="1"/>
        <pt x="1280" y="768" on="1"/>
      </contour>
      <contour>
        <pt x="512" y="1024" on="1"/>
        <pt x="512" y="1280" on="1"/>
        <pt x="768" y="1280" on="1"/>
        <pt x="768" y="1024" on="1"/>
      </contour>
      <contour>
        <pt x="1024" y="1280" on="1"/>
        <pt x="1024" y="1536" on="1"/>
        <pt x="1280" y="1536" on="1"/>
        <pt x="1280" y="1280" on="1"/>
      </contour>
      <contour>
        <pt x="1024" y="1536" on="1"/>
        <pt x="768" y="1536" on="1"/>
        <pt x="512" y="1536" on="1"/>
        <pt x="256" y="1536" on="1"/>
        <pt x="0" y="1536" on="1"/>
        <pt x="0" y="1792" on="1"/>
        <pt x="256" y="1792" on="1"/>
        <pt x="512" y="1792" on="1"/>
        <pt x="768" y="1792" on="1"/>
        <pt x="1024" y="1792" on="1"/>
      </contour>
    </TTGlyph>
    <TTGlyph name="BreakPermittedHere" xMin="0" yMin="0" xMax="1280" yMax="1792">
      <contour>
        <pt x="0" y="1280" on="1"/>
        <pt x="0" y="1536" on="1"/>
        <pt x="256" y="1536" on="1"/>
        <pt x="256" y="1280" on="1"/>
      </contour>
      <contour>
        <pt x="1024" y="256" on="1"/>
        <pt x="1280" y="256" on="1"/>
        <pt x="1280" y="0" on="1"/>
        <pt x="1024" y="0" on="1"/>
        <pt x="768" y="0" on="1"/>
        <pt x="512" y="0" on="1"/>
        <pt x="512" y="256" on="1"/>
        <pt x="768" y="256" on="1"/>
      </contour>
      <contour>
        <pt x="1024" y="1792" on="1"/>
        <pt x="1280" y="1792" on="1"/>
        <pt x="1280" y="1536" on="1"/>
        <pt x="1024" y="1536" on="1"/>
        <pt x="768" y="1536" on="1"/>
        <pt x="512" y="1536" on="1"/>
        <pt x="256" y="1536" on="1"/>
        <pt x="256" y="1792" on="1"/>
        <pt x="512" y="1792" on="1"/>
        <pt x="768" y="1792" on="1"/>
      </contour>
    </TTGlyph>
    <TTGlyph name="C" xMin="0" yMin="0" xMax="1280" yMax="1792">
      <contour>
        <pt x="0" y="1280" on="1"/>
        <pt x="0" y="1536" on="1"/>
        <pt x="256" y="1536" on="1"/>
        <pt x="256" y="1280" on="1"/>
      </contour>
      <contour>
        <pt x="1024" y="256" on="1"/>
        <pt x="1280" y="256" on="1"/>
        <pt x="1280" y="0" on="1"/>
        <pt x="1024" y="0" on="1"/>
        <pt x="768" y="0" on="1"/>
        <pt x="512" y="0" on="1"/>
        <pt x="512" y="256" on="1"/>
        <pt x="768" y="256" on="1"/>
      </contour>
      <contour>
        <pt x="1024" y="1792" on="1"/>
        <pt x="1280" y="1792" on="1"/>
        <pt x="1280" y="1536" on="1"/>
        <pt x="1024" y="1536" on="1"/>
        <pt x="768" y="1536" on="1"/>
        <pt x="512" y="1536" on="1"/>
        <pt x="256" y="1536" on="1"/>
        <pt x="256" y="1792" on="1"/>
        <pt x="512" y="1792" on="1"/>
        <pt x="768" y="1792" on="1"/>
      </contour>
    </TTGlyph>
    <TTGlyph name="Cancelcharacter" xMin="0" yMin="1024" xMax="768" yMax="1792">
      <contour>
        <pt x="256" y="1024" on="1"/>
        <pt x="256" y="1280" on="1"/>
        <pt x="512" y="1280" on="1"/>
        <pt x="512" y="1024" on="1"/>
      </contour>
      <contour>
        <pt x="512" y="1280" on="1"/>
        <pt x="512" y="1536" on="1"/>
        <pt x="768" y="1536" on="1"/>
        <pt x="768" y="1280" on="1"/>
      </contour>
      <contour>
        <pt x="256" y="1280" on="1"/>
        <pt x="0" y="1280" on="1"/>
        <pt x="0" y="1536" on="1"/>
        <pt x="256" y="1536" on="1"/>
      </contour>
      <contour>
        <pt x="256" y="1536" on="1"/>
        <pt x="256" y="1792" on="1"/>
        <pt x="512" y="1792" on="1"/>
        <pt x="512" y="1536" on="1"/>
      </contour>
    </TTGlyph>
    <TTGlyph name="Ccedilla" xMin="0" yMin="0" xMax="1280" yMax="1792">
      <contour>
        <pt x="0" y="1280" on="1"/>
        <pt x="0" y="1536" on="1"/>
        <pt x="256" y="1536" on="1"/>
        <pt x="256" y="1280" on="1"/>
      </contour>
      <contour>
        <pt x="1024" y="256" on="1"/>
        <pt x="1280" y="256" on="1"/>
        <pt x="1280" y="0" on="1"/>
        <pt x="1024" y="0" on="1"/>
        <pt x="768" y="0" on="1"/>
        <pt x="512" y="0" on="1"/>
        <pt x="512" y="256" on="1"/>
        <pt x="768" y="256" on="1"/>
      </contour>
      <contour>
        <pt x="1024" y="1792" on="1"/>
        <pt x="1280" y="1792" on="1"/>
        <pt x="1280" y="1536" on="1"/>
        <pt x="1024" y="1536" on="1"/>
        <pt x="768" y="1536" on="1"/>
        <pt x="512" y="1536" on="1"/>
        <pt x="256" y="1536" on="1"/>
        <pt x="256" y="1792" on="1"/>
        <pt x="512" y="1792" on="1"/>
        <pt x="768" y="1792" on="1"/>
      </contour>
    </TTGlyph>
    <TTGlyph name="Character(Horizontal" xMin="0" yMin="0" xMax="1280" yMax="1792">
      <contour>
        <pt x="512" y="0" on="1"/>
        <pt x="512" y="256" on="1"/>
        <pt x="768" y="256" on="1"/>
        <pt x="768" y="0" on="1"/>
      </contour>
      <contour>
        <pt x="0" y="256" on="1"/>
        <pt x="0" y="512" on="1"/>
        <pt x="256" y="512" on="1"/>
        <pt x="256" y="256" on="1"/>
      </contour>
      <contour>
        <pt x="1024" y="768" on="1"/>
        <pt x="1024" y="1024" on="1"/>
        <pt x="1280" y="1024" on="1"/>
        <pt x="1280" y="768" on="1"/>
      </contour>
      <contour>
        <pt x="512" y="768" on="1"/>
        <pt x="768" y="768" on="1"/>
        <pt x="768" y="512" on="1"/>
        <pt x="512" y="512" on="1"/>
        <pt x="256" y="512" on="1"/>
        <pt x="256" y="768" on="1"/>
      </contour>
      <contour>
        <pt x="1024" y="1024" on="1"/>
        <pt x="768" y="1024" on="1"/>
        <pt x="512" y="1024" on="1"/>
        <pt x="256" y="1024" on="1"/>
        <pt x="256" y="1280" on="1"/>
        <pt x="512" y="1280" on="1"/>
        <pt x="768" y="1280" on="1"/>
        <pt x="768" y="1536" on="1"/>
        <pt x="1024" y="1536" on="1"/>
        <pt x="1024" y="1280" on="1"/>
      </contour>
      <contour>
        <pt x="768" y="1536" on="1"/>
        <pt x="512" y="1536" on="1"/>
        <pt x="512" y="1792" on="1"/>
        <pt x="768" y="1792" on="1"/>
      </contour>
    </TTGlyph>
    <TTGlyph name="Character(Horizontal#1" xMin="0" yMin="0" xMax="1280" yMax="1792">
      <contour>
        <pt x="512" y="0" on="1"/>
        <pt x="512" y="256" on="1"/>
        <pt x="768" y="256" on="1"/>
        <pt x="768" y="0" on="1"/>
      </contour>
      <contour>
        <pt x="0" y="256" on="1"/>
        <pt x="0" y="512" on="1"/>
        <pt x="256" y="512" on="1"/>
        <pt x="256" y="256" on="1"/>
      </contour>
      <contour>
        <pt x="1024" y="1024" on="1"/>
        <pt x="1024" y="1280" on="1"/>
        <pt x="1280" y="1280" on="1"/>
        <pt x="1280" y="1024" on="1"/>
      </contour>
      <contour>
        <pt x="0" y="1024" on="1"/>
        <pt x="0" y="1280" on="1"/>
        <pt x="256" y="1280" on="1"/>
        <pt x="256" y="1024" on="1"/>
      </contour>
      <contour>
        <pt x="512" y="768" on="1"/>
        <pt x="768" y="768" on="1"/>
        <pt x="768" y="512" on="1"/>
        <pt x="512" y="512" on="1"/>
        <pt x="256" y="512" on="1"/>
        <pt x="256" y="768" on="1"/>
      </contour>
      <contour>
        <pt x="1024" y="1280" on="1"/>
        <pt x="768" y="1280" on="1"/>
        <pt x="768" y="1536" on="1"/>
        <pt x="1024" y="1536" on="1"/>
      </contour>
      <contour>
        <pt x="256" y="1280" on="1"/>
        <pt x="256" y="1536" on="1"/>
        <pt x="512" y="1536" on="1"/>
        <pt x="512" y="1280" on="1"/>
      </contour>
      <contour>
        <pt x="512" y="1536" on="1"/>
        <pt x="512" y="1792" on="1"/>
        <pt x="768" y="1792" on="1"/>
        <pt x="768" y="1536" on="1"/>
      </contour>
    </TTGlyph>
    <TTGlyph name="ControlSequenceIntro" xMin="0" yMin="0" xMax="1280" yMax="1792">
      <contour>
        <pt x="512" y="0" on="1"/>
        <pt x="512" y="256" on="1"/>
        <pt x="768" y="256" on="1"/>
        <pt x="768" y="0" on="1"/>
      </contour>
      <contour>
        <pt x="1024" y="768" on="1"/>
        <pt x="1024" y="1024" on="1"/>
        <pt x="1280" y="1024" on="1"/>
        <pt x="1280" y="768" on="1"/>
      </contour>
      <contour>
        <pt x="0" y="768" on="1"/>
        <pt x="0" y="1024" on="1"/>
        <pt x="256" y="1024" on="1"/>
        <pt x="256" y="768" on="1"/>
      </contour>
      <contour>
        <pt x="768" y="1280" on="1"/>
        <pt x="768" y="1536" on="1"/>
        <pt x="1024" y="1536" on="1"/>
        <pt x="1024" y="1280" on="1"/>
      </contour>
      <contour>
        <pt x="256" y="1024" on="1"/>
        <pt x="256" y="1280" on="1"/>
        <pt x="512" y="1280" on="1"/>
        <pt x="512" y="1024" on="1"/>
      </contour>
      <contour>
        <pt x="256" y="1280" on="1"/>
        <pt x="0" y="1280" on="1"/>
        <pt x="0" y="1536" on="1"/>
        <pt x="256" y="1536" on="1"/>
      </contour>
      <contour>
        <pt x="1024" y="1536" on="1"/>
        <pt x="1024" y="1792" on="1"/>
        <pt x="1280" y="1792" on="1"/>
        <pt x="1280" y="1536" on="1"/>
      </contour>
      <contour>
        <pt x="768" y="1536" on="1"/>
        <pt x="512" y="1536" on="1"/>
        <pt x="256" y="1536" on="1"/>
        <pt x="256" y="1792" on="1"/>
        <pt x="512" y="1792" on="1"/>
        <pt x="768" y="1792" on="1"/>
      </contour>
    </TTGlyph>
    <TTGlyph name="D" xMin="0" yMin="0" xMax="1280" yMax="1792">
      <contour>
        <pt x="512" y="0" on="1"/>
        <pt x="512" y="256" on="1"/>
        <pt x="768" y="256" on="1"/>
        <pt x="768" y="0" on="1"/>
      </contour>
      <contour>
        <pt x="1024" y="1280" on="1"/>
        <pt x="1024" y="1536" on="1"/>
        <pt x="1280" y="1536" on="1"/>
        <pt x="1280" y="1280" on="1"/>
      </contour>
      <contour>
        <pt x="1024" y="1536" on="1"/>
        <pt x="768" y="1536" on="1"/>
        <pt x="512" y="1536" on="1"/>
        <pt x="256" y="1536" on="1"/>
        <pt x="0" y="1536" on="1"/>
        <pt x="0" y="1792" on="1"/>
        <pt x="256" y="1792" on="1"/>
        <pt x="512" y="1792" on="1"/>
        <pt x="768" y="1792" on="1"/>
        <pt x="1024" y="1792" on="1"/>
      </contour>
    </TTGlyph>
    <TTGlyph name="DeviceControlString" xMin="0" yMin="0" xMax="1280" yMax="1792">
      <contour>
        <pt x="512" y="512" on="1"/>
        <pt x="512" y="768" on="1"/>
        <pt x="768" y="768" on="1"/>
        <pt x="768" y="512" on="1"/>
      </contour>
      <contour>
        <pt x="1024" y="1024" on="1"/>
        <pt x="1024" y="1280" on="1"/>
        <pt x="1280" y="1280" on="1"/>
        <pt x="1280" y="1024" on="1"/>
      </contour>
      <contour>
        <pt x="512" y="1024" on="1"/>
        <pt x="512" y="1280" on="1"/>
        <pt x="768" y="1280" on="1"/>
        <pt x="768" y="1024" on="1"/>
      </contour>
      <contour>
        <pt x="0" y="1024" on="1"/>
        <pt x="0" y="1280" on="1"/>
        <pt x="256" y="1280" on="1"/>
        <pt x="256" y="1024" on="1"/>
      </contour>
      <contour>
        <pt x="1024" y="256" on="1"/>
        <pt x="1280" y="256" on="1"/>
        <pt x="1280" y="0" on="1"/>
        <pt x="1024" y="0" on="1"/>
        <pt x="768" y="0" on="1"/>
        <pt x="512" y="0" on="1"/>
        <pt x="512" y="256" on="1"/>
        <pt x="768" y="256" on="1"/>
      </contour>
      <contour>
        <pt x="768" y="1280" on="1"/>
        <pt x="768" y="1536" on="1"/>
        <pt x="1024" y="1536" on="1"/>
        <pt x="1024" y="1280" on="1"/>
      </contour>
      <contour>
        <pt x="256" y="1280" on="1"/>
        <pt x="256" y="1536" on="1"/>
        <pt x="512" y="1536" on="1"/>
        <pt x="512" y="1280" on="1"/>
      </contour>
      <contour>
        <pt x="512" y="1536" on="1"/>
        <pt x="512" y="1792" on="1"/>
        <pt x="768" y="1792" on="1"/>
        <pt x="768" y="1536" on="1"/>
      </contour>
    </TTGlyph>
    <TTGlyph name="E" xMin="0" yMin="0" xMax="1280" yMax="1792">
      <contour>
        <pt x="1024" y="256" on="1"/>
        <pt x="1280" y="256" on="1"/>
        <pt x="1280" y="0" on="1"/>
        <pt x="1024" y="0" on="1"/>
        <pt x="768" y="0" on="1"/>
        <pt x="512" y="0" on="1"/>
        <pt x="512" y="256" on="1"/>
        <pt x="768" y="256" on="1"/>
      </contour>
      <contour>
        <pt x="768" y="1280" on="1"/>
        <pt x="1024" y="1280" on="1"/>
        <pt x="1024" y="1024" on="1"/>
        <pt x="768" y="1024" on="1"/>
        <pt x="512" y="1024" on="1"/>
        <pt x="512" y="1280" on="1"/>
      </contour>
      <contour>
        <pt x="1024" y="1792" on="1"/>
        <pt x="1280" y="1792" on="1"/>
        <pt x="1280" y="1536" on="1"/>
        <pt x="1024" y="1536" on="1"/>
        <pt x="768" y="1536" on="1"/>
        <pt x="512" y="1536" on="1"/>
        <pt x="256" y="1536" on="1"/>
        <pt x="0" y="1536" on="1"/>
        <pt x="0" y="1792" on="1"/>
        <pt x="256" y="1792" on="1"/>
        <pt x="512" y="1792" on="1"/>
        <pt x="768" y="1792" on="1"/>
      </contour>
    </TTGlyph>
    <TTGlyph name="Eacute" xMin="0" yMin="0" xMax="1280" yMax="1792">
      <contour>
        <pt x="1024" y="256" on="1"/>
        <pt x="1280" y="256" on="1"/>
        <pt x="1280" y="0" on="1"/>
        <pt x="1024" y="0" on="1"/>
        <pt x="768" y="0" on="1"/>
        <pt x="512" y="0" on="1"/>
        <pt x="512" y="256" on="1"/>
        <pt x="768" y="256" on="1"/>
      </contour>
      <contour>
        <pt x="768" y="768" on="1"/>
        <pt x="1024" y="768" on="1"/>
        <pt x="1024" y="512" on="1"/>
        <pt x="768" y="512" on="1"/>
        <pt x="512" y="512" on="1"/>
        <pt x="512" y="768" on="1"/>
      </contour>
      <contour>
        <pt x="1024" y="1280" on="1"/>
        <pt x="1280" y="1280" on="1"/>
        <pt x="1280" y="1024" on="1"/>
        <pt x="1024" y="1024" on="1"/>
        <pt x="768" y="1024" on="1"/>
        <pt x="768" y="1280" on="1"/>
      </contour>
      <contour>
        <pt x="256" y="1280" on="1"/>
        <pt x="512" y="1280" on="1"/>
        <pt x="512" y="1024" on="1"/>
        <pt x="256" y="1024" on="1"/>
        <pt x="0" y="1024" on="1"/>
        <pt x="0" y="1280" on="1"/>
      </contour>
      <contour>
        <pt x="512" y="1280" on="1"/>
        <pt x="512" y="1536" on="1"/>
        <pt x="768" y="1536" on="1"/>
        <pt x="768" y="1280" on="1"/>
      </contour>
      <contour>
        <pt x="768" y="1536" on="1"/>
        <pt x="768" y="1792" on="1"/>
        <pt x="1024" y="1792" on="1"/>
        <pt x="1024" y="1536" on="1"/>
      </contour>
    </TTGlyph>
    <TTGlyph name="Ecircumflex" xMin="0" yMin="0" xMax="1280" yMax="1792">
      <contour>
        <pt x="1024" y="1024" on="1"/>
        <pt x="1024" y="1280" on="1"/>
        <pt x="1280" y="1280" on="1"/>
        <pt x="1280" y="1024" on="1"/>
      </contour>
      <contour>
        <pt x="0" y="1024" on="1"/>
        <pt x="0" y="1280" on="1"/>
        <pt x="256" y="1280" on="1"/>
        <pt x="256" y="1024" on="1"/>
      </contour>
      <contour>
        <pt x="1024" y="256" on="1"/>
        <pt x="1280" y="256" on="1"/>
        <pt x="1280" y="0" on="1"/>
        <pt x="1024" y="0" on="1"/>
        <pt x="768" y="0" on="1"/>
        <pt x="512" y="0" on="1"/>
        <pt x="512" y="256" on="1"/>
        <pt x="768" y="256" on="1"/>
      </contour>
      <contour>
        <pt x="768" y="768" on="1"/>
        <pt x="1024" y="768" on="1"/>
        <pt x="1024" y="512" on="1"/>
        <pt x="768" y="512" on="1"/>
        <pt x="512" y="512" on="1"/>
        <pt x="512" y="768" on="1"/>
      </contour>
      <contour>
        <pt x="1024" y="1280" on="1"/>
        <pt x="768" y="1280" on="1"/>
        <pt x="768" y="1536" on="1"/>
        <pt x="1024" y="1536" on="1"/>
      </contour>
      <contour>
        <pt x="256" y="1280" on="1"/>
        <pt x="256" y="1536" on="1"/>
        <pt x="512" y="1536" on="1"/>
        <pt x="512" y="1280" on="1"/>
      </contour>
      <contour>
        <pt x="512" y="1536" on="1"/>
        <pt x="512" y="1792" on="1"/>
        <pt x="768" y="1792" on="1"/>
        <pt x="768" y="1536" on="1"/>
      </contour>
    </TTGlyph>
    <TTGlyph name="Edieresis" xMin="0" yMin="0" xMax="1280" yMax="1792">
      <contour>
        <pt x="768" y="1536" on="1"/>
        <pt x="768" y="1792" on="1"/>
        <pt x="1024" y="1792" on="1"/>
        <pt x="1024" y="1536" on="1"/>
      </contour>
      <contour>
        <pt x="256" y="1536" on="1"/>
        <pt x="256" y="1792" on="1"/>
        <pt x="512" y="1792" on="1"/>
        <pt x="512" y="1536" on="1"/>
      </contour>
      <contour>
        <pt x="1024" y="256" on="1"/>
        <pt x="1280" y="256" on="1"/>
        <pt x="1280" y="0" on="1"/>
        <pt x="1024" y="0" on="1"/>
        <pt x="768" y="0" on="1"/>
        <pt x="512" y="0" on="1"/>
        <pt x="512" y="256" on="1"/>
        <pt x="768" y="256" on="1"/>
      </contour>
      <contour>
        <pt x="768" y="768" on="1"/>
        <pt x="1024" y="768" on="1"/>
        <pt x="1024" y="512" on="1"/>
        <pt x="768" y="512" on="1"/>
        <pt x="512" y="512" on="1"/>
        <pt x="512" y="768" on="1"/>
      </contour>
      <contour>
        <pt x="1024" y="1280" on="1"/>
        <pt x="1280" y="1280" on="1"/>
        <pt x="1280" y="1024" on="1"/>
        <pt x="1024" y="1024" on="1"/>
        <pt x="768" y="1024" on="1"/>
        <pt x="512" y="1024" on="1"/>
        <pt x="256" y="1024" on="1"/>
        <pt x="0" y="1024" on="1"/>
        <pt x="0" y="1280" on="1"/>
        <pt x="256" y="1280" on="1"/>
        <pt x="512" y="1280" on="1"/>
        <pt x="768" y="1280" on="1"/>
      </contour>
    </TTGlyph>
    <TTGlyph name="Egrave" xMin="0" yMin="0" xMax="1280" yMax="1792">
      <contour>
        <pt x="1024" y="256" on="1"/>
        <pt x="1280" y="256" on="1"/>
        <pt x="1280" y="0" on="1"/>
        <pt x="1024" y="0" on="1"/>
        <pt x="768" y="0" on="1"/>
        <pt x="512" y="0" on="1"/>
        <pt x="512" y="256" on="1"/>
        <pt x="768" y="256" on="1"/>
      </contour>
      <contour>
        <pt x="768" y="768" on="1"/>
        <pt x="1024" y="768" on="1"/>
        <pt x="1024" y="512" on="1"/>
        <pt x="768" y="512" on="1"/>
        <pt x="512" y="512" on="1"/>
        <pt x="512" y="768" on="1"/>
      </contour>
      <contour>
        <pt x="1024" y="1280" on="1"/>
        <pt x="1280" y="1280" on="1"/>
        <pt x="1280" y="1024" on="1"/>
        <pt x="1024" y="1024" on="1"/>
        <pt x="768" y="1024" on="1"/>
        <pt x="768" y="1280" on="1"/>
      </contour>
      <contour>
        <pt x="256" y="1280" on="1"/>
        <pt x="512" y="1280" on="1"/>
        <pt x="512" y="1024" on="1"/>
        <pt x="256" y="1024" on="1"/>
        <pt x="0" y="1024" on="1"/>
        <pt x="0" y="1280" on="1"/>
      </contour>
      <contour>
        <pt x="512" y="1280" on="1"/>
        <pt x="512" y="1536" on="1"/>
        <pt x="768" y="1536" on="1"/>
        <pt x="768" y="1280" on="1"/>
      </contour>
      <contour>
        <pt x="512" y="1536" on="1"/>
        <pt x="256" y="1536" on="1"/>
        <pt x="256" y="1792" on="1"/>
        <pt x="512" y="1792" on="1"/>
      </contour>
    </TTGlyph>
    <TTGlyph name="EndofProtectedArea" xMin="0" yMin="0" xMax="1280" yMax="1792">
      <contour>
        <pt x="512" y="0" on="1"/>
        <pt x="512" y="256" on="1"/>
        <pt x="768" y="256" on="1"/>
        <pt x="768" y="0" on="1"/>
      </contour>
      <contour>
        <pt x="1024" y="768" on="1"/>
        <pt x="1024" y="1024" on="1"/>
        <pt x="1280" y="1024" on="1"/>
        <pt x="1280" y="768" on="1"/>
      </contour>
      <contour>
        <pt x="0" y="768" on="1"/>
        <pt x="0" y="1024" on="1"/>
        <pt x="256" y="1024" on="1"/>
        <pt x="256" y="768" on="1"/>
      </contour>
      <contour>
        <pt x="1024" y="1024" on="1"/>
        <pt x="768" y="1024" on="1"/>
        <pt x="768" y="1280" on="1"/>
        <pt x="1024" y="1280" on="1"/>
      </contour>
      <contour>
        <pt x="256" y="1024" on="1"/>
        <pt x="256" y="1280" on="1"/>
        <pt x="512" y="1280" on="1"/>
        <pt x="512" y="1024" on="1"/>
      </contour>
      <contour>
        <pt x="512" y="1280" on="1"/>
        <pt x="512" y="1536" on="1"/>
        <pt x="768" y="1536" on="1"/>
        <pt x="768" y="1280" on="1"/>
      </contour>
      <contour>
        <pt x="768" y="1536" on="1"/>
        <pt x="768" y="1792" on="1"/>
        <pt x="1024" y="1792" on="1"/>
        <pt x="1024" y="1536" on="1"/>
      </contour>
    </TTGlyph>
    <TTGlyph name="EndofSelectedArea" xMin="0" yMin="0" xMax="1280" yMax="1792">
      <contour>
        <pt x="512" y="0" on="1"/>
        <pt x="512" y="256" on="1"/>
        <pt x="768" y="256" on="1"/>
        <pt x="768" y="0" on="1"/>
      </contour>
      <contour>
        <pt x="0" y="256" on="1"/>
        <pt x="0" y="512" on="1"/>
        <pt x="256" y="512" on="1"/>
        <pt x="256" y="256" on="1"/>
      </contour>
      <contour>
        <pt x="1024" y="768" on="1"/>
        <pt x="1024" y="1024" on="1"/>
        <pt x="1280" y="1024" on="1"/>
        <pt x="1280" y="768" on="1"/>
      </contour>
      <contour>
        <pt x="256" y="1024" on="1"/>
        <pt x="256" y="1280" on="1"/>
        <pt x="512" y="1280" on="1"/>
        <pt x="512" y="1024" on="1"/>
      </contour>
      <contour>
        <pt x="512" y="768" on="1"/>
        <pt x="768" y="768" on="1"/>
        <pt x="768" y="512" on="1"/>
        <pt x="512" y="512" on="1"/>
        <pt x="256" y="512" on="1"/>
        <pt x="256" y="768" on="1"/>
      </contour>
      <contour>
        <pt x="1024" y="1024" on="1"/>
        <pt x="768" y="1024" on="1"/>
        <pt x="768" y="1280" on="1"/>
        <pt x="1024" y="1280" on="1"/>
      </contour>
      <contour>
        <pt x="512" y="1280" on="1"/>
        <pt x="512" y="1536" on="1"/>
        <pt x="768" y="1536" on="1"/>
        <pt x="768" y="1280" on="1"/>
      </contour>
      <contour>
        <pt x="768" y="1536" on="1"/>
        <pt x="768" y="1792" on="1"/>
        <pt x="1024" y="1792" on="1"/>
        <pt x="1024" y="1536" on="1"/>
      </contour>
    </TTGlyph>
    <TTGlyph name="Euro" xMin="0" yMin="0" xMax="1536" yMax="1536">
      <contour>
        <pt x="0" y="768" on="1"/>
        <pt x="0" y="1024" on="1"/>
        <pt x="256" y="1024" on="1"/>
        <pt x="256" y="768" on="1"/>
      </contour>
      <contour>
        <pt x="1024" y="256" on="1"/>
        <pt x="1280" y="256" on="1"/>
        <pt x="1280" y="0" on="1"/>
        <pt x="1024" y="0" on="1"/>
        <pt x="768" y="0" on="1"/>
        <pt x="512" y="0" on="1"/>
        <pt x="512" y="256" on="1"/>
        <pt x="768" y="256" on="1"/>
      </contour>
      <contour>
        <pt x="1280" y="256" on="1"/>
        <pt x="1280" y="512" on="1"/>
        <pt x="1536" y="512" on="1"/>
        <pt x="1536" y="256" on="1"/>
      </contour>
      <contour>
        <pt x="1024" y="1024" on="1"/>
        <pt x="1280" y="1024" on="1"/>
        <pt x="1280" y="768" on="1"/>
        <pt x="1024" y="768" on="1"/>
        <pt x="768" y="768" on="1"/>
        <pt x="512" y="768" on="1"/>
        <pt x="512" y="1024" on="1"/>
        <pt x="768" y="1024" on="1"/>
      </contour>
      <contour>
        <pt x="1280" y="1024" on="1"/>
        <pt x="1280" y="1280" on="1"/>
        <pt x="1536" y="1280" on="1"/>
        <pt x="1536" y="1024" on="1"/>
      </contour>
      <contour>
        <pt x="256" y="1024" on="1"/>
        <pt x="256" y="1280" on="1"/>
        <pt x="512" y="1280" on="1"/>
        <pt x="512" y="1024" on="1"/>
      </contour>
      <contour>
        <pt x="1280" y="1280" on="1"/>
        <pt x="1024" y="1280" on="1"/>
        <pt x="768" y="1280" on="1"/>
        <pt x="512" y="1280" on="1"/>
        <pt x="512" y="1536" on="1"/>
        <pt x="768" y="1536" on="1"/>
        <pt x="1024" y="1536" on="1"/>
        <pt x="1280" y="1536" on="1"/>
      </contour>
    </TTGlyph>
    <TTGlyph name="F" xMin="0" yMin="1024" xMax="1280" yMax="1792">
      <contour>
        <pt x="768" y="1280" on="1"/>
        <pt x="1024" y="1280" on="1"/>
        <pt x="1024" y="1024" on="1"/>
        <pt x="768" y="1024" on="1"/>
        <pt x="512" y="1024" on="1"/>
        <pt x="512" y="1280" on="1"/>
      </contour>
      <contour>
        <pt x="1024" y="1792" on="1"/>
        <pt x="1280" y="1792" on="1"/>
        <pt x="1280" y="1536" on="1"/>
        <pt x="1024" y="1536" on="1"/>
        <pt x="768" y="1536" on="1"/>
        <pt x="512" y="1536" on="1"/>
        <pt x="256" y="1536" on="1"/>
        <pt x="0" y="1536" on="1"/>
        <pt x="0" y="1792" on="1"/>
        <pt x="256" y="1792" on="1"/>
        <pt x="512" y="1792" on="1"/>
        <pt x="768" y="1792" on="1"/>
      </contour>
    </TTGlyph>
    <TTGlyph name="G" xMin="0" yMin="0" xMax="1280" yMax="1792">
      <contour>
        <pt x="512" y="0" on="1"/>
        <pt x="512" y="256" on="1"/>
        <pt x="768" y="256" on="1"/>
        <pt x="768" y="0" on="1"/>
      </contour>
      <contour>
        <pt x="0" y="1280" on="1"/>
        <pt x="0" y="1536" on="1"/>
        <pt x="256" y="1536" on="1"/>
        <pt x="256" y="1280" on="1"/>
      </contour>
      <contour>
        <pt x="1024" y="1024" on="1"/>
        <pt x="1280" y="1024" on="1"/>
        <pt x="1280" y="768" on="1"/>
        <pt x="1024" y="768" on="1"/>
        <pt x="768" y="768" on="1"/>
        <pt x="768" y="1024" on="1"/>
      </contour>
      <contour>
        <pt x="768" y="1792" on="1"/>
        <pt x="1024" y="1792" on="1"/>
        <pt x="1024" y="1536" on="1"/>
        <pt x="768" y="1536" on="1"/>
        <pt x="512" y="1536" on="1"/>
        <pt x="256" y="1536" on="1"/>
        <pt x="256" y="1792" on="1"/>
        <pt x="512" y="1792" on="1"/>
      </contour>
    </TTGlyph>
    <TTGlyph name="Gbreve" xMin="0" yMin="0" xMax="1280" yMax="1792">
      <contour>
        <pt x="512" y="0" on="1"/>
        <pt x="512" y="256" on="1"/>
        <pt x="768" y="256" on="1"/>
        <pt x="768" y="0" on="1"/>
      </contour>
      <contour>
        <pt x="0" y="768" on="1"/>
        <pt x="0" y="1024" on="1"/>
        <pt x="256" y="1024" on="1"/>
        <pt x="256" y="768" on="1"/>
      </contour>
      <contour>
        <pt x="1024" y="768" on="1"/>
        <pt x="1280" y="768" on="1"/>
        <pt x="1280" y="512" on="1"/>
        <pt x="1024" y="512" on="1"/>
        <pt x="768" y="512" on="1"/>
        <pt x="768" y="768" on="1"/>
      </contour>
      <contour>
        <pt x="768" y="1536" on="1"/>
        <pt x="1024" y="1536" on="1"/>
        <pt x="1024" y="1280" on="1"/>
        <pt x="768" y="1280" on="1"/>
        <pt x="512" y="1280" on="1"/>
        <pt x="256" y="1280" on="1"/>
        <pt x="256" y="1536" on="1"/>
        <pt x="512" y="1536" on="1"/>
      </contour>
      <contour>
        <pt x="1024" y="1536" on="1"/>
        <pt x="1024" y="1792" on="1"/>
        <pt x="1280" y="1792" on="1"/>
        <pt x="1280" y="1536" on="1"/>
      </contour>
      <contour>
        <pt x="256" y="1536" on="1"/>
        <pt x="0" y="1536" on="1"/>
        <pt x="0" y="1792" on="1"/>
        <pt x="256" y="1792" on="1"/>
      </contour>
    </TTGlyph>
    <TTGlyph name="H" xMin="0" yMin="1024" xMax="1280" yMax="1792">
      <contour>
        <pt x="512" y="1024" on="1"/>
        <pt x="512" y="1280" on="1"/>
        <pt x="768" y="1280" on="1"/>
        <pt x="768" y="1024" on="1"/>
      </contour>
      <contour>
        <pt x="1024" y="1792" on="1"/>
        <pt x="1280" y="1792" on="1"/>
        <pt x="1280" y="1536" on="1"/>
        <pt x="1024" y="1536" on="1"/>
        <pt x="768" y="1536" on="1"/>
        <pt x="768" y="1792" on="1"/>
      </contour>
      <contour>
        <pt x="256" y="1792" on="1"/>
        <pt x="512" y="1792" on="1"/>
        <pt x="512" y="1536" on="1"/>
        <pt x="256" y="1536" on="1"/>
        <pt x="0" y="1536" on="1"/>
        <pt x="0" y="1792" on="1"/>
      </contour>
    </TTGlyph>
    <TTGlyph name="HighOctetPreset" xMin="0" yMin="512" xMax="1280" yMax="1792">
      <contour>
        <pt x="512" y="512" on="1"/>
        <pt x="512" y="768" on="1"/>
        <pt x="768" y="768" on="1"/>
        <pt x="768" y="512" on="1"/>
      </contour>
      <contour>
        <pt x="1024" y="768" on="1"/>
        <pt x="1024" y="1024" on="1"/>
        <pt x="1280" y="1024" on="1"/>
        <pt x="1280" y="768" on="1"/>
      </contour>
      <contour>
        <pt x="0" y="768" on="1"/>
        <pt x="0" y="1024" on="1"/>
        <pt x="256" y="1024" on="1"/>
        <pt x="256" y="768" on="1"/>
      </contour>
      <contour>
        <pt x="512" y="1024" on="1"/>
        <pt x="512" y="1280" on="1"/>
        <pt x="768" y="1280" on="1"/>
        <pt x="768" y="1024" on="1"/>
      </contour>
      <contour>
        <pt x="768" y="1280" on="1"/>
        <pt x="768" y="1536" on="1"/>
        <pt x="1024" y="1536" on="1"/>
        <pt x="1024" y="1280" on="1"/>
      </contour>
      <contour>
        <pt x="512" y="1280" on="1"/>
        <pt x="256" y="1280" on="1"/>
        <pt x="256" y="1536" on="1"/>
        <pt x="512" y="1536" on="1"/>
      </contour>
      <contour>
        <pt x="512" y="1536" on="1"/>
        <pt x="512" y="1792" on="1"/>
        <pt x="768" y="1792" on="1"/>
        <pt x="768" y="1536" on="1"/>
      </contour>
    </TTGlyph>
    <TTGlyph name="I" xMin="0" yMin="1536" xMax="512" yMax="1792">
      <contour>
        <pt x="256" y="1792" on="1"/>
        <pt x="512" y="1792" on="1"/>
        <pt x="512" y="1536" on="1"/>
        <pt x="256" y="1536" on="1"/>
        <pt x="0" y="1536" on="1"/>
        <pt x="0" y="1792" on="1"/>
      </contour>
    </TTGlyph>
    <TTGlyph name="Iacute" xMin="0" yMin="1024" xMax="512" yMax="1792">
      <contour>
        <pt x="256" y="1024" on="1"/>
        <pt x="256" y="1280" on="1"/>
        <pt x="512" y="1280" on="1"/>
        <pt x="512" y="1024" on="1"/>
      </contour>
      <contour>
        <pt x="256" y="1280" on="1"/>
        <pt x="0" y="1280" on="1"/>
        <pt x="0" y="1536" on="1"/>
        <pt x="256" y="1536" on="1"/>
      </contour>
      <contour>
        <pt x="256" y="1536" on="1"/>
        <pt x="256" y="1792" on="1"/>
        <pt x="512" y="1792" on="1"/>
        <pt x="512" y="1536" on="1"/>
      </contour>
    </TTGlyph>
    <TTGlyph name="Icircumflex" xMin="0" yMin="1024" xMax="768" yMax="1792">
      <contour>
        <pt x="256" y="1024" on="1"/>
        <pt x="256" y="1280" on="1"/>
        <pt x="512" y="1280" on="1"/>
        <pt x="512" y="1024" on="1"/>
      </contour>
      <contour>
        <pt x="512" y="1280" on="1"/>
        <pt x="512" y="1536" on="1"/>
        <pt x="768" y="1536" on="1"/>
        <pt x="768" y="1280" on="1"/>
      </contour>
      <contour>
        <pt x="256" y="1280" on="1"/>
        <pt x="0" y="1280" on="1"/>
        <pt x="0" y="1536" on="1"/>
        <pt x="256" y="1536" on="1"/>
      </contour>
      <contour>
        <pt x="256" y="1536" on="1"/>
        <pt x="256" y="1792" on="1"/>
        <pt x="512" y="1792" on="1"/>
        <pt x="512" y="1536" on="1"/>
      </contour>
    </TTGlyph>
    <TTGlyph name="Idieresis" xMin="0" yMin="1024" xMax="768" yMax="1792">
      <contour>
        <pt x="512" y="1536" on="1"/>
        <pt x="512" y="1792" on="1"/>
        <pt x="768" y="1792" on="1"/>
        <pt x="768" y="1536" on="1"/>
      </contour>
      <contour>
        <pt x="0" y="1536" on="1"/>
        <pt x="0" y="1792" on="1"/>
        <pt x="256" y="1792" on="1"/>
        <pt x="256" y="1536" on="1"/>
      </contour>
      <contour>
        <pt x="512" y="1280" on="1"/>
        <pt x="768" y="1280" on="1"/>
        <pt x="768" y="1024" on="1"/>
        <pt x="512" y="1024" on="1"/>
        <pt x="256" y="1024" on="1"/>
        <pt x="256" y="1280" on="1"/>
      </contour>
    </TTGlyph>
    <TTGlyph name="Igrave" xMin="0" yMin="1024" xMax="512" yMax="1792">
      <contour>
        <pt x="0" y="1024" on="1"/>
        <pt x="0" y="1280" on="1"/>
        <pt x="256" y="1280" on="1"/>
        <pt x="256" y="1024" on="1"/>
      </contour>
      <contour>
        <pt x="256" y="1280" on="1"/>
        <pt x="256" y="1536" on="1"/>
        <pt x="512" y="1536" on="1"/>
        <pt x="512" y="1280" on="1"/>
      </contour>
      <contour>
        <pt x="256" y="1536" on="1"/>
        <pt x="0" y="1536" on="1"/>
        <pt x="0" y="1792" on="1"/>
        <pt x="256" y="1792" on="1"/>
      </contour>
    </TTGlyph>
    <TTGlyph name="Index" xMin="0" yMin="512" xMax="1280" yMax="1792">
      <contour>
        <pt x="512" y="512" on="1"/>
        <pt x="512" y="768" on="1"/>
        <pt x="768" y="768" on="1"/>
        <pt x="768" y="512" on="1"/>
      </contour>
      <contour>
        <pt x="1024" y="1024" on="1"/>
        <pt x="1024" y="1280" on="1"/>
        <pt x="1280" y="1280" on="1"/>
        <pt x="1280" y="1024" on="1"/>
      </contour>
      <contour>
        <pt x="512" y="768" on="1"/>
        <pt x="256" y="768" on="1"/>
        <pt x="256" y="1024" on="1"/>
        <pt x="512" y="1024" on="1"/>
      </contour>
      <contour>
        <pt x="256" y="1024" on="1"/>
        <pt x="0" y="1024" on="1"/>
        <pt x="0" y="1280" on="1"/>
        <pt x="0" y="1536" on="1"/>
        <pt x="256" y="1536" on="1"/>
        <pt x="256" y="1280" on="1"/>
      </contour>
      <contour>
        <pt x="1024" y="1280" on="1"/>
        <pt x="768" y="1280" on="1"/>
        <pt x="768" y="1536" on="1"/>
        <pt x="1024" y="1536" on="1"/>
      </contour>
      <contour>
        <pt x="1024" y="1536" on="1"/>
        <pt x="1024" y="1792" on="1"/>
        <pt x="1280" y="1792" on="1"/>
        <pt x="1280" y="1536" on="1"/>
      </contour>
      <contour>
        <pt x="768" y="1536" on="1"/>
        <pt x="512" y="1536" on="1"/>
        <pt x="256" y="1536" on="1"/>
        <pt x="256" y="1792" on="1"/>
        <pt x="512" y="1792" on="1"/>
        <pt x="768" y="1792" on="1"/>
      </contour>
    </TTGlyph>
    <TTGlyph name="J" xMin="0" yMin="0" xMax="1024" yMax="1792">
      <contour>
        <pt x="256" y="256" on="1"/>
        <pt x="512" y="256" on="1"/>
        <pt x="512" y="0" on="1"/>
        <pt x="256" y="0" on="1"/>
        <pt x="0" y="0" on="1"/>
        <pt x="0" y="256" on="1"/>
      </contour>
      <contour>
        <pt x="768" y="1792" on="1"/>
        <pt x="1024" y="1792" on="1"/>
        <pt x="1024" y="1536" on="1"/>
        <pt x="768" y="1536" on="1"/>
        <pt x="512" y="1536" on="1"/>
        <pt x="512" y="1792" on="1"/>
      </contour>
    </TTGlyph>
    <TTGlyph name="K" xMin="0" yMin="0" xMax="1536" yMax="1792">
      <contour>
        <pt x="1280" y="0" on="1"/>
        <pt x="1280" y="256" on="1"/>
        <pt x="1536" y="256" on="1"/>
        <pt x="1536" y="0" on="1"/>
      </contour>
      <contour>
        <pt x="512" y="1024" on="1"/>
        <pt x="512" y="1280" on="1"/>
        <pt x="768" y="1280" on="1"/>
        <pt x="768" y="1024" on="1"/>
      </contour>
      <contour>
        <pt x="1280" y="256" on="1"/>
        <pt x="1024" y="256" on="1"/>
        <pt x="1024" y="512" on="1"/>
        <pt x="1280" y="512" on="1"/>
      </contour>
      <contour>
        <pt x="1024" y="512" on="1"/>
        <pt x="768" y="512" on="1"/>
        <pt x="768" y="768" on="1"/>
        <pt x="1024" y="768" on="1"/>
      </contour>
      <contour>
        <pt x="768" y="1280" on="1"/>
        <pt x="768" y="1536" on="1"/>
        <pt x="1024" y="1536" on="1"/>
        <pt x="1024" y="1280" on="1"/>
      </contour>
      <contour>
        <pt x="1280" y="1792" on="1"/>
        <pt x="1536" y="1792" on="1"/>
        <pt x="1536" y="1536" on="1"/>
        <pt x="1280" y="1536" on="1"/>
        <pt x="1024" y="1536" on="1"/>
        <pt x="1024" y="1792" on="1"/>
      </contour>
      <contour>
        <pt x="256" y="1792" on="1"/>
        <pt x="512" y="1792" on="1"/>
        <pt x="512" y="1536" on="1"/>
        <pt x="256" y="1536" on="1"/>
        <pt x="0" y="1536" on="1"/>
        <pt x="0" y="1792" on="1"/>
      </contour>
    </TTGlyph>
    <TTGlyph name="L" xMin="0" yMin="0" xMax="1024" yMax="1792">
      <contour>
        <pt x="768" y="256" on="1"/>
        <pt x="1024" y="256" on="1"/>
        <pt x="1024" y="0" on="1"/>
        <pt x="768" y="0" on="1"/>
        <pt x="512" y="0" on="1"/>
        <pt x="512" y="256" on="1"/>
      </contour>
      <contour>
        <pt x="256" y="1792" on="1"/>
        <pt x="512" y="1792" on="1"/>
        <pt x="512" y="1536" on="1"/>
        <pt x="256" y="1536" on="1"/>
        <pt x="0" y="1536" on="1"/>
        <pt x="0" y="1792" on="1"/>
      </contour>
    </TTGlyph>
    <TTGlyph name="Line(Vertical)Tabula" xMin="0" yMin="0" xMax="1280" yMax="1792">
      <contour>
        <pt x="512" y="0" on="1"/>
        <pt x="512" y="256" on="1"/>
        <pt x="768" y="256" on="1"/>
        <pt x="768" y="0" on="1"/>
      </contour>
      <contour>
        <pt x="0" y="256" on="1"/>
        <pt x="0" y="512" on="1"/>
        <pt x="256" y="512" on="1"/>
        <pt x="256" y="256" on="1"/>
      </contour>
      <contour>
        <pt x="1024" y="768" on="1"/>
        <pt x="1024" y="1024" on="1"/>
        <pt x="1280" y="1024" on="1"/>
        <pt x="1280" y="768" on="1"/>
      </contour>
      <contour>
        <pt x="768" y="1536" on="1"/>
        <pt x="768" y="1792" on="1"/>
        <pt x="1024" y="1792" on="1"/>
        <pt x="1024" y="1536" on="1"/>
      </contour>
      <contour>
        <pt x="256" y="1536" on="1"/>
        <pt x="256" y="1792" on="1"/>
        <pt x="512" y="1792" on="1"/>
        <pt x="512" y="1536" on="1"/>
      </contour>
      <contour>
        <pt x="512" y="768" on="1"/>
        <pt x="768" y="768" on="1"/>
        <pt x="768" y="512" on="1"/>
        <pt x="512" y="512" on="1"/>
        <pt x="256" y="512" on="1"/>
        <pt x="256" y="768" on="1"/>
      </contour>
      <contour>
        <pt x="1024" y="1024" on="1"/>
        <pt x="768" y="1024" on="1"/>
        <pt x="512" y="1024" on="1"/>
        <pt x="256" y="1024" on="1"/>
        <pt x="256" y="1280" on="1"/>
        <pt x="512" y="1280" on="1"/>
        <pt x="768" y="1280" on="1"/>
        <pt x="1024" y="1280" on="1"/>
      </contour>
    </TTGlyph>
    <TTGlyph name="M" xMin="0" yMin="768" xMax="1792" yMax="1792">
      <contour>
        <pt x="768" y="768" on="1"/>
        <pt x="768" y="1024" on="1"/>
        <pt x="1024" y="1024" on="1"/>
        <pt x="1024" y="768" on="1"/>
      </contour>
      <contour>
        <pt x="1024" y="1024" on="1"/>
        <pt x="1024" y="1280" on="1"/>
        <pt x="1280" y="1280" on="1"/>
        <pt x="1280" y="1024" on="1"/>
      </contour>
      <contour>
        <pt x="768" y="1024" on="1"/>
        <pt x="512" y="1024" on="1"/>
        <pt x="512" y="1280" on="1"/>
        <pt x="768" y="1280" on="1"/>
      </contour>
      <contour>
        <pt x="1280" y="1280" on="1"/>
        <pt x="1280" y="1536" on="1"/>
        <pt x="1536" y="1536" on="1"/>
        <pt x="1536" y="1280" on="1"/>
      </contour>
      <contour>
        <pt x="512" y="1280" on="1"/>
        <pt x="256" y="1280" on="1"/>
        <pt x="256" y="1536" on="1"/>
        <pt x="512" y="1536" on="1"/>
      </contour>
      <contour>
        <pt x="1536" y="1536" on="1"/>
        <pt x="1536" y="1792" on="1"/>
        <pt x="1792" y="1792" on="1"/>
        <pt x="1792" y="1536" on="1"/>
      </contour>
      <contour>
        <pt x="256" y="1536" on="1"/>
        <pt x="0" y="1536" on="1"/>
        <pt x="0" y="1792" on="1"/>
        <pt x="256" y="1792" on="1"/>
      </contour>
    </TTGlyph>
    <TTGlyph name="MessageWaiting" xMin="0" yMin="1024" xMax="768" yMax="1792">
      <contour>
        <pt x="512" y="1536" on="1"/>
        <pt x="512" y="1792" on="1"/>
        <pt x="768" y="1792" on="1"/>
        <pt x="768" y="1536" on="1"/>
      </contour>
      <contour>
        <pt x="0" y="1536" on="1"/>
        <pt x="0" y="1792" on="1"/>
        <pt x="256" y="1792" on="1"/>
        <pt x="256" y="1536" on="1"/>
      </contour>
      <contour>
        <pt x="512" y="1280" on="1"/>
        <pt x="768" y="1280" on="1"/>
        <pt x="768" y="1024" on="1"/>
        <pt x="512" y="1024" on="1"/>
        <pt x="256" y="1024" on="1"/>
        <pt x="256" y="1280" on="1"/>
      </contour>
    </TTGlyph>
    <TTGlyph name="N" xMin="0" yMin="768" xMax="1536" yMax="1792">
      <contour>
        <pt x="768" y="768" on="1"/>
        <pt x="768" y="1024" on="1"/>
        <pt x="1024" y="1024" on="1"/>
        <pt x="1024" y="768" on="1"/>
      </contour>
      <contour>
        <pt x="768" y="1024" on="1"/>
        <pt x="512" y="1024" on="1"/>
        <pt x="512" y="1280" on="1"/>
        <pt x="768" y="1280" on="1"/>
      </contour>
      <contour>
        <pt x="512" y="1280" on="1"/>
        <pt x="256" y="1280" on="1"/>
        <pt x="256" y="1536" on="1"/>
        <pt x="512" y="1536" on="1"/>
      </contour>
      <contour>
        <pt x="1280" y="1792" on="1"/>
        <pt x="1536" y="1792" on="1"/>
        <pt x="1536" y="1536" on="1"/>
        <pt x="1280" y="1536" on="1"/>
        <pt x="1024" y="1536" on="1"/>
        <pt x="1024" y="1792" on="1"/>
      </contour>
      <contour>
        <pt x="256" y="1536" on="1"/>
        <pt x="0" y="1536" on="1"/>
        <pt x="0" y="1792" on="1"/>
        <pt x="256" y="1792" on="1"/>
      </contour>
    </TTGlyph>
    <TTGlyph name="NextLine" xMin="0" yMin="0" xMax="1536" yMax="1792">
      <contour>
        <pt x="1280" y="768" on="1"/>
        <pt x="1280" y="1024" on="1"/>
        <pt x="1536" y="1024" on="1"/>
        <pt x="1536" y="768" on="1"/>
      </contour>
      <contour>
        <pt x="0" y="768" on="1"/>
        <pt x="0" y="1024" on="1"/>
        <pt x="256" y="1024" on="1"/>
        <pt x="256" y="768" on="1"/>
      </contour>
      <contour>
        <pt x="1024" y="1536" on="1"/>
        <pt x="1024" y="1792" on="1"/>
        <pt x="1280" y="1792" on="1"/>
        <pt x="1280" y="1536" on="1"/>
      </contour>
      <contour>
        <pt x="256" y="1536" on="1"/>
        <pt x="256" y="1792" on="1"/>
        <pt x="512" y="1792" on="1"/>
        <pt x="512" y="1536" on="1"/>
      </contour>
      <contour>
        <pt x="768" y="256" on="1"/>
        <pt x="1024" y="256" on="1"/>
        <pt x="1024" y="0" on="1"/>
        <pt x="768" y="0" on="1"/>
        <pt x="512" y="0" on="1"/>
        <pt x="512" y="256" on="1"/>
      </contour>
      <contour>
        <pt x="1280" y="1024" on="1"/>
        <pt x="1024" y="1024" on="1"/>
        <pt x="768" y="1024" on="1"/>
        <pt x="512" y="1024" on="1"/>
        <pt x="256" y="1024" on="1"/>
        <pt x="256" y="1280" on="1"/>
        <pt x="512" y="1280" on="1"/>
        <pt x="768" y="1280" on="1"/>
        <pt x="1024" y="1280" on="1"/>
        <pt x="1280" y="1280" on="1"/>
      </contour>
    </TTGlyph>
    <TTGlyph name="NoBreakHere" xMin="0" yMin="0" xMax="1280" yMax="1792">
      <contour>
        <pt x="1024" y="256" on="1"/>
        <pt x="1280" y="256" on="1"/>
        <pt x="1280" y="0" on="1"/>
        <pt x="1024" y="0" on="1"/>
        <pt x="768" y="0" on="1"/>
        <pt x="512" y="0" on="1"/>
        <pt x="512" y="256" on="1"/>
        <pt x="768" y="256" on="1"/>
      </contour>
      <contour>
        <pt x="768" y="768" on="1"/>
        <pt x="1024" y="768" on="1"/>
        <pt x="1024" y="512" on="1"/>
        <pt x="768" y="512" on="1"/>
        <pt x="512" y="512" on="1"/>
        <pt x="512" y="768" on="1"/>
      </contour>
      <contour>
        <pt x="1024" y="1280" on="1"/>
        <pt x="1280" y="1280" on="1"/>
        <pt x="1280" y="1024" on="1"/>
        <pt x="1024" y="1024" on="1"/>
        <pt x="768" y="1024" on="1"/>
        <pt x="768" y="1280" on="1"/>
      </contour>
      <contour>
        <pt x="256" y="1280" on="1"/>
        <pt x="512" y="1280" on="1"/>
        <pt x="512" y="1024" on="1"/>
        <pt x="256" y="1024" on="1"/>
        <pt x="0" y="1024" on="1"/>
        <pt x="0" y="1280" on="1"/>
      </contour>
      <contour>
        <pt x="512" y="1280" on="1"/>
        <pt x="512" y="1536" on="1"/>
        <pt x="768" y="1536" on="1"/>
        <pt x="768" y="1280" on="1"/>
      </contour>
      <contour>
        <pt x="768" y="1536" on="1"/>
        <pt x="768" y="1792" on="1"/>
        <pt x="1024" y="1792" on="1"/>
        <pt x="1024" y="1536" on="1"/>
      </contour>
    </TTGlyph>
    <TTGlyph name="Ntilde" xMin="0" yMin="512" xMax="1280" yMax="1792">
      <contour>
        <pt x="512" y="512" on="1"/>
        <pt x="512" y="768" on="1"/>
        <pt x="768" y="768" on="1"/>
        <pt x="768" y="512" on="1"/>
      </contour>
      <contour>
        <pt x="1024" y="1024" on="1"/>
        <pt x="1024" y="1280" on="1"/>
        <pt x="1280" y="1280" on="1"/>
        <pt x="1280" y="1024" on="1"/>
      </contour>
      <contour>
        <pt x="512" y="768" on="1"/>
        <pt x="256" y="768" on="1"/>
        <pt x="256" y="1024" on="1"/>
        <pt x="512" y="1024" on="1"/>
      </contour>
      <contour>
        <pt x="256" y="1024" on="1"/>
        <pt x="0" y="1024" on="1"/>
        <pt x="0" y="1280" on="1"/>
        <pt x="0" y="1536" on="1"/>
        <pt x="256" y="1536" on="1"/>
        <pt x="256" y="1280" on="1"/>
      </contour>
      <contour>
        <pt x="1024" y="1280" on="1"/>
        <pt x="768" y="1280" on="1"/>
        <pt x="768" y="1536" on="1"/>
        <pt x="1024" y="1536" on="1"/>
      </contour>
      <contour>
        <pt x="1024" y="1536" on="1"/>
        <pt x="1024" y="1792" on="1"/>
        <pt x="1280" y="1792" on="1"/>
        <pt x="1280" y="1536" on="1"/>
      </contour>
      <contour>
        <pt x="768" y="1536" on="1"/>
        <pt x="512" y="1536" on="1"/>
        <pt x="256" y="1536" on="1"/>
        <pt x="256" y="1792" on="1"/>
        <pt x="512" y="1792" on="1"/>
        <pt x="768" y="1792" on="1"/>
      </contour>
    </TTGlyph>
    <TTGlyph name="O" xMin="0" yMin="0" xMax="1536" yMax="1792">
      <contour>
        <pt x="1280" y="1280" on="1"/>
        <pt x="1280" y="1536" on="1"/>
        <pt x="1536" y="1536" on="1"/>
        <pt x="1536" y="1280" on="1"/>
      </contour>
      <contour>
        <pt x="0" y="1280" on="1"/>
        <pt x="0" y="1536" on="1"/>
        <pt x="256" y="1536" on="1"/>
        <pt x="256" y="1280" on="1"/>
      </contour>
      <contour>
        <pt x="768" y="256" on="1"/>
        <pt x="1024" y="256" on="1"/>
        <pt x="1024" y="0" on="1"/>
        <pt x="768" y="0" on="1"/>
        <pt x="512" y="0" on="1"/>
        <pt x="512" y="256" on="1"/>
      </contour>
      <contour>
        <pt x="1280" y="1536" on="1"/>
        <pt x="1024" y="1536" on="1"/>
        <pt x="768" y="1536" on="1"/>
        <pt x="512" y="1536" on="1"/>
        <pt x="256" y="1536" on="1"/>
        <pt x="256" y="1792" on="1"/>
        <pt x="512" y="1792" on="1"/>
        <pt x="768" y="1792" on="1"/>
        <pt x="1024" y="1792" on="1"/>
        <pt x="1280" y="1792" on="1"/>
      </contour>
    </TTGlyph>
    <TTGlyph name="Oacute" xMin="0" yMin="0" xMax="1536" yMax="1792">
      <contour>
        <pt x="1280" y="768" on="1"/>
        <pt x="1280" y="1024" on="1"/>
        <pt x="1536" y="1024" on="1"/>
        <pt x="1536" y="768" on="1"/>
      </contour>
      <contour>
        <pt x="0" y="768" on="1"/>
        <pt x="0" y="1024" on="1"/>
        <pt x="256" y="1024" on="1"/>
        <pt x="256" y="768" on="1"/>
      </contour>
      <contour>
        <pt x="768" y="256" on="1"/>
        <pt x="1024" y="256" on="1"/>
        <pt x="1024" y="0" on="1"/>
        <pt x="768" y="0" on="1"/>
        <pt x="512" y="0" on="1"/>
        <pt x="512" y="256" on="1"/>
      </contour>
      <contour>
        <pt x="1280" y="1024" on="1"/>
        <pt x="1024" y="1024" on="1"/>
        <pt x="768" y="1024" on="1"/>
        <pt x="512" y="1024" on="1"/>
        <pt x="256" y="1024" on="1"/>
        <pt x="256" y="1280" on="1"/>
        <pt x="512" y="1280" on="1"/>
        <pt x="512" y="1536" on="1"/>
        <pt x="768" y="1536" on="1"/>
        <pt x="768" y="1280" on="1"/>
        <pt x="1024" y="1280" on="1"/>
        <pt x="1280" y="1280" on="1"/>
      </contour>
      <contour>
        <pt x="768" y="1536" on="1"/>
        <pt x="768" y="1792" on="1"/>
        <pt x="1024" y="1792" on="1"/>
        <pt x="1024" y="1536" on="1"/>
      </contour>
    </TTGlyph>
    <TTGlyph name="Ocircumflex" xMin="0" yMin="0" xMax="1536" yMax="1792">
      <contour>
        <pt x="1280" y="1024" on="1"/>
        <pt x="1280" y="1280" on="1"/>
        <pt x="1536" y="1280" on="1"/>
        <pt x="1536" y="1024" on="1"/>
      </contour>
      <contour>
        <pt x="0" y="1024" on="1"/>
        <pt x="0" y="1280" on="1"/>
        <pt x="256" y="1280" on="1"/>
        <pt x="256" y="1024" on="1"/>
      </contour>
      <contour>
        <pt x="768" y="256" on="1"/>
        <pt x="1024" y="256" on="1"/>
        <pt x="1024" y="0" on="1"/>
        <pt x="768" y="0" on="1"/>
        <pt x="512" y="0" on="1"/>
        <pt x="512" y="256" on="1"/>
      </contour>
      <contour>
        <pt x="768" y="1280" on="1"/>
        <pt x="1024" y="1280" on="1"/>
        <pt x="1024" y="1024" on="1"/>
        <pt x="768" y="1024" on="1"/>
        <pt x="512" y="1024" on="1"/>
        <pt x="512" y="1280" on="1"/>
      </contour>
      <contour>
        <pt x="1024" y="1280" on="1"/>
        <pt x="1024" y="1536" on="1"/>
        <pt x="1280" y="1536" on="1"/>
        <pt x="1280" y="1280" on="1"/>
      </contour>
      <contour>
        <pt x="256" y="1280" on="1"/>
        <pt x="256" y="1536" on="1"/>
        <pt x="512" y="1536" on="1"/>
        <pt x="512" y="1280" on="1"/>
      </contour>
      <contour>
        <pt x="1024" y="1536" on="1"/>
        <pt x="768" y="1536" on="1"/>
        <pt x="512" y="1536" on="1"/>
        <pt x="512" y="1792" on="1"/>
        <pt x="768" y="1792" on="1"/>
        <pt x="1024" y="1792" on="1"/>
      </contour>
    </TTGlyph>
    <TTGlyph name="Odieresis" xMin="0" yMin="0" xMax="1536" yMax="1792">
      <contour>
        <pt x="1280" y="768" on="1"/>
        <pt x="1280" y="1024" on="1"/>
        <pt x="1536" y="1024" on="1"/>
        <pt x="1536" y="768" on="1"/>
      </contour>
      <contour>
        <pt x="0" y="768" on="1"/>
        <pt x="0" y="1024" on="1"/>
        <pt x="256" y="1024" on="1"/>
        <pt x="256" y="768" on="1"/>
      </contour>
      <contour>
        <pt x="1024" y="1536" on="1"/>
        <pt x="1024" y="1792" on="1"/>
        <pt x="1280" y="1792" on="1"/>
        <pt x="1280" y="1536" on="1"/>
      </contour>
      <contour>
        <pt x="256" y="1536" on="1"/>
        <pt x="256" y="1792" on="1"/>
        <pt x="512" y="1792" on="1"/>
        <pt x="512" y="1536" on="1"/>
      </contour>
      <contour>
        <pt x="768" y="256" on="1"/>
        <pt x="1024" y="256" on="1"/>
        <pt x="1024" y="0" on="1"/>
        <pt x="768" y="0" on="1"/>
        <pt x="512" y="0" on="1"/>
        <pt x="512" y="256" on="1"/>
      </contour>
      <contour>
        <pt x="1280" y="1024" on="1"/>
        <pt x="1024" y="1024" on="1"/>
        <pt x="768" y="1024" on="1"/>
        <pt x="512" y="1024" on="1"/>
        <pt x="256" y="1024" on="1"/>
        <pt x="256" y="1280" on="1"/>
        <pt x="512" y="1280" on="1"/>
        <pt x="768" y="1280" on="1"/>
        <pt x="1024" y="1280" on="1"/>
        <pt x="1280" y="1280" on="1"/>
      </contour>
    </TTGlyph>
    <TTGlyph name="Ograve" xMin="0" yMin="0" xMax="1536" yMax="1792">
      <contour>
        <pt x="1280" y="768" on="1"/>
        <pt x="1280" y="1024" on="1"/>
        <pt x="1536" y="1024" on="1"/>
        <pt x="1536" y="768" on="1"/>
      </contour>
      <contour>
        <pt x="0" y="768" on="1"/>
        <pt x="0" y="1024" on="1"/>
        <pt x="256" y="1024" on="1"/>
        <pt x="256" y="768" on="1"/>
      </contour>
      <contour>
        <pt x="768" y="256" on="1"/>
        <pt x="1024" y="256" on="1"/>
        <pt x="1024" y="0" on="1"/>
        <pt x="768" y="0" on="1"/>
        <pt x="512" y="0" on="1"/>
        <pt x="512" y="256" on="1"/>
      </contour>
      <contour>
        <pt x="1280" y="1024" on="1"/>
        <pt x="1024" y="1024" on="1"/>
        <pt x="768" y="1024" on="1"/>
        <pt x="512" y="1024" on="1"/>
        <pt x="256" y="1024" on="1"/>
        <pt x="256" y="1280" on="1"/>
        <pt x="512" y="1280" on="1"/>
        <pt x="768" y="1280" on="1"/>
        <pt x="768" y="1536" on="1"/>
        <pt x="1024" y="1536" on="1"/>
        <pt x="1024" y="1280" on="1"/>
        <pt x="1280" y="1280" on="1"/>
      </contour>
      <contour>
        <pt x="768" y="1536" on="1"/>
        <pt x="512" y="1536" on="1"/>
        <pt x="512" y="1792" on="1"/>
        <pt x="768" y="1792" on="1"/>
      </contour>
    </TTGlyph>
    <TTGlyph name="OperatingSystemComma" xMin="0" yMin="0" xMax="1280" yMax="1792">
      <contour>
        <pt x="512" y="0" on="1"/>
        <pt x="512" y="256" on="1"/>
        <pt x="768" y="256" on="1"/>
        <pt x="768" y="0" on="1"/>
      </contour>
      <contour>
        <pt x="1024" y="1280" on="1"/>
        <pt x="1280" y="1280" on="1"/>
        <pt x="1280" y="1024" on="1"/>
        <pt x="1024" y="1024" on="1"/>
        <pt x="768" y="1024" on="1"/>
        <pt x="768" y="1280" on="1"/>
      </contour>
      <contour>
        <pt x="256" y="1280" on="1"/>
        <pt x="512" y="1280" on="1"/>
        <pt x="512" y="1024" on="1"/>
        <pt x="256" y="1024" on="1"/>
        <pt x="0" y="1024" on="1"/>
        <pt x="0" y="1280" on="1"/>
      </contour>
      <contour>
        <pt x="512" y="1280" on="1"/>
        <pt x="512" y="1536" on="1"/>
        <pt x="768" y="1536" on="1"/>
        <pt x="768" y="1280" on="1"/>
      </contour>
      <contour>
        <pt x="512" y="1536" on="1"/>
        <pt x="256" y="1536" on="1"/>
        <pt x="256" y="1792" on="1"/>
        <pt x="512" y="1792" on="1"/>
      </contour>
    </TTGlyph>
    <TTGlyph name="Oslash" xMin="0" yMin="0" xMax="1536" yMax="1792">
      <contour>
        <pt x="512" y="768" on="1"/>
        <pt x="512" y="1024" on="1"/>
        <pt x="768" y="1024" on="1"/>
        <pt x="768" y="768" on="1"/>
      </contour>
      <contour>
        <pt x="0" y="1280" on="1"/>
        <pt x="0" y="1536" on="1"/>
        <pt x="256" y="1536" on="1"/>
        <pt x="256" y="1280" on="1"/>
      </contour>
      <contour>
        <pt x="768" y="256" on="1"/>
        <pt x="1024" y="256" on="1"/>
        <pt x="1024" y="0" on="1"/>
        <pt x="768" y="0" on="1"/>
        <pt x="512" y="0" on="1"/>
        <pt x="512" y="256" on="1"/>
      </contour>
      <contour>
        <pt x="768" y="1024" on="1"/>
        <pt x="768" y="1280" on="1"/>
        <pt x="1024" y="1280" on="1"/>
        <pt x="1024" y="1024" on="1"/>
      </contour>
      <contour>
        <pt x="1280" y="1792" on="1"/>
        <pt x="1536" y="1792" on="1"/>
        <pt x="1536" y="1536" on="1"/>
        <pt x="1280" y="1536" on="1"/>
        <pt x="1024" y="1536" on="1"/>
        <pt x="768" y="1536" on="1"/>
        <pt x="512" y="1536" on="1"/>
        <pt x="256" y="1536" on="1"/>
        <pt x="256" y="1792" on="1"/>
        <pt x="512" y="1792" on="1"/>
        <pt x="768" y="1792" on="1"/>
        <pt x="1024" y="1792" on="1"/>
      </contour>
    </TTGlyph>
    <TTGlyph name="Otilde" xMin="0" yMin="0" xMax="1536" yMax="1792">
      <contour>
        <pt x="1280" y="768" on="1"/>
        <pt x="1280" y="1024" on="1"/>
        <pt x="1536" y="1024" on="1"/>
        <pt x="1536" y="768" on="1"/>
      </contour>
      <contour>
        <pt x="0" y="768" on="1"/>
        <pt x="0" y="1024" on="1"/>
        <pt x="256" y="1024" on="1"/>
        <pt x="256" y="768" on="1"/>
      </contour>
      <contour>
        <pt x="512" y="1024" on="1"/>
        <pt x="512" y="1280" on="1"/>
        <pt x="768" y="1280" on="1"/>
        <pt x="768" y="1024" on="1"/>
      </contour>
      <contour>
        <pt x="1024" y="1280" on="1"/>
        <pt x="1024" y="1536" on="1"/>
        <pt x="1280" y="1536" on="1"/>
        <pt x="1280" y="1280" on="1"/>
      </contour>
      <contour>
        <pt x="768" y="256" on="1"/>
        <pt x="1024" y="256" on="1"/>
        <pt x="1024" y="0" on="1"/>
        <pt x="768" y="0" on="1"/>
        <pt x="512" y="0" on="1"/>
        <pt x="512" y="256" on="1"/>
      </contour>
      <contour>
        <pt x="512" y="1280" on="1"/>
        <pt x="256" y="1280" on="1"/>
        <pt x="256" y="1536" on="1"/>
        <pt x="512" y="1536" on="1"/>
      </contour>
      <contour>
        <pt x="1280" y="1536" on="1"/>
        <pt x="1280" y="1792" on="1"/>
        <pt x="1536" y="1792" on="1"/>
        <pt x="1536" y="1536" on="1"/>
      </contour>
      <contour>
        <pt x="1024" y="1536" on="1"/>
        <pt x="768" y="1536" on="1"/>
        <pt x="512" y="1536" on="1"/>
        <pt x="512" y="1792" on="1"/>
        <pt x="768" y="1792" on="1"/>
        <pt x="1024" y="1792" on="1"/>
      </contour>
    </TTGlyph>
    <TTGlyph name="P" xMin="0" yMin="512" xMax="1280" yMax="1792">
      <contour>
        <pt x="512" y="512" on="1"/>
        <pt x="512" y="768" on="1"/>
        <pt x="768" y="768" on="1"/>
        <pt x="768" y="512" on="1"/>
      </contour>
      <contour>
        <pt x="1024" y="1280" on="1"/>
        <pt x="1024" y="1536" on="1"/>
        <pt x="1280" y="1536" on="1"/>
        <pt x="1280" y="1280" on="1"/>
      </contour>
      <contour>
        <pt x="1024" y="1536" on="1"/>
        <pt x="768" y="1536" on="1"/>
        <pt x="512" y="1536" on="1"/>
        <pt x="256" y="1536" on="1"/>
        <pt x="0" y="1536" on="1"/>
        <pt x="0" y="1792" on="1"/>
        <pt x="256" y="1792" on="1"/>
        <pt x="512" y="1792" on="1"/>
        <pt x="768" y="1792" on="1"/>
        <pt x="1024" y="1792" on="1"/>
      </contour>
    </TTGlyph>
    <TTGlyph name="PaddingCharacter" xMin="0" yMin="512" xMax="1280" yMax="1792">
      <contour>
        <pt x="512" y="512" on="1"/>
        <pt x="512" y="768" on="1"/>
        <pt x="768" y="768" on="1"/>
        <pt x="768" y="512" on="1"/>
      </contour>
      <contour>
        <pt x="1024" y="768" on="1"/>
        <pt x="1024" y="1024" on="1"/>
        <pt x="1280" y="1024" on="1"/>
        <pt x="1280" y="768" on="1"/>
      </contour>
      <contour>
        <pt x="0" y="768" on="1"/>
        <pt x="0" y="1024" on="1"/>
        <pt x="256" y="1024" on="1"/>
        <pt x="256" y="768" on="1"/>
      </contour>
      <contour>
        <pt x="768" y="1536" on="1"/>
        <pt x="768" y="1792" on="1"/>
        <pt x="1024" y="1792" on="1"/>
        <pt x="1024" y="1536" on="1"/>
      </contour>
      <contour>
        <pt x="256" y="1536" on="1"/>
        <pt x="256" y="1792" on="1"/>
        <pt x="512" y="1792" on="1"/>
        <pt x="512" y="1536" on="1"/>
      </contour>
      <contour>
        <pt x="1024" y="1024" on="1"/>
        <pt x="768" y="1024" on="1"/>
        <pt x="512" y="1024" on="1"/>
        <pt x="256" y="1024" on="1"/>
        <pt x="256" y="1280" on="1"/>
        <pt x="512" y="1280" on="1"/>
        <pt x="768" y="1280" on="1"/>
        <pt x="1024" y="1280" on="1"/>
      </contour>
    </TTGlyph>
    <TTGlyph name="PartialLineBackward(" xMin="0" yMin="0" xMax="1280" yMax="1792">
      <contour>
        <pt x="512" y="0" on="1"/>
        <pt x="512" y="256" on="1"/>
        <pt x="768" y="256" on="1"/>
        <pt x="768" y="0" on="1"/>
      </contour>
      <contour>
        <pt x="0" y="256" on="1"/>
        <pt x="0" y="512" on="1"/>
        <pt x="256" y="512" on="1"/>
        <pt x="256" y="256" on="1"/>
      </contour>
      <contour>
        <pt x="1024" y="1024" on="1"/>
        <pt x="1024" y="1280" on="1"/>
        <pt x="1280" y="1280" on="1"/>
        <pt x="1280" y="1024" on="1"/>
      </contour>
      <contour>
        <pt x="512" y="1024" on="1"/>
        <pt x="512" y="1280" on="1"/>
        <pt x="768" y="1280" on="1"/>
        <pt x="768" y="1024" on="1"/>
      </contour>
      <contour>
        <pt x="512" y="768" on="1"/>
        <pt x="768" y="768" on="1"/>
        <pt x="768" y="512" on="1"/>
        <pt x="512" y="512" on="1"/>
        <pt x="256" y="512" on="1"/>
        <pt x="256" y="768" on="1"/>
      </contour>
      <contour>
        <pt x="768" y="1280" on="1"/>
        <pt x="768" y="1536" on="1"/>
        <pt x="1024" y="1536" on="1"/>
        <pt x="1024" y="1280" on="1"/>
      </contour>
      <contour>
        <pt x="512" y="1280" on="1"/>
        <pt x="256" y="1280" on="1"/>
        <pt x="256" y="1536" on="1"/>
        <pt x="512" y="1536" on="1"/>
      </contour>
      <contour>
        <pt x="512" y="1536" on="1"/>
        <pt x="512" y="1792" on="1"/>
        <pt x="768" y="1792" on="1"/>
        <pt x="768" y="1536" on="1"/>
      </contour>
    </TTGlyph>
    <TTGlyph name="PartialLineForward(D" xMin="0" yMin="0" xMax="1280" yMax="1792">
      <contour>
        <pt x="512" y="0" on="1"/>
        <pt x="512" y="256" on="1"/>
        <pt x="768" y="256" on="1"/>
        <pt x="768" y="0" on="1"/>
      </contour>
      <contour>
        <pt x="0" y="256" on="1"/>
        <pt x="0" y="512" on="1"/>
        <pt x="256" y="512" on="1"/>
        <pt x="256" y="256" on="1"/>
      </contour>
      <contour>
        <pt x="1024" y="768" on="1"/>
        <pt x="1024" y="1024" on="1"/>
        <pt x="1280" y="1024" on="1"/>
        <pt x="1280" y="768" on="1"/>
      </contour>
      <contour>
        <pt x="256" y="1024" on="1"/>
        <pt x="256" y="1280" on="1"/>
        <pt x="512" y="1280" on="1"/>
        <pt x="512" y="1024" on="1"/>
      </contour>
      <contour>
        <pt x="768" y="1280" on="1"/>
        <pt x="768" y="1536" on="1"/>
        <pt x="1024" y="1536" on="1"/>
        <pt x="1024" y="1280" on="1"/>
      </contour>
      <contour>
        <pt x="512" y="768" on="1"/>
        <pt x="768" y="768" on="1"/>
        <pt x="768" y="512" on="1"/>
        <pt x="512" y="512" on="1"/>
        <pt x="256" y="512" on="1"/>
        <pt x="256" y="768" on="1"/>
      </contour>
      <contour>
        <pt x="256" y="1280" on="1"/>
        <pt x="0" y="1280" on="1"/>
        <pt x="0" y="1536" on="1"/>
        <pt x="256" y="1536" on="1"/>
      </contour>
      <contour>
        <pt x="1024" y="1536" on="1"/>
        <pt x="1024" y="1792" on="1"/>
        <pt x="1280" y="1792" on="1"/>
        <pt x="1280" y="1536" on="1"/>
      </contour>
      <contour>
        <pt x="768" y="1536" on="1"/>
        <pt x="512" y="1536" on="1"/>
        <pt x="256" y="1536" on="1"/>
        <pt x="256" y="1792" on="1"/>
        <pt x="512" y="1792" on="1"/>
        <pt x="768" y="1792" on="1"/>
      </contour>
    </TTGlyph>
    <TTGlyph name="PrivateMessage" xMin="0" yMin="0" xMax="1280" yMax="1792">
      <contour>
        <pt x="512" y="0" on="1"/>
        <pt x="512" y="256" on="1"/>
        <pt x="768" y="256" on="1"/>
        <pt x="768" y="0" on="1"/>
      </contour>
      <contour>
        <pt x="1024" y="1024" on="1"/>
        <pt x="1024" y="1280" on="1"/>
        <pt x="1280" y="1280" on="1"/>
        <pt x="1280" y="1024" on="1"/>
      </contour>
      <contour>
        <pt x="0" y="1024" on="1"/>
        <pt x="0" y="1280" on="1"/>
        <pt x="256" y="1280" on="1"/>
        <pt x="256" y="1024" on="1"/>
      </contour>
      <contour>
        <pt x="1024" y="1280" on="1"/>
        <pt x="768" y="1280" on="1"/>
        <pt x="768" y="1536" on="1"/>
        <pt x="1024" y="1536" on="1"/>
      </contour>
      <contour>
        <pt x="256" y="1280" on="1"/>
        <pt x="256" y="1536" on="1"/>
        <pt x="512" y="1536" on="1"/>
        <pt x="512" y="1280" on="1"/>
      </contour>
      <contour>
        <pt x="512" y="1536" on="1"/>
        <pt x="512" y="1792" on="1"/>
        <pt x="768" y="1792" on="1"/>
        <pt x="768" y="1536" on="1"/>
      </contour>
    </TTGlyph>
    <TTGlyph name="PrivateUse1" xMin="0" yMin="0" xMax="1280" yMax="1792">
      <contour>
        <pt x="512" y="512" on="1"/>
        <pt x="512" y="768" on="1"/>
        <pt x="768" y="768" on="1"/>
        <pt x="768" y="512" on="1"/>
      </contour>
      <contour>
        <pt x="1024" y="768" on="1"/>
        <pt x="1024" y="1024" on="1"/>
        <pt x="1280" y="1024" on="1"/>
        <pt x="1280" y="768" on="1"/>
      </contour>
      <contour>
        <pt x="0" y="768" on="1"/>
        <pt x="0" y="1024" on="1"/>
        <pt x="256" y="1024" on="1"/>
        <pt x="256" y="768" on="1"/>
      </contour>
      <contour>
        <pt x="768" y="1536" on="1"/>
        <pt x="768" y="1792" on="1"/>
        <pt x="1024" y="1792" on="1"/>
        <pt x="1024" y="1536" on="1"/>
      </contour>
      <contour>
        <pt x="256" y="1536" on="1"/>
        <pt x="256" y="1792" on="1"/>
        <pt x="512" y="1792" on="1"/>
        <pt x="512" y="1536" on="1"/>
      </contour>
      <contour>
        <pt x="1024" y="256" on="1"/>
        <pt x="1280" y="256" on="1"/>
        <pt x="1280" y="0" on="1"/>
        <pt x="1024" y="0" on="1"/>
        <pt x="768" y="0" on="1"/>
        <pt x="512" y="0" on="1"/>
        <pt x="512" y="256" on="1"/>
        <pt x="768" y="256" on="1"/>
      </contour>
      <contour>
        <pt x="1024" y="1024" on="1"/>
        <pt x="768" y="1024" on="1"/>
        <pt x="512" y="1024" on="1"/>
        <pt x="256" y="1024" on="1"/>
        <pt x="256" y="1280" on="1"/>
        <pt x="512" y="1280" on="1"/>
        <pt x="768" y="1280" on="1"/>
        <pt x="1024" y="1280" on="1"/>
      </contour>
    </TTGlyph>
    <TTGlyph name="PrivateUse2" xMin="0" yMin="1024" xMax="512" yMax="1792">
      <contour>
        <pt x="256" y="1024" on="1"/>
        <pt x="256" y="1280" on="1"/>
        <pt x="512" y="1280" on="1"/>
        <pt x="512" y="1024" on="1"/>
      </contour>
      <contour>
        <pt x="256" y="1280" on="1"/>
        <pt x="0" y="1280" on="1"/>
        <pt x="0" y="1536" on="1"/>
        <pt x="256" y="1536" on="1"/>
      </contour>
      <contour>
        <pt x="256" y="1536" on="1"/>
        <pt x="256" y="1792" on="1"/>
        <pt x="512" y="1792" on="1"/>
        <pt x="512" y="1536" on="1"/>
      </contour>
    </TTGlyph>
    <TTGlyph name="Q" xMin="0" yMin="-256" xMax="1536" yMax="1792">
      <contour>
        <pt x="1280" y="-256" on="1"/>
        <pt x="1280" y="0" on="1"/>
        <pt x="1536" y="0" on="1"/>
        <pt x="1536" y="-256" on="1"/>
      </contour>
      <contour>
        <pt x="512" y="0" on="1"/>
        <pt x="512" y="256" on="1"/>
        <pt x="768" y="256" on="1"/>
        <pt x="768" y="0" on="1"/>
      </contour>
      <contour>
        <pt x="1280" y="1280" on="1"/>
        <pt x="1280" y="1536" on="1"/>
        <pt x="1536" y="1536" on="1"/>
        <pt x="1536" y="1280" on="1"/>
      </contour>
      <contour>
        <pt x="0" y="1280" on="1"/>
        <pt x="0" y="1536" on="1"/>
        <pt x="256" y="1536" on="1"/>
        <pt x="256" y="1280" on="1"/>
      </contour>
      <contour>
        <pt x="768" y="256" on="1"/>
        <pt x="768" y="512" on="1"/>
        <pt x="1024" y="512" on="1"/>
        <pt x="1024" y="256" on="1"/>
      </contour>
      <contour>
        <pt x="1280" y="1536" on="1"/>
        <pt x="1024" y="1536" on="1"/>
        <pt x="768" y="1536" on="1"/>
        <pt x="512" y="1536" on="1"/>
        <pt x="256" y="1536" on="1"/>
        <pt x="256" y="1792" on="1"/>
        <pt x="512" y="1792" on="1"/>
        <pt x="768" y="1792" on="1"/>
        <pt x="1024" y="1792" on="1"/>
        <pt x="1280" y="1792" on="1"/>
      </contour>
    </TTGlyph>
    <TTGlyph name="R" xMin="0" yMin="0" xMax="1280" yMax="1792">
      <contour>
        <pt x="1024" y="0" on="1"/>
        <pt x="1024" y="256" on="1"/>
        <pt x="1280" y="256" on="1"/>
        <pt x="1280" y="0" on="1"/>
      </contour>
      <contour>
        <pt x="512" y="512" on="1"/>
        <pt x="512" y="768" on="1"/>
        <pt x="768" y="768" on="1"/>
        <pt x="768" y="512" on="1"/>
      </contour>
      <contour>
        <pt x="1024" y="1280" on="1"/>
        <pt x="1024" y="1536" on="1"/>
        <pt x="1280" y="1536" on="1"/>
        <pt x="1280" y="1280" on="1"/>
      </contour>
      <contour>
        <pt x="1024" y="1536" on="1"/>
        <pt x="768" y="1536" on="1"/>
        <pt x="512" y="1536" on="1"/>
        <pt x="256" y="1536" on="1"/>
        <pt x="0" y="1536" on="1"/>
        <pt x="0" y="1792" on="1"/>
        <pt x="256" y="1792" on="1"/>
        <pt x="512" y="1792" on="1"/>
        <pt x="768" y="1792" on="1"/>
        <pt x="1024" y="1792" on="1"/>
      </contour>
    </TTGlyph>
    <TTGlyph name="ReverseLineFeed(Inde" xMin="0" yMin="0" xMax="1024" yMax="1280">
      <contour>
        <pt x="0" y="768" on="1"/>
        <pt x="0" y="1024" on="1"/>
        <pt x="256" y="1024" on="1"/>
        <pt x="256" y="768" on="1"/>
      </contour>
      <contour>
        <pt x="768" y="256" on="1"/>
        <pt x="1024" y="256" on="1"/>
        <pt x="1024" y="0" on="1"/>
        <pt x="768" y="0" on="1"/>
        <pt x="512" y="0" on="1"/>
        <pt x="512" y="256" on="1"/>
      </contour>
      <contour>
        <pt x="768" y="1280" on="1"/>
        <pt x="1024" y="1280" on="1"/>
        <pt x="1024" y="1024" on="1"/>
        <pt x="768" y="1024" on="1"/>
        <pt x="512" y="1024" on="1"/>
        <pt x="256" y="1024" on="1"/>
        <pt x="256" y="1280" on="1"/>
        <pt x="512" y="1280" on="1"/>
      </contour>
    </TTGlyph>
    <TTGlyph name="S" xMin="0" yMin="0" xMax="1024" yMax="1792">
      <contour>
        <pt x="512" y="768" on="1"/>
        <pt x="512" y="1024" on="1"/>
        <pt x="768" y="1024" on="1"/>
        <pt x="768" y="768" on="1"/>
      </contour>
      <contour>
        <pt x="0" y="1280" on="1"/>
        <pt x="0" y="1536" on="1"/>
        <pt x="256" y="1536" on="1"/>
        <pt x="256" y="1280" on="1"/>
      </contour>
      <contour>
        <pt x="256" y="256" on="1"/>
        <pt x="512" y="256" on="1"/>
        <pt x="512" y="0" on="1"/>
        <pt x="256" y="0" on="1"/>
        <pt x="0" y="0" on="1"/>
        <pt x="0" y="256" on="1"/>
      </contour>
      <contour>
        <pt x="768" y="1792" on="1"/>
        <pt x="1024" y="1792" on="1"/>
        <pt x="1024" y="1536" on="1"/>
        <pt x="768" y="1536" on="1"/>
        <pt x="512" y="1536" on="1"/>
        <pt x="256" y="1536" on="1"/>
        <pt x="256" y="1792" on="1"/>
        <pt x="512" y="1792" on="1"/>
      </contour>
    </TTGlyph>
    <TTGlyph name="SetTransmitState" xMin="0" yMin="1024" xMax="512" yMax="1792">
      <contour>
        <pt x="0" y="1024" on="1"/>
        <pt x="0" y="1280" on="1"/>
        <pt x="256" y="1280" on="1"/>
        <pt x="256" y="1024" on="1"/>
      </contour>
      <contour>
        <pt x="256" y="1280" on="1"/>
        <pt x="256" y="1536" on="1"/>
        <pt x="512" y="1536" on="1"/>
        <pt x="512" y="1280" on="1"/>
      </contour>
      <contour>
        <pt x="256" y="1536" on="1"/>
        <pt x="0" y="1536" on="1"/>
        <pt x="0" y="1792" on="1"/>
        <pt x="256" y="1792" on="1"/>
      </contour>
    </TTGlyph>
    <TTGlyph name="Single-ShiftThree" xMin="0" yMin="0" xMax="1280" yMax="1792">
      <contour>
        <pt x="512" y="512" on="1"/>
        <pt x="512" y="768" on="1"/>
        <pt x="768" y="768" on="1"/>
        <pt x="768" y="512" on="1"/>
      </contour>
      <contour>
        <pt x="1024" y="768" on="1"/>
        <pt x="1024" y="1024" on="1"/>
        <pt x="1280" y="1024" on="1"/>
        <pt x="1280" y="768" on="1"/>
      </contour>
      <contour>
        <pt x="0" y="768" on="1"/>
        <pt x="0" y="1024" on="1"/>
        <pt x="256" y="1024" on="1"/>
        <pt x="256" y="768" on="1"/>
      </contour>
      <contour>
        <pt x="1024" y="256" on="1"/>
        <pt x="1280" y="256" on="1"/>
        <pt x="1280" y="0" on="1"/>
        <pt x="1024" y="0" on="1"/>
        <pt x="768" y="0" on="1"/>
        <pt x="512" y="0" on="1"/>
        <pt x="512" y="256" on="1"/>
        <pt x="768" y="256" on="1"/>
      </contour>
      <contour>
        <pt x="1024" y="1024" on="1"/>
        <pt x="768" y="1024" on="1"/>
        <pt x="768" y="1280" on="1"/>
        <pt x="1024" y="1280" on="1"/>
      </contour>
      <contour>
        <pt x="256" y="1024" on="1"/>
        <pt x="256" y="1280" on="1"/>
        <pt x="512" y="1280" on="1"/>
        <pt x="512" y="1024" on="1"/>
      </contour>
      <contour>
        <pt x="512" y="1280" on="1"/>
        <pt x="512" y="1536" on="1"/>
        <pt x="768" y="1536" on="1"/>
        <pt x="768" y="1280" on="1"/>
      </contour>
      <contour>
        <pt x="512" y="1536" on="1"/>
        <pt x="256" y="1536" on="1"/>
        <pt x="256" y="1792" on="1"/>
        <pt x="512" y="1792" on="1"/>
      </contour>
    </TTGlyph>
    <TTGlyph name="Single-ShiftTwo" xMin="0" yMin="0" xMax="1280" yMax="1792">
      <contour>
        <pt x="512" y="512" on="1"/>
        <pt x="512" y="768" on="1"/>
        <pt x="768" y="768" on="1"/>
        <pt x="768" y="512" on="1"/>
      </contour>
      <contour>
        <pt x="1024" y="768" on="1"/>
        <pt x="1024" y="1024" on="1"/>
        <pt x="1280" y="1024" on="1"/>
        <pt x="1280" y="768" on="1"/>
      </contour>
      <contour>
        <pt x="0" y="768" on="1"/>
        <pt x="0" y="1024" on="1"/>
        <pt x="256" y="1024" on="1"/>
        <pt x="256" y="768" on="1"/>
      </contour>
      <contour>
        <pt x="1024" y="256" on="1"/>
        <pt x="1280" y="256" on="1"/>
        <pt x="1280" y="0" on="1"/>
        <pt x="1024" y="0" on="1"/>
        <pt x="768" y="0" on="1"/>
        <pt x="512" y="0" on="1"/>
        <pt x="512" y="256" on="1"/>
        <pt x="768" y="256" on="1"/>
      </contour>
      <contour>
        <pt x="1024" y="1024" on="1"/>
        <pt x="768" y="1024" on="1"/>
        <pt x="768" y="1280" on="1"/>
        <pt x="1024" y="1280" on="1"/>
      </contour>
      <contour>
        <pt x="256" y="1024" on="1"/>
        <pt x="256" y="1280" on="1"/>
        <pt x="512" y="1280" on="1"/>
        <pt x="512" y="1024" on="1"/>
      </contour>
      <contour>
        <pt x="512" y="1280" on="1"/>
        <pt x="512" y="1536" on="1"/>
        <pt x="768" y="1536" on="1"/>
        <pt x="768" y="1280" on="1"/>
      </contour>
      <contour>
        <pt x="768" y="1536" on="1"/>
        <pt x="768" y="1792" on="1"/>
        <pt x="1024" y="1792" on="1"/>
        <pt x="1024" y="1536" on="1"/>
      </contour>
    </TTGlyph>
    <TTGlyph name="SingleCharacterIntro" xMin="0" yMin="0" xMax="1280" yMax="1792">
      <contour>
        <pt x="512" y="0" on="1"/>
        <pt x="512" y="256" on="1"/>
        <pt x="768" y="256" on="1"/>
        <pt x="768" y="0" on="1"/>
      </contour>
      <contour>
        <pt x="1024" y="768" on="1"/>
        <pt x="1024" y="1024" on="1"/>
        <pt x="1280" y="1024" on="1"/>
        <pt x="1280" y="768" on="1"/>
      </contour>
      <contour>
        <pt x="0" y="768" on="1"/>
        <pt x="0" y="1024" on="1"/>
        <pt x="256" y="1024" on="1"/>
        <pt x="256" y="768" on="1"/>
      </contour>
      <contour>
        <pt x="768" y="1536" on="1"/>
        <pt x="768" y="1792" on="1"/>
        <pt x="1024" y="1792" on="1"/>
        <pt x="1024" y="1536" on="1"/>
      </contour>
      <contour>
        <pt x="256" y="1536" on="1"/>
        <pt x="256" y="1792" on="1"/>
        <pt x="512" y="1792" on="1"/>
        <pt x="512" y="1536" on="1"/>
      </contour>
      <contour>
        <pt x="1024" y="1024" on="1"/>
        <pt x="768" y="1024" on="1"/>
        <pt x="512" y="1024" on="1"/>
        <pt x="256" y="1024" on="1"/>
        <pt x="256" y="1280" on="1"/>
        <pt x="512" y="1280" on="1"/>
        <pt x="768" y="1280" on="1"/>
        <pt x="1024" y="1280" on="1"/>
      </contour>
    </TTGlyph>
    <TTGlyph name="SingleGraphicCharact" xMin="0" yMin="0" xMax="1280" yMax="1792">
      <contour>
        <pt x="512" y="0" on="1"/>
        <pt x="512" y="256" on="1"/>
        <pt x="768" y="256" on="1"/>
        <pt x="768" y="0" on="1"/>
      </contour>
      <contour>
        <pt x="1024" y="1024" on="1"/>
        <pt x="1024" y="1280" on="1"/>
        <pt x="1280" y="1280" on="1"/>
        <pt x="1280" y="1024" on="1"/>
      </contour>
      <contour>
        <pt x="512" y="1024" on="1"/>
        <pt x="512" y="1280" on="1"/>
        <pt x="768" y="1280" on="1"/>
        <pt x="768" y="1024" on="1"/>
      </contour>
      <contour>
        <pt x="0" y="1024" on="1"/>
        <pt x="0" y="1280" on="1"/>
        <pt x="256" y="1280" on="1"/>
        <pt x="256" y="1024" on="1"/>
      </contour>
      <contour>
        <pt x="768" y="1280" on="1"/>
        <pt x="768" y="1536" on="1"/>
        <pt x="1024" y="1536" on="1"/>
        <pt x="1024" y="1280" on="1"/>
      </contour>
      <contour>
        <pt x="256" y="1280" on="1"/>
        <pt x="256" y="1536" on="1"/>
        <pt x="512" y="1536" on="1"/>
        <pt x="512" y="1280" on="1"/>
      </contour>
      <contour>
        <pt x="512" y="1536" on="1"/>
        <pt x="512" y="1792" on="1"/>
        <pt x="768" y="1792" on="1"/>
        <pt x="768" y="1536" on="1"/>
      </contour>
    </TTGlyph>
    <TTGlyph name="StartofProtectedArea" xMin="0" yMin="768" xMax="1280" yMax="1792">
      <contour>
        <pt x="1024" y="768" on="1"/>
        <pt x="1024" y="1024" on="1"/>
        <pt x="1280" y="1024" on="1"/>
        <pt x="1280" y="768" on="1"/>
      </contour>
      <contour>
        <pt x="256" y="1024" on="1"/>
        <pt x="256" y="1280" on="1"/>
        <pt x="512" y="1280" on="1"/>
        <pt x="512" y="1024" on="1"/>
      </contour>
      <contour>
        <pt x="768" y="1280" on="1"/>
        <pt x="768" y="1536" on="1"/>
        <pt x="1024" y="1536" on="1"/>
        <pt x="1024" y="1280" on="1"/>
      </contour>
      <contour>
        <pt x="256" y="1280" on="1"/>
        <pt x="0" y="1280" on="1"/>
        <pt x="0" y="1536" on="1"/>
        <pt x="256" y="1536" on="1"/>
      </contour>
      <contour>
        <pt x="1024" y="1536" on="1"/>
        <pt x="1024" y="1792" on="1"/>
        <pt x="1280" y="1792" on="1"/>
        <pt x="1280" y="1536" on="1"/>
      </contour>
      <contour>
        <pt x="768" y="1536" on="1"/>
        <pt x="512" y="1536" on="1"/>
        <pt x="256" y="1536" on="1"/>
        <pt x="256" y="1792" on="1"/>
        <pt x="512" y="1792" on="1"/>
        <pt x="768" y="1792" on="1"/>
      </contour>
    </TTGlyph>
    <TTGlyph name="StartofSelectedArea" xMin="0" yMin="0" xMax="1280" yMax="1792">
      <contour>
        <pt x="512" y="0" on="1"/>
        <pt x="512" y="256" on="1"/>
        <pt x="768" y="256" on="1"/>
        <pt x="768" y="0" on="1"/>
      </contour>
      <contour>
        <pt x="768" y="1536" on="1"/>
        <pt x="768" y="1792" on="1"/>
        <pt x="1024" y="1792" on="1"/>
        <pt x="1024" y="1536" on="1"/>
      </contour>
      <contour>
        <pt x="256" y="1536" on="1"/>
        <pt x="256" y="1792" on="1"/>
        <pt x="512" y="1792" on="1"/>
        <pt x="512" y="1536" on="1"/>
      </contour>
      <contour>
        <pt x="1024" y="1280" on="1"/>
        <pt x="1280" y="1280" on="1"/>
        <pt x="1280" y="1024" on="1"/>
        <pt x="1024" y="1024" on="1"/>
        <pt x="768" y="1024" on="1"/>
        <pt x="768" y="1280" on="1"/>
      </contour>
      <contour>
        <pt x="256" y="1280" on="1"/>
        <pt x="512" y="1280" on="1"/>
        <pt x="512" y="1024" on="1"/>
        <pt x="256" y="1024" on="1"/>
        <pt x="0" y="1024" on="1"/>
        <pt x="0" y="1280" on="1"/>
      </contour>
    </TTGlyph>
    <TTGlyph name="StartofString" xMin="0" yMin="0" xMax="1280" yMax="1792">
      <contour>
        <pt x="512" y="0" on="1"/>
        <pt x="512" y="256" on="1"/>
        <pt x="768" y="256" on="1"/>
        <pt x="768" y="0" on="1"/>
      </contour>
      <contour>
        <pt x="1024" y="768" on="1"/>
        <pt x="1024" y="1024" on="1"/>
        <pt x="1280" y="1024" on="1"/>
        <pt x="1280" y="768" on="1"/>
      </contour>
      <contour>
        <pt x="0" y="768" on="1"/>
        <pt x="0" y="1024" on="1"/>
        <pt x="256" y="1024" on="1"/>
        <pt x="256" y="768" on="1"/>
      </contour>
      <contour>
        <pt x="1024" y="1024" on="1"/>
        <pt x="768" y="1024" on="1"/>
        <pt x="768" y="1280" on="1"/>
        <pt x="1024" y="1280" on="1"/>
      </contour>
      <contour>
        <pt x="256" y="1024" on="1"/>
        <pt x="256" y="1280" on="1"/>
        <pt x="512" y="1280" on="1"/>
        <pt x="512" y="1024" on="1"/>
      </contour>
      <contour>
        <pt x="512" y="1280" on="1"/>
        <pt x="512" y="1536" on="1"/>
        <pt x="768" y="1536" on="1"/>
        <pt x="768" y="1280" on="1"/>
      </contour>
      <contour>
        <pt x="512" y="1536" on="1"/>
        <pt x="256" y="1536" on="1"/>
        <pt x="256" y="1792" on="1"/>
        <pt x="512" y="1792" on="1"/>
      </contour>
    </TTGlyph>
    <TTGlyph name="StringTerminator" xMin="0" yMin="0" xMax="1280" yMax="1792">
      <contour>
        <pt x="512" y="0" on="1"/>
        <pt x="512" y="256" on="1"/>
        <pt x="768" y="256" on="1"/>
        <pt x="768" y="0" on="1"/>
      </contour>
      <contour>
        <pt x="1024" y="1280" on="1"/>
        <pt x="1280" y="1280" on="1"/>
        <pt x="1280" y="1024" on="1"/>
        <pt x="1024" y="1024" on="1"/>
        <pt x="768" y="1024" on="1"/>
        <pt x="768" y="1280" on="1"/>
      </contour>
      <contour>
        <pt x="256" y="1280" on="1"/>
        <pt x="512" y="1280" on="1"/>
        <pt x="512" y="1024" on="1"/>
        <pt x="256" y="1024" on="1"/>
        <pt x="0" y="1024" on="1"/>
        <pt x="0" y="1280" on="1"/>
      </contour>
      <contour>
        <pt x="512" y="1280" on="1"/>
        <pt x="512" y="1536" on="1"/>
        <pt x="768" y="1536" on="1"/>
        <pt x="768" y="1280" on="1"/>
      </contour>
      <contour>
        <pt x="768" y="1536" on="1"/>
        <pt x="768" y="1792" on="1"/>
        <pt x="1024" y="1792" on="1"/>
        <pt x="1024" y="1536" on="1"/>
      </contour>
    </TTGlyph>
    <TTGlyph name="T" xMin="0" yMin="1536" xMax="1536" yMax="1792">
      <contour>
        <pt x="1280" y="1792" on="1"/>
        <pt x="1536" y="1792" on="1"/>
        <pt x="1536" y="1536" on="1"/>
        <pt x="1280" y="1536" on="1"/>
        <pt x="1024" y="1536" on="1"/>
        <pt x="768" y="1536" on="1"/>
        <pt x="512" y="1536" on="1"/>
        <pt x="256" y="1536" on="1"/>
        <pt x="0" y="1536" on="1"/>
        <pt x="0" y="1792" on="1"/>
        <pt x="256" y="1792" on="1"/>
        <pt x="512" y="1792" on="1"/>
        <pt x="768" y="1792" on="1"/>
        <pt x="1024" y="1792" on="1"/>
      </contour>
    </TTGlyph>
    <TTGlyph name="U" xMin="0" yMin="0" xMax="1280" yMax="1792">
      <contour>
        <pt x="512" y="0" on="1"/>
        <pt x="512" y="256" on="1"/>
        <pt x="768" y="256" on="1"/>
        <pt x="768" y="0" on="1"/>
      </contour>
      <contour>
        <pt x="1024" y="1792" on="1"/>
        <pt x="1280" y="1792" on="1"/>
        <pt x="1280" y="1536" on="1"/>
        <pt x="1024" y="1536" on="1"/>
        <pt x="768" y="1536" on="1"/>
        <pt x="768" y="1792" on="1"/>
      </contour>
      <contour>
        <pt x="256" y="1792" on="1"/>
        <pt x="512" y="1792" on="1"/>
        <pt x="512" y="1536" on="1"/>
        <pt x="256" y="1536" on="1"/>
        <pt x="0" y="1536" on="1"/>
        <pt x="0" y="1792" on="1"/>
      </contour>
    </TTGlyph>
    <TTGlyph name="Uacute" xMin="0" yMin="0" xMax="1280" yMax="1792">
      <contour>
        <pt x="512" y="0" on="1"/>
        <pt x="512" y="256" on="1"/>
        <pt x="768" y="256" on="1"/>
        <pt x="768" y="0" on="1"/>
      </contour>
      <contour>
        <pt x="1024" y="1280" on="1"/>
        <pt x="1280" y="1280" on="1"/>
        <pt x="1280" y="1024" on="1"/>
        <pt x="1024" y="1024" on="1"/>
        <pt x="768" y="1024" on="1"/>
        <pt x="768" y="1280" on="1"/>
      </contour>
      <contour>
        <pt x="256" y="1280" on="1"/>
        <pt x="512" y="1280" on="1"/>
        <pt x="512" y="1024" on="1"/>
        <pt x="256" y="1024" on="1"/>
        <pt x="0" y="1024" on="1"/>
        <pt x="0" y="1280" on="1"/>
      </contour>
      <contour>
        <pt x="512" y="1280" on="1"/>
        <pt x="512" y="1536" on="1"/>
        <pt x="768" y="1536" on="1"/>
        <pt x="768" y="1280" on="1"/>
      </contour>
      <contour>
        <pt x="768" y="1536" on="1"/>
        <pt x="768" y="1792" on="1"/>
        <pt x="1024" y="1792" on="1"/>
        <pt x="1024" y="1536" on="1"/>
      </contour>
    </TTGlyph>
    <TTGlyph name="Ucircumflex" xMin="0" yMin="0" xMax="1280" yMax="1792">
      <contour>
        <pt x="512" y="0" on="1"/>
        <pt x="512" y="256" on="1"/>
        <pt x="768" y="256" on="1"/>
        <pt x="768" y="0" on="1"/>
      </contour>
      <contour>
        <pt x="1024" y="1024" on="1"/>
        <pt x="1024" y="1280" on="1"/>
        <pt x="1280" y="1280" on="1"/>
        <pt x="1280" y="1024" on="1"/>
      </contour>
      <contour>
        <pt x="0" y="1024" on="1"/>
        <pt x="0" y="1280" on="1"/>
        <pt x="256" y="1280" on="1"/>
        <pt x="256" y="1024" on="1"/>
      </contour>
      <contour>
        <pt x="1024" y="1280" on="1"/>
        <pt x="768" y="1280" on="1"/>
        <pt x="768" y="1536" on="1"/>
        <pt x="1024" y="1536" on="1"/>
      </contour>
      <contour>
        <pt x="256" y="1280" on="1"/>
        <pt x="256" y="1536" on="1"/>
        <pt x="512" y="1536" on="1"/>
        <pt x="512" y="1280" on="1"/>
      </contour>
      <contour>
        <pt x="512" y="1536" on="1"/>
        <pt x="512" y="1792" on="1"/>
        <pt x="768" y="1792" on="1"/>
        <pt x="768" y="1536" on="1"/>
      </contour>
    </TTGlyph>
    <TTGlyph name="Udieresis" xMin="0" yMin="0" xMax="1280" yMax="1792">
      <contour>
        <pt x="512" y="0" on="1"/>
        <pt x="512" y="256" on="1"/>
        <pt x="768" y="256" on="1"/>
        <pt x="768" y="0" on="1"/>
      </contour>
      <contour>
        <pt x="768" y="1536" on="1"/>
        <pt x="768" y="1792" on="1"/>
        <pt x="1024" y="1792" on="1"/>
        <pt x="1024" y="1536" on="1"/>
      </contour>
      <contour>
        <pt x="256" y="1536" on="1"/>
        <pt x="256" y="1792" on="1"/>
        <pt x="512" y="1792" on="1"/>
        <pt x="512" y="1536" on="1"/>
      </contour>
      <contour>
        <pt x="1024" y="1280" on="1"/>
        <pt x="1280" y="1280" on="1"/>
        <pt x="1280" y="1024" on="1"/>
        <pt x="1024" y="1024" on="1"/>
        <pt x="768" y="1024" on="1"/>
        <pt x="768" y="1280" on="1"/>
      </contour>
      <contour>
        <pt x="256" y="1280" on="1"/>
        <pt x="512" y="1280" on="1"/>
        <pt x="512" y="1024" on="1"/>
        <pt x="256" y="1024" on="1"/>
        <pt x="0" y="1024" on="1"/>
        <pt x="0" y="1280" on="1"/>
      </contour>
    </TTGlyph>
    <TTGlyph name="Ugrave" xMin="0" yMin="0" xMax="1280" yMax="1792">
      <contour>
        <pt x="512" y="0" on="1"/>
        <pt x="512" y="256" on="1"/>
        <pt x="768" y="256" on="1"/>
        <pt x="768" y="0" on="1"/>
      </contour>
      <contour>
        <pt x="1024" y="1280" on="1"/>
        <pt x="1280" y="1280" on="1"/>
        <pt x="1280" y="1024" on="1"/>
        <pt x="1024" y="1024" on="1"/>
        <pt x="768" y="1024" on="1"/>
        <pt x="768" y="1280" on="1"/>
      </contour>
      <contour>
        <pt x="256" y="1280" on="1"/>
        <pt x="512" y="1280" on="1"/>
        <pt x="512" y="1024" on="1"/>
        <pt x="256" y="1024" on="1"/>
        <pt x="0" y="1024" on="1"/>
        <pt x="0" y="1280" on="1"/>
      </contour>
      <contour>
        <pt x="512" y="1280" on="1"/>
        <pt x="512" y="1536" on="1"/>
        <pt x="768" y="1536" on="1"/>
        <pt x="768" y="1280" on="1"/>
      </contour>
      <contour>
        <pt x="512" y="1536" on="1"/>
        <pt x="256" y="1536" on="1"/>
        <pt x="256" y="1792" on="1"/>
        <pt x="512" y="1792" on="1"/>
      </contour>
    </TTGlyph>
    <TTGlyph name="V" xMin="0" yMin="768" xMax="1536" yMax="1792">
      <contour>
        <pt x="768" y="1024" on="1"/>
        <pt x="1024" y="1024" on="1"/>
        <pt x="1024" y="768" on="1"/>
        <pt x="768" y="768" on="1"/>
        <pt x="512" y="768" on="1"/>
        <pt x="512" y="1024" on="1"/>
      </contour>
      <contour>
        <pt x="1280" y="1792" on="1"/>
        <pt x="1536" y="1792" on="1"/>
        <pt x="1536" y="1536" on="1"/>
        <pt x="1280" y="1536" on="1"/>
        <pt x="1024" y="1536" on="1"/>
        <pt x="1024" y="1792" on="1"/>
      </contour>
      <contour>
        <pt x="256" y="1792" on="1"/>
        <pt x="512" y="1792" on="1"/>
        <pt x="512" y="1536" on="1"/>
        <pt x="256" y="1536" on="1"/>
        <pt x="0" y="1536" on="1"/>
        <pt x="0" y="1792" on="1"/>
      </contour>
    </TTGlyph>
    <TTGlyph name="W" xMin="0" yMin="768" xMax="1792" yMax="1792">
      <contour>
        <pt x="1024" y="768" on="1"/>
        <pt x="1024" y="1024" on="1"/>
        <pt x="1280" y="1024" on="1"/>
        <pt x="1280" y="768" on="1"/>
      </contour>
      <contour>
        <pt x="512" y="768" on="1"/>
        <pt x="512" y="1024" on="1"/>
        <pt x="768" y="1024" on="1"/>
        <pt x="768" y="768" on="1"/>
      </contour>
      <contour>
        <pt x="768" y="1024" on="1"/>
        <pt x="768" y="1280" on="1"/>
        <pt x="1024" y="1280" on="1"/>
        <pt x="1024" y="1024" on="1"/>
      </contour>
      <contour>
        <pt x="1536" y="1792" on="1"/>
        <pt x="1792" y="1792" on="1"/>
        <pt x="1792" y="1536" on="1"/>
        <pt x="1536" y="1536" on="1"/>
        <pt x="1280" y="1536" on="1"/>
        <pt x="1280" y="1792" on="1"/>
      </contour>
      <contour>
        <pt x="256" y="1792" on="1"/>
        <pt x="512" y="1792" on="1"/>
        <pt x="512" y="1536" on="1"/>
        <pt x="256" y="1536" on="1"/>
        <pt x="0" y="1536" on="1"/>
        <pt x="0" y="1792" on="1"/>
      </contour>
    </TTGlyph>
    <TTGlyph name="X" xMin="0" yMin="256" xMax="1536" yMax="1792">
      <contour>
        <pt x="1280" y="256" on="1"/>
        <pt x="1280" y="512" on="1"/>
        <pt x="1536" y="512" on="1"/>
        <pt x="1536" y="256" on="1"/>
      </contour>
      <contour>
        <pt x="0" y="256" on="1"/>
        <pt x="0" y="512" on="1"/>
        <pt x="256" y="512" on="1"/>
        <pt x="256" y="256" on="1"/>
      </contour>
      <contour>
        <pt x="1280" y="512" on="1"/>
        <pt x="1024" y="512" on="1"/>
        <pt x="1024" y="768" on="1"/>
        <pt x="1280" y="768" on="1"/>
      </contour>
      <contour>
        <pt x="256" y="512" on="1"/>
        <pt x="256" y="768" on="1"/>
        <pt x="512" y="768" on="1"/>
        <pt x="512" y="512" on="1"/>
      </contour>
      <contour>
        <pt x="768" y="1280" on="1"/>
        <pt x="1024" y="1280" on="1"/>
        <pt x="1024" y="1024" on="1"/>
        <pt x="768" y="1024" on="1"/>
        <pt x="512" y="1024" on="1"/>
        <pt x="512" y="1280" on="1"/>
      </contour>
      <contour>
        <pt x="1280" y="1792" on="1"/>
        <pt x="1536" y="1792" on="1"/>
        <pt x="1536" y="1536" on="1"/>
        <pt x="1280" y="1536" on="1"/>
        <pt x="1024" y="1536" on="1"/>
        <pt x="1024" y="1792" on="1"/>
      </contour>
      <contour>
        <pt x="256" y="1792" on="1"/>
        <pt x="512" y="1792" on="1"/>
        <pt x="512" y="1536" on="1"/>
        <pt x="256" y="1536" on="1"/>
        <pt x="0" y="1536" on="1"/>
        <pt x="0" y="1792" on="1"/>
      </contour>
    </TTGlyph>
    <TTGlyph name="Y" xMin="0" yMin="1024" xMax="1536" yMax="1792">
      <contour>
        <pt x="768" y="1280" on="1"/>
        <pt x="1024" y="1280" on="1"/>
        <pt x="1024" y="1024" on="1"/>
        <pt x="768" y="1024" on="1"/>
        <pt x="512" y="1024" on="1"/>
        <pt x="512" y="1280" on="1"/>
      </contour>
      <contour>
        <pt x="1280" y="1792" on="1"/>
        <pt x="1536" y="1792" on="1"/>
        <pt x="1536" y="1536" on="1"/>
        <pt x="1280" y="1536" on="1"/>
        <pt x="1024" y="1536" on="1"/>
        <pt x="1024" y="1792" on="1"/>
      </contour>
      <contour>
        <pt x="256" y="1792" on="1"/>
        <pt x="512" y="1792" on="1"/>
        <pt x="512" y="1536" on="1"/>
        <pt x="256" y="1536" on="1"/>
        <pt x="0" y="1536" on="1"/>
        <pt x="0" y="1792" on="1"/>
      </contour>
    </TTGlyph>
    <TTGlyph name="Yacute" xMin="0" yMin="768" xMax="1536" yMax="1792">
      <contour>
        <pt x="768" y="1024" on="1"/>
        <pt x="1024" y="1024" on="1"/>
        <pt x="1024" y="768" on="1"/>
        <pt x="768" y="768" on="1"/>
        <pt x="512" y="768" on="1"/>
        <pt x="512" y="1024" on="1"/>
      </contour>
      <contour>
        <pt x="1280" y="1280" on="1"/>
        <pt x="1536" y="1280" on="1"/>
        <pt x="1536" y="1024" on="1"/>
        <pt x="1280" y="1024" on="1"/>
        <pt x="1024" y="1024" on="1"/>
        <pt x="1024" y="1280" on="1"/>
      </contour>
      <contour>
        <pt x="512" y="1024" on="1"/>
        <pt x="256" y="1024" on="1"/>
        <pt x="0" y="1024" on="1"/>
        <pt x="0" y="1280" on="1"/>
        <pt x="256" y="1280" on="1"/>
        <pt x="512" y="1280" on="1"/>
      </contour>
      <contour>
        <pt x="1024" y="1280" on="1"/>
        <pt x="768" y="1280" on="1"/>
        <pt x="768" y="1536" on="1"/>
        <pt x="1024" y="1536" on="1"/>
      </contour>
      <contour>
        <pt x="1024" y="1536" on="1"/>
        <pt x="1024" y="1792" on="1"/>
        <pt x="1280" y="1792" on="1"/>
        <pt x="1280" y="1536" on="1"/>
      </contour>
    </TTGlyph>
    <TTGlyph name="Ydieresis" xMin="0" yMin="768" xMax="1536" yMax="1792">
      <contour>
        <pt x="1024" y="1536" on="1"/>
        <pt x="1024" y="1792" on="1"/>
        <pt x="1280" y="1792" on="1"/>
        <pt x="1280" y="1536" on="1"/>
      </contour>
      <contour>
        <pt x="256" y="1536" on="1"/>
        <pt x="256" y="1792" on="1"/>
        <pt x="512" y="1792" on="1"/>
        <pt x="512" y="1536" on="1"/>
      </contour>
      <contour>
        <pt x="768" y="1024" on="1"/>
        <pt x="1024" y="1024" on="1"/>
        <pt x="1024" y="768" on="1"/>
        <pt x="768" y="768" on="1"/>
        <pt x="512" y="768" on="1"/>
        <pt x="512" y="1024" on="1"/>
      </contour>
      <contour>
        <pt x="1280" y="1280" on="1"/>
        <pt x="1536" y="1280" on="1"/>
        <pt x="1536" y="1024" on="1"/>
        <pt x="1280" y="1024" on="1"/>
        <pt x="1024" y="1024" on="1"/>
        <pt x="1024" y="1280" on="1"/>
      </contour>
      <contour>
        <pt x="512" y="1024" on="1"/>
        <pt x="256" y="1024" on="1"/>
        <pt x="0" y="1024" on="1"/>
        <pt x="0" y="1280" on="1"/>
        <pt x="256" y="1280" on="1"/>
        <pt x="512" y="1280" on="1"/>
      </contour>
    </TTGlyph>
    <TTGlyph name="Z" xMin="0" yMin="0" xMax="1280" yMax="1792">
      <contour>
        <pt x="0" y="512" on="1"/>
        <pt x="0" y="768" on="1"/>
        <pt x="256" y="768" on="1"/>
        <pt x="256" y="512" on="1"/>
      </contour>
      <contour>
        <pt x="1024" y="256" on="1"/>
        <pt x="1280" y="256" on="1"/>
        <pt x="1280" y="0" on="1"/>
        <pt x="1024" y="0" on="1"/>
        <pt x="768" y="0" on="1"/>
        <pt x="512" y="0" on="1"/>
        <pt x="512" y="256" on="1"/>
        <pt x="768" y="256" on="1"/>
      </contour>
      <contour>
        <pt x="256" y="768" on="1"/>
        <pt x="256" y="1024" on="1"/>
        <pt x="512" y="1024" on="1"/>
        <pt x="512" y="768" on="1"/>
      </contour>
      <contour>
        <pt x="512" y="1024" on="1"/>
        <pt x="512" y="1280" on="1"/>
        <pt x="768" y="1280" on="1"/>
        <pt x="768" y="1024" on="1"/>
      </contour>
      <contour>
        <pt x="1024" y="1792" on="1"/>
        <pt x="1280" y="1792" on="1"/>
        <pt x="1280" y="1536" on="1"/>
        <pt x="1024" y="1536" on="1"/>
        <pt x="768" y="1536" on="1"/>
        <pt x="512" y="1536" on="1"/>
        <pt x="256" y="1536" on="1"/>
        <pt x="0" y="1536" on="1"/>
        <pt x="0" y="1792" on="1"/>
        <pt x="256" y="1792" on="1"/>
        <pt x="512" y="1792" on="1"/>
        <pt x="768" y="1792" on="1"/>
      </contour>
    </TTGlyph>
    <TTGlyph name="a" xMin="0" yMin="0" xMax="1280" yMax="1280">
      <contour>
        <pt x="512" y="0" on="1"/>
        <pt x="512" y="256" on="1"/>
        <pt x="768" y="256" on="1"/>
        <pt x="768" y="0" on="1"/>
      </contour>
      <contour>
        <pt x="0" y="256" on="1"/>
        <pt x="0" y="512" on="1"/>
        <pt x="256" y="512" on="1"/>
        <pt x="256" y="256" on="1"/>
      </contour>
      <contour>
        <pt x="1024" y="768" on="1"/>
        <pt x="1024" y="1024" on="1"/>
        <pt x="1280" y="1024" on="1"/>
        <pt x="1280" y="768" on="1"/>
      </contour>
      <contour>
        <pt x="512" y="768" on="1"/>
        <pt x="768" y="768" on="1"/>
        <pt x="768" y="512" on="1"/>
        <pt x="512" y="512" on="1"/>
        <pt x="256" y="512" on="1"/>
        <pt x="256" y="768" on="1"/>
      </contour>
      <contour>
        <pt x="1024" y="1024" on="1"/>
        <pt x="768" y="1024" on="1"/>
        <pt x="512" y="1024" on="1"/>
        <pt x="256" y="1024" on="1"/>
        <pt x="256" y="1280" on="1"/>
        <pt x="512" y="1280" on="1"/>
        <pt x="768" y="1280" on="1"/>
        <pt x="1024" y="1280" on="1"/>
      </contour>
    </TTGlyph>
    <TTGlyph name="aacute" xMin="0" yMin="0" xMax="1280" yMax="1792">
      <contour>
        <pt x="512" y="0" on="1"/>
        <pt x="512" y="256" on="1"/>
        <pt x="768" y="256" on="1"/>
        <pt x="768" y="0" on="1"/>
      </contour>
      <contour>
        <pt x="0" y="256" on="1"/>
        <pt x="0" y="512" on="1"/>
        <pt x="256" y="512" on="1"/>
        <pt x="256" y="256" on="1"/>
      </contour>
      <contour>
        <pt x="1024" y="768" on="1"/>
        <pt x="1024" y="1024" on="1"/>
        <pt x="1280" y="1024" on="1"/>
        <pt x="1280" y="768" on="1"/>
      </contour>
      <contour>
        <pt x="256" y="1024" on="1"/>
        <pt x="256" y="1280" on="1"/>
        <pt x="512" y="1280" on="1"/>
        <pt x="512" y="1024" on="1"/>
      </contour>
      <contour>
        <pt x="512" y="768" on="1"/>
        <pt x="768" y="768" on="1"/>
        <pt x="768" y="512" on="1"/>
        <pt x="512" y="512" on="1"/>
        <pt x="256" y="512" on="1"/>
        <pt x="256" y="768" on="1"/>
      </contour>
      <contour>
        <pt x="1024" y="1024" on="1"/>
        <pt x="768" y="1024" on="1"/>
        <pt x="768" y="1280" on="1"/>
        <pt x="1024" y="1280" on="1"/>
      </contour>
      <contour>
        <pt x="512" y="1280" on="1"/>
        <pt x="512" y="1536" on="1"/>
        <pt x="768" y="1536" on="1"/>
        <pt x="768" y="1280" on="1"/>
      </contour>
      <contour>
        <pt x="768" y="1536" on="1"/>
        <pt x="768" y="1792" on="1"/>
        <pt x="1024" y="1792" on="1"/>
        <pt x="1024" y="1536" on="1"/>
      </contour>
    </TTGlyph>
    <TTGlyph name="acircumflex" xMin="0" yMin="0" xMax="1280" yMax="1792">
      <contour>
        <pt x="512" y="0" on="1"/>
        <pt x="512" y="256" on="1"/>
        <pt x="768" y="256" on="1"/>
        <pt x="768" y="0" on="1"/>
      </contour>
      <contour>
        <pt x="0" y="256" on="1"/>
        <pt x="0" y="512" on="1"/>
        <pt x="256" y="512" on="1"/>
        <pt x="256" y="256" on="1"/>
      </contour>
      <contour>
        <pt x="1024" y="1024" on="1"/>
        <pt x="1024" y="1280" on="1"/>
        <pt x="1280" y="1280" on="1"/>
        <pt x="1280" y="1024" on="1"/>
      </contour>
      <contour>
        <pt x="0" y="1024" on="1"/>
        <pt x="0" y="1280" on="1"/>
        <pt x="256" y="1280" on="1"/>
        <pt x="256" y="1024" on="1"/>
      </contour>
      <contour>
        <pt x="512" y="768" on="1"/>
        <pt x="768" y="768" on="1"/>
        <pt x="768" y="512" on="1"/>
        <pt x="512" y="512" on="1"/>
        <pt x="256" y="512" on="1"/>
        <pt x="256" y="768" on="1"/>
      </contour>
      <contour>
        <pt x="1024" y="1280" on="1"/>
        <pt x="768" y="1280" on="1"/>
        <pt x="768" y="1536" on="1"/>
        <pt x="1024" y="1536" on="1"/>
      </contour>
      <contour>
        <pt x="256" y="1280" on="1"/>
        <pt x="256" y="1536" on="1"/>
        <pt x="512" y="1536" on="1"/>
        <pt x="512" y="1280" on="1"/>
      </contour>
      <contour>
        <pt x="512" y="1536" on="1"/>
        <pt x="512" y="1792" on="1"/>
        <pt x="768" y="1792" on="1"/>
        <pt x="768" y="1536" on="1"/>
      </contour>
    </TTGlyph>
    <TTGlyph name="acute" xMin="0" yMin="512" xMax="1536" yMax="1792">
      <contour>
        <pt x="1280" y="1024" on="1"/>
        <pt x="1280" y="1280" on="1"/>
        <pt x="1536" y="1280" on="1"/>
        <pt x="1536" y="1024" on="1"/>
      </contour>
      <contour>
        <pt x="0" y="1024" on="1"/>
        <pt x="0" y="1280" on="1"/>
        <pt x="256" y="1280" on="1"/>
        <pt x="256" y="1024" on="1"/>
      </contour>
      <contour>
        <pt x="1280" y="768" on="1"/>
        <pt x="1536" y="768" on="1"/>
        <pt x="1536" y="512" on="1"/>
        <pt x="1280" y="512" on="1"/>
        <pt x="1024" y="512" on="1"/>
        <pt x="1024" y="768" on="1"/>
      </contour>
      <contour>
        <pt x="256" y="768" on="1"/>
        <pt x="512" y="768" on="1"/>
        <pt x="512" y="512" on="1"/>
        <pt x="256" y="512" on="1"/>
        <pt x="0" y="512" on="1"/>
        <pt x="0" y="768" on="1"/>
      </contour>
      <contour>
        <pt x="768" y="1536" on="1"/>
        <pt x="1024" y="1536" on="1"/>
        <pt x="1024" y="1280" on="1"/>
        <pt x="768" y="1280" on="1"/>
        <pt x="512" y="1280" on="1"/>
        <pt x="512" y="1536" on="1"/>
      </contour>
      <contour>
        <pt x="1280" y="1792" on="1"/>
        <pt x="1536" y="1792" on="1"/>
        <pt x="1536" y="1536" on="1"/>
        <pt x="1280" y="1536" on="1"/>
        <pt x="1024" y="1536" on="1"/>
        <pt x="1024" y="1792" on="1"/>
      </contour>
      <contour>
        <pt x="512" y="1536" on="1"/>
        <pt x="256" y="1536" on="1"/>
        <pt x="0" y="1536" on="1"/>
        <pt x="0" y="1792" on="1"/>
        <pt x="256" y="1792" on="1"/>
        <pt x="512" y="1792" on="1"/>
      </contour>
    </TTGlyph>
    <TTGlyph name="adieresis" xMin="0" yMin="0" xMax="1280" yMax="1792">
      <contour>
        <pt x="512" y="0" on="1"/>
        <pt x="512" y="256" on="1"/>
        <pt x="768" y="256" on="1"/>
        <pt x="768" y="0" on="1"/>
      </contour>
      <contour>
        <pt x="0" y="256" on="1"/>
        <pt x="0" y="512" on="1"/>
        <pt x="256" y="512" on="1"/>
        <pt x="256" y="256" on="1"/>
      </contour>
      <contour>
        <pt x="1024" y="768" on="1"/>
        <pt x="1024" y="1024" on="1"/>
        <pt x="1280" y="1024" on="1"/>
        <pt x="1280" y="768" on="1"/>
      </contour>
      <contour>
        <pt x="768" y="1536" on="1"/>
        <pt x="768" y="1792" on="1"/>
        <pt x="1024" y="1792" on="1"/>
        <pt x="1024" y="1536" on="1"/>
      </contour>
      <contour>
        <pt x="256" y="1536" on="1"/>
        <pt x="256" y="1792" on="1"/>
        <pt x="512" y="1792" on="1"/>
        <pt x="512" y="1536" on="1"/>
      </contour>
      <contour>
        <pt x="512" y="768" on="1"/>
        <pt x="768" y="768" on="1"/>
        <pt x="768" y="512" on="1"/>
        <pt x="512" y="512" on="1"/>
        <pt x="256" y="512" on="1"/>
        <pt x="256" y="768" on="1"/>
      </contour>
      <contour>
        <pt x="1024" y="1024" on="1"/>
        <pt x="768" y="1024" on="1"/>
        <pt x="512" y="1024" on="1"/>
        <pt x="256" y="1024" on="1"/>
        <pt x="256" y="1280" on="1"/>
        <pt x="512" y="1280" on="1"/>
        <pt x="768" y="1280" on="1"/>
        <pt x="1024" y="1280" on="1"/>
      </contour>
    </TTGlyph>
    <TTGlyph name="ae" xMin="0" yMin="0" xMax="1792" yMax="1280">
      <contour>
        <pt x="512" y="0" on="1"/>
        <pt x="512" y="256" on="1"/>
        <pt x="768" y="256" on="1"/>
        <pt x="768" y="0" on="1"/>
      </contour>
      <contour>
        <pt x="0" y="256" on="1"/>
        <pt x="0" y="512" on="1"/>
        <pt x="256" y="512" on="1"/>
        <pt x="256" y="256" on="1"/>
      </contour>
      <contour>
        <pt x="1280" y="512" on="1"/>
        <pt x="1280" y="768" on="1"/>
        <pt x="1536" y="768" on="1"/>
        <pt x="1536" y="512" on="1"/>
      </contour>
      <contour>
        <pt x="1536" y="256" on="1"/>
        <pt x="1792" y="256" on="1"/>
        <pt x="1792" y="0" on="1"/>
        <pt x="1536" y="0" on="1"/>
        <pt x="1280" y="0" on="1"/>
        <pt x="1280" y="256" on="1"/>
      </contour>
      <contour>
        <pt x="512" y="768" on="1"/>
        <pt x="768" y="768" on="1"/>
        <pt x="768" y="512" on="1"/>
        <pt x="512" y="512" on="1"/>
        <pt x="256" y="512" on="1"/>
        <pt x="256" y="768" on="1"/>
      </contour>
      <contour>
        <pt x="1536" y="768" on="1"/>
        <pt x="1536" y="1024" on="1"/>
        <pt x="1792" y="1024" on="1"/>
        <pt x="1792" y="768" on="1"/>
      </contour>
      <contour>
        <pt x="1536" y="1024" on="1"/>
        <pt x="1280" y="1024" on="1"/>
        <pt x="1024" y="1024" on="1"/>
        <pt x="768" y="1024" on="1"/>
        <pt x="512" y="1024" on="1"/>
        <pt x="256" y="1024" on="1"/>
        <pt x="256" y="1280" on="1"/>
        <pt x="512" y="1280" on="1"/>
        <pt x="768" y="1280" on="1"/>
        <pt x="1024" y="1280" on="1"/>
        <pt x="1280" y="1280" on="1"/>
        <pt x="1536" y="1280" on="1"/>
      </contour>
    </TTGlyph>
    <TTGlyph name="agrave" xMin="0" yMin="0" xMax="1280" yMax="1792">
      <contour>
        <pt x="512" y="0" on="1"/>
        <pt x="512" y="256" on="1"/>
        <pt x="768" y="256" on="1"/>
        <pt x="768" y="0" on="1"/>
      </contour>
      <contour>
        <pt x="0" y="256" on="1"/>
        <pt x="0" y="512" on="1"/>
        <pt x="256" y="512" on="1"/>
        <pt x="256" y="256" on="1"/>
      </contour>
      <contour>
        <pt x="1024" y="768" on="1"/>
        <pt x="1024" y="1024" on="1"/>
        <pt x="1280" y="1024" on="1"/>
        <pt x="1280" y="768" on="1"/>
      </contour>
      <contour>
        <pt x="512" y="768" on="1"/>
        <pt x="768" y="768" on="1"/>
        <pt x="768" y="512" on="1"/>
        <pt x="512" y="512" on="1"/>
        <pt x="256" y="512" on="1"/>
        <pt x="256" y="768" on="1"/>
      </contour>
      <contour>
        <pt x="1024" y="1024" on="1"/>
        <pt x="768" y="1024" on="1"/>
        <pt x="512" y="1024" on="1"/>
        <pt x="256" y="1024" on="1"/>
        <pt x="256" y="1280" on="1"/>
        <pt x="512" y="1280" on="1"/>
        <pt x="768" y="1280" on="1"/>
        <pt x="768" y="1536" on="1"/>
        <pt x="1024" y="1536" on="1"/>
        <pt x="1024" y="1280" on="1"/>
      </contour>
      <contour>
        <pt x="768" y="1536" on="1"/>
        <pt x="512" y="1536" on="1"/>
        <pt x="512" y="1792" on="1"/>
        <pt x="768" y="1792" on="1"/>
      </contour>
    </TTGlyph>
    <TTGlyph name="ampersand" xMin="0" yMin="0" xMax="1536" yMax="1792">
      <contour>
        <pt x="512" y="0" on="1"/>
        <pt x="512" y="256" on="1"/>
        <pt x="768" y="256" on="1"/>
        <pt x="768" y="0" on="1"/>
      </contour>
      <contour>
        <pt x="1024" y="512" on="1"/>
        <pt x="1024" y="768" on="1"/>
        <pt x="1280" y="768" on="1"/>
        <pt x="1280" y="512" on="1"/>
      </contour>
      <contour>
        <pt x="0" y="768" on="1"/>
        <pt x="0" y="1024" on="1"/>
        <pt x="256" y="1024" on="1"/>
        <pt x="256" y="768" on="1"/>
      </contour>
      <contour>
        <pt x="512" y="1024" on="1"/>
        <pt x="512" y="1280" on="1"/>
        <pt x="768" y="1280" on="1"/>
        <pt x="768" y="1024" on="1"/>
      </contour>
      <contour>
        <pt x="1024" y="1280" on="1"/>
        <pt x="1024" y="1536" on="1"/>
        <pt x="1280" y="1536" on="1"/>
        <pt x="1280" y="1280" on="1"/>
      </contour>
      <contour>
        <pt x="0" y="1280" on="1"/>
        <pt x="0" y="1536" on="1"/>
        <pt x="256" y="1536" on="1"/>
        <pt x="256" y="1280" on="1"/>
      </contour>
      <contour>
        <pt x="1280" y="768" on="1"/>
        <pt x="1280" y="1024" on="1"/>
        <pt x="1536" y="1024" on="1"/>
        <pt x="1536" y="768" on="1"/>
      </contour>
      <contour>
        <pt x="1024" y="1536" on="1"/>
        <pt x="768" y="1536" on="1"/>
        <pt x="512" y="1536" on="1"/>
        <pt x="256" y="1536" on="1"/>
        <pt x="256" y="1792" on="1"/>
        <pt x="512" y="1792" on="1"/>
        <pt x="768" y="1792" on="1"/>
        <pt x="1024" y="1792" on="1"/>
      </contour>
    </TTGlyph>
    <TTGlyph name="aring" xMin="0" yMin="0" xMax="1280" yMax="1792">
      <contour>
        <pt x="512" y="0" on="1"/>
        <pt x="512" y="256" on="1"/>
        <pt x="768" y="256" on="1"/>
        <pt x="768" y="0" on="1"/>
      </contour>
      <contour>
        <pt x="0" y="256" on="1"/>
        <pt x="0" y="512" on="1"/>
        <pt x="256" y="512" on="1"/>
        <pt x="256" y="256" on="1"/>
      </contour>
      <contour>
        <pt x="1024" y="1024" on="1"/>
        <pt x="1024" y="1280" on="1"/>
        <pt x="1280" y="1280" on="1"/>
        <pt x="1280" y="1024" on="1"/>
      </contour>
      <contour>
        <pt x="512" y="1024" on="1"/>
        <pt x="512" y="1280" on="1"/>
        <pt x="768" y="1280" on="1"/>
        <pt x="768" y="1024" on="1"/>
      </contour>
      <contour>
        <pt x="512" y="768" on="1"/>
        <pt x="768" y="768" on="1"/>
        <pt x="768" y="512" on="1"/>
        <pt x="512" y="512" on="1"/>
        <pt x="256" y="512" on="1"/>
        <pt x="256" y="768" on="1"/>
      </contour>
      <contour>
        <pt x="768" y="1280" on="1"/>
        <pt x="768" y="1536" on="1"/>
        <pt x="1024" y="1536" on="1"/>
        <pt x="1024" y="1280" on="1"/>
      </contour>
      <contour>
        <pt x="512" y="1280" on="1"/>
        <pt x="256" y="1280" on="1"/>
        <pt x="256" y="1536" on="1"/>
        <pt x="512" y="1536" on="1"/>
      </contour>
      <contour>
        <pt x="512" y="1536" on="1"/>
        <pt x="512" y="1792" on="1"/>
        <pt x="768" y="1792" on="1"/>
        <pt x="768" y="1536" on="1"/>
      </contour>
    </TTGlyph>
    <TTGlyph name="asciicircum" xMin="0" yMin="1280" xMax="768" yMax="1792">
      <contour>
        <pt x="512" y="1280" on="1"/>
        <pt x="512" y="1536" on="1"/>
        <pt x="768" y="1536" on="1"/>
        <pt x="768" y="1280" on="1"/>
      </contour>
      <contour>
        <pt x="0" y="1280" on="1"/>
        <pt x="0" y="1536" on="1"/>
        <pt x="256" y="1536" on="1"/>
        <pt x="256" y="1280" on="1"/>
      </contour>
      <contour>
        <pt x="256" y="1536" on="1"/>
        <pt x="256" y="1792" on="1"/>
        <pt x="512" y="1792" on="1"/>
        <pt x="512" y="1536" on="1"/>
      </contour>
    </TTGlyph>
    <TTGlyph name="asciitilde" xMin="0" yMin="1280" xMax="1280" yMax="1792">
      <contour>
        <pt x="768" y="1280" on="1"/>
        <pt x="768" y="1536" on="1"/>
        <pt x="1024" y="1536" on="1"/>
        <pt x="1024" y="1280" on="1"/>
      </contour>
      <contour>
        <pt x="0" y="1280" on="1"/>
        <pt x="0" y="1536" on="1"/>
        <pt x="256" y="1536" on="1"/>
        <pt x="256" y="1280" on="1"/>
      </contour>
      <contour>
        <pt x="1024" y="1536" on="1"/>
        <pt x="1024" y="1792" on="1"/>
        <pt x="1280" y="1792" on="1"/>
        <pt x="1280" y="1536" on="1"/>
      </contour>
      <contour>
        <pt x="768" y="1536" on="1"/>
        <pt x="512" y="1536" on="1"/>
        <pt x="256" y="1536" on="1"/>
        <pt x="256" y="1792" on="1"/>
        <pt x="512" y="1792" on="1"/>
        <pt x="768" y="1792" on="1"/>
      </contour>
    </TTGlyph>
    <TTGlyph name="asterisk" xMin="0" yMin="512" xMax="1280" yMax="1792">
      <contour>
        <pt x="1024" y="512" on="1"/>
        <pt x="1024" y="768" on="1"/>
        <pt x="1280" y="768" on="1"/>
        <pt x="1280" y="512" on="1"/>
      </contour>
      <contour>
        <pt x="0" y="512" on="1"/>
        <pt x="0" y="768" on="1"/>
        <pt x="256" y="768" on="1"/>
        <pt x="256" y="512" on="1"/>
      </contour>
      <contour>
        <pt x="768" y="1024" on="1"/>
        <pt x="768" y="1280" on="1"/>
        <pt x="1024" y="1280" on="1"/>
        <pt x="1024" y="1024" on="1"/>
      </contour>
      <contour>
        <pt x="256" y="1024" on="1"/>
        <pt x="256" y="1280" on="1"/>
        <pt x="512" y="1280" on="1"/>
        <pt x="512" y="1024" on="1"/>
      </contour>
      <contour>
        <pt x="512" y="1536" on="1"/>
        <pt x="512" y="1792" on="1"/>
        <pt x="768" y="1792" on="1"/>
        <pt x="768" y="1536" on="1"/>
      </contour>
      <contour>
        <pt x="1024" y="1280" on="1"/>
        <pt x="1024" y="1536" on="1"/>
        <pt x="1280" y="1536" on="1"/>
        <pt x="1280" y="1280" on="1"/>
      </contour>
      <contour>
        <pt x="256" y="1280" on="1"/>
        <pt x="0" y="1280" on="1"/>
        <pt x="0" y="1536" on="1"/>
        <pt x="256" y="1536" on="1"/>
      </contour>
    </TTGlyph>
    <TTGlyph name="at" xMin="0" yMin="-256" xMax="1536" yMax="1536">
      <contour>
        <pt x="512" y="256" on="1"/>
        <pt x="512" y="512" on="1"/>
        <pt x="768" y="512" on="1"/>
        <pt x="768" y="256" on="1"/>
      </contour>
      <contour>
        <pt x="1280" y="1024" on="1"/>
        <pt x="1280" y="1280" on="1"/>
        <pt x="1536" y="1280" on="1"/>
        <pt x="1536" y="1024" on="1"/>
      </contour>
      <contour>
        <pt x="0" y="1024" on="1"/>
        <pt x="0" y="1280" on="1"/>
        <pt x="256" y="1280" on="1"/>
        <pt x="256" y="1024" on="1"/>
      </contour>
      <contour>
        <pt x="1024" y="0" on="1"/>
        <pt x="1280" y="0" on="1"/>
        <pt x="1280" y="-256" on="1"/>
        <pt x="1024" y="-256" on="1"/>
        <pt x="768" y="-256" on="1"/>
        <pt x="512" y="-256" on="1"/>
        <pt x="512" y="0" on="1"/>
        <pt x="768" y="0" on="1"/>
      </contour>
      <contour>
        <pt x="768" y="1024" on="1"/>
        <pt x="1024" y="1024" on="1"/>
        <pt x="1024" y="768" on="1"/>
        <pt x="768" y="768" on="1"/>
        <pt x="512" y="768" on="1"/>
        <pt x="512" y="1024" on="1"/>
      </contour>
      <contour>
        <pt x="1280" y="1280" on="1"/>
        <pt x="1024" y="1280" on="1"/>
        <pt x="768" y="1280" on="1"/>
        <pt x="512" y="1280" on="1"/>
        <pt x="256" y="1280" on="1"/>
        <pt x="256" y="1536" on="1"/>
        <pt x="512" y="1536" on="1"/>
        <pt x="768" y="1536" on="1"/>
        <pt x="1024" y="1536" on="1"/>
        <pt x="1280" y="1536" on="1"/>
      </contour>
    </TTGlyph>
    <TTGlyph name="atilde" xMin="0" yMin="0" xMax="1280" yMax="1792">
      <contour>
        <pt x="512" y="0" on="1"/>
        <pt x="512" y="256" on="1"/>
        <pt x="768" y="256" on="1"/>
        <pt x="768" y="0" on="1"/>
      </contour>
      <contour>
        <pt x="0" y="256" on="1"/>
        <pt x="0" y="512" on="1"/>
        <pt x="256" y="512" on="1"/>
        <pt x="256" y="256" on="1"/>
      </contour>
      <contour>
        <pt x="1024" y="768" on="1"/>
        <pt x="1024" y="1024" on="1"/>
        <pt x="1280" y="1024" on="1"/>
        <pt x="1280" y="768" on="1"/>
      </contour>
      <contour>
        <pt x="256" y="1024" on="1"/>
        <pt x="256" y="1280" on="1"/>
        <pt x="512" y="1280" on="1"/>
        <pt x="512" y="1024" on="1"/>
      </contour>
      <contour>
        <pt x="768" y="1280" on="1"/>
        <pt x="768" y="1536" on="1"/>
        <pt x="1024" y="1536" on="1"/>
        <pt x="1024" y="1280" on="1"/>
      </contour>
      <contour>
        <pt x="512" y="768" on="1"/>
        <pt x="768" y="768" on="1"/>
        <pt x="768" y="512" on="1"/>
        <pt x="512" y="512" on="1"/>
        <pt x="256" y="512" on="1"/>
        <pt x="256" y="768" on="1"/>
      </contour>
      <contour>
        <pt x="256" y="1280" on="1"/>
        <pt x="0" y="1280" on="1"/>
        <pt x="0" y="1536" on="1"/>
        <pt x="256" y="1536" on="1"/>
      </contour>
      <contour>
        <pt x="1024" y="1536" on="1"/>
        <pt x="1024" y="1792" on="1"/>
        <pt x="1280" y="1792" on="1"/>
        <pt x="1280" y="1536" on="1"/>
      </contour>
      <contour>
        <pt x="768" y="1536" on="1"/>
        <pt x="512" y="1536" on="1"/>
        <pt x="256" y="1536" on="1"/>
        <pt x="256" y="1792" on="1"/>
        <pt x="512" y="1792" on="1"/>
        <pt x="768" y="1792" on="1"/>
      </contour>
    </TTGlyph>
    <TTGlyph name="b" xMin="0" yMin="0" xMax="1280" yMax="1792">
      <contour>
        <pt x="512" y="0" on="1"/>
        <pt x="512" y="256" on="1"/>
        <pt x="768" y="256" on="1"/>
        <pt x="768" y="0" on="1"/>
      </contour>
      <contour>
        <pt x="1024" y="768" on="1"/>
        <pt x="1024" y="1024" on="1"/>
        <pt x="1280" y="1024" on="1"/>
        <pt x="1280" y="768" on="1"/>
      </contour>
      <contour>
        <pt x="1024" y="1024" on="1"/>
        <pt x="768" y="1024" on="1"/>
        <pt x="512" y="1024" on="1"/>
        <pt x="512" y="1280" on="1"/>
        <pt x="768" y="1280" on="1"/>
        <pt x="1024" y="1280" on="1"/>
      </contour>
      <contour>
        <pt x="256" y="1792" on="1"/>
        <pt x="512" y="1792" on="1"/>
        <pt x="512" y="1536" on="1"/>
        <pt x="256" y="1536" on="1"/>
        <pt x="0" y="1536" on="1"/>
        <pt x="0" y="1792" on="1"/>
      </contour>
    </TTGlyph>
    <TTGlyph name="backslash" xMin="0" yMin="512" xMax="768" yMax="1792">
      <contour>
        <pt x="512" y="512" on="1"/>
        <pt x="512" y="768" on="1"/>
        <pt x="768" y="768" on="1"/>
        <pt x="768" y="512" on="1"/>
      </contour>
      <contour>
        <pt x="256" y="1024" on="1"/>
        <pt x="256" y="1280" on="1"/>
        <pt x="512" y="1280" on="1"/>
        <pt x="512" y="1024" on="1"/>
      </contour>
      <contour>
        <pt x="0" y="1536" on="1"/>
        <pt x="0" y="1792" on="1"/>
        <pt x="256" y="1792" on="1"/>
        <pt x="256" y="1536" on="1"/>
      </contour>
    </TTGlyph>
    <TTGlyph name="bar" xMin="0" yMin="1536" xMax="512" yMax="1792">
      <contour>
        <pt x="256" y="1792" on="1"/>
        <pt x="512" y="1792" on="1"/>
        <pt x="512" y="1536" on="1"/>
        <pt x="256" y="1536" on="1"/>
        <pt x="0" y="1536" on="1"/>
        <pt x="0" y="1792" on="1"/>
      </contour>
    </TTGlyph>
    <TTGlyph name="braceleft" xMin="0" yMin="-256" xMax="768" yMax="1792">
      <contour>
        <pt x="512" y="-256" on="1"/>
        <pt x="512" y="0" on="1"/>
        <pt x="768" y="0" on="1"/>
        <pt x="768" y="-256" on="1"/>
      </contour>
      <contour>
        <pt x="512" y="1792" on="1"/>
        <pt x="768" y="1792" on="1"/>
        <pt x="768" y="1536" on="1"/>
        <pt x="512" y="1536" on="1"/>
        <pt x="256" y="1536" on="1"/>
        <pt x="0" y="1536" on="1"/>
        <pt x="0" y="1792" on="1"/>
        <pt x="256" y="1792" on="1"/>
      </contour>
    </TTGlyph>
    <TTGlyph name="braceright" xMin="0" yMin="-256" xMax="768" yMax="1792">
      <contour>
        <pt x="0" y="-256" on="1"/>
        <pt x="0" y="0" on="1"/>
        <pt x="256" y="0" on="1"/>
        <pt x="256" y="-256" on="1"/>
      </contour>
      <contour>
        <pt x="512" y="1792" on="1"/>
        <pt x="768" y="1792" on="1"/>
        <pt x="768" y="1536" on="1"/>
        <pt x="512" y="1536" on="1"/>
        <pt x="256" y="1536" on="1"/>
        <pt x="0" y="1536" on="1"/>
        <pt x="0" y="1792" on="1"/>
        <pt x="256" y="1792" on="1"/>
      </contour>
    </TTGlyph>
    <TTGlyph name="bracketleft" xMin="0" yMin="-256" xMax="768" yMax="1792">
      <contour>
        <pt x="512" y="-256" on="1"/>
        <pt x="512" y="0" on="1"/>
        <pt x="768" y="0" on="1"/>
        <pt x="768" y="-256" on="1"/>
      </contour>
      <contour>
        <pt x="512" y="1792" on="1"/>
        <pt x="768" y="1792" on="1"/>
        <pt x="768" y="1536" on="1"/>
        <pt x="512" y="1536" on="1"/>
        <pt x="256" y="1536" on="1"/>
        <pt x="0" y="1536" on="1"/>
        <pt x="0" y="1792" on="1"/>
        <pt x="256" y="1792" on="1"/>
      </contour>
    </TTGlyph>
    <TTGlyph name="bracketright" xMin="0" yMin="-256" xMax="768" yMax="1792">
      <contour>
        <pt x="0" y="-256" on="1"/>
        <pt x="0" y="0" on="1"/>
        <pt x="256" y="0" on="1"/>
        <pt x="256" y="-256" on="1"/>
      </contour>
      <contour>
        <pt x="512" y="1792" on="1"/>
        <pt x="768" y="1792" on="1"/>
        <pt x="768" y="1536" on="1"/>
        <pt x="512" y="1536" on="1"/>
        <pt x="256" y="1536" on="1"/>
        <pt x="0" y="1536" on="1"/>
        <pt x="0" y="1792" on="1"/>
        <pt x="256" y="1792" on="1"/>
      </contour>
    </TTGlyph>
    <TTGlyph name="brokenbar" xMin="0" yMin="1536" xMax="512" yMax="1792">
      <contour>
        <pt x="256" y="1792" on="1"/>
        <pt x="512" y="1792" on="1"/>
        <pt x="512" y="1536" on="1"/>
        <pt x="256" y="1536" on="1"/>
        <pt x="0" y="1536" on="1"/>
        <pt x="0" y="1792" on="1"/>
      </contour>
    </TTGlyph>
    <TTGlyph name="c" xMin="0" yMin="0" xMax="1024" yMax="1280">
      <contour>
        <pt x="0" y="768" on="1"/>
        <pt x="0" y="1024" on="1"/>
        <pt x="256" y="1024" on="1"/>
        <pt x="256" y="768" on="1"/>
      </contour>
      <contour>
        <pt x="768" y="256" on="1"/>
        <pt x="1024" y="256" on="1"/>
        <pt x="1024" y="0" on="1"/>
        <pt x="768" y="0" on="1"/>
        <pt x="512" y="0" on="1"/>
        <pt x="512" y="256" on="1"/>
      </contour>
      <contour>
        <pt x="768" y="1280" on="1"/>
        <pt x="1024" y="1280" on="1"/>
        <pt x="1024" y="1024" on="1"/>
        <pt x="768" y="1024" on="1"/>
        <pt x="512" y="1024" on="1"/>
        <pt x="256" y="1024" on="1"/>
        <pt x="256" y="1280" on="1"/>
        <pt x="512" y="1280" on="1"/>
      </contour>
    </TTGlyph>
    <TTGlyph name="ccedilla" xMin="0" yMin="0" xMax="1024" yMax="1280">
      <contour>
        <pt x="0" y="768" on="1"/>
        <pt x="0" y="1024" on="1"/>
        <pt x="256" y="1024" on="1"/>
        <pt x="256" y="768" on="1"/>
      </contour>
      <contour>
        <pt x="768" y="256" on="1"/>
        <pt x="1024" y="256" on="1"/>
        <pt x="1024" y="0" on="1"/>
        <pt x="768" y="0" on="1"/>
        <pt x="512" y="0" on="1"/>
        <pt x="512" y="256" on="1"/>
      </contour>
      <contour>
        <pt x="768" y="1280" on="1"/>
        <pt x="1024" y="1280" on="1"/>
        <pt x="1024" y="1024" on="1"/>
        <pt x="768" y="1024" on="1"/>
        <pt x="512" y="1024" on="1"/>
        <pt x="256" y="1024" on="1"/>
        <pt x="256" y="1280" on="1"/>
        <pt x="512" y="1280" on="1"/>
      </contour>
    </TTGlyph>
    <TTGlyph name="circumflex" xMin="0" yMin="1280" xMax="768" yMax="1792">
      <contour>
        <pt x="512" y="1280" on="1"/>
        <pt x="512" y="1536" on="1"/>
        <pt x="768" y="1536" on="1"/>
        <pt x="768" y="1280" on="1"/>
      </contour>
      <contour>
        <pt x="0" y="1280" on="1"/>
        <pt x="0" y="1536" on="1"/>
        <pt x="256" y="1536" on="1"/>
        <pt x="256" y="1280" on="1"/>
      </contour>
      <contour>
        <pt x="256" y="1536" on="1"/>
        <pt x="256" y="1792" on="1"/>
        <pt x="512" y="1792" on="1"/>
        <pt x="512" y="1536" on="1"/>
      </contour>
    </TTGlyph>
    <TTGlyph name="colon" xMin="0" yMin="256" xMax="512" yMax="1280">
      <contour>
        <pt x="256" y="512" on="1"/>
        <pt x="512" y="512" on="1"/>
        <pt x="512" y="256" on="1"/>
        <pt x="256" y="256" on="1"/>
        <pt x="0" y="256" on="1"/>
        <pt x="0" y="512" on="1"/>
      </contour>
      <contour>
        <pt x="256" y="1280" on="1"/>
        <pt x="512" y="1280" on="1"/>
        <pt x="512" y="1024" on="1"/>
        <pt x="256" y="1024" on="1"/>
        <pt x="0" y="1024" on="1"/>
        <pt x="0" y="1280" on="1"/>
      </contour>
    </TTGlyph>
    <TTGlyph name="comma" xMin="0" yMin="0" xMax="512" yMax="512">
      <contour>
        <pt x="0" y="0" on="1"/>
        <pt x="0" y="256" on="1"/>
        <pt x="256" y="256" on="1"/>
        <pt x="256" y="0" on="1"/>
      </contour>
      <contour>
        <pt x="256" y="256" on="1"/>
        <pt x="256" y="512" on="1"/>
        <pt x="512" y="512" on="1"/>
        <pt x="512" y="256" on="1"/>
      </contour>
    </TTGlyph>
    <TTGlyph name="currency" xMin="0" yMin="0" xMax="1280" yMax="1536">
      <contour>
        <pt x="1024" y="0" on="1"/>
        <pt x="1024" y="256" on="1"/>
        <pt x="1280" y="256" on="1"/>
        <pt x="1280" y="0" on="1"/>
      </contour>
      <contour>
        <pt x="0" y="0" on="1"/>
        <pt x="0" y="256" on="1"/>
        <pt x="256" y="256" on="1"/>
        <pt x="256" y="0" on="1"/>
      </contour>
      <contour>
        <pt x="512" y="256" on="1"/>
        <pt x="512" y="512" on="1"/>
        <pt x="768" y="512" on="1"/>
        <pt x="768" y="256" on="1"/>
      </contour>
      <contour>
        <pt x="1024" y="768" on="1"/>
        <pt x="1024" y="1024" on="1"/>
        <pt x="1280" y="1024" on="1"/>
        <pt x="1280" y="768" on="1"/>
      </contour>
      <contour>
        <pt x="0" y="768" on="1"/>
        <pt x="0" y="1024" on="1"/>
        <pt x="256" y="1024" on="1"/>
        <pt x="256" y="768" on="1"/>
      </contour>
      <contour>
        <pt x="1024" y="1024" on="1"/>
        <pt x="768" y="1024" on="1"/>
        <pt x="512" y="1024" on="1"/>
        <pt x="256" y="1024" on="1"/>
        <pt x="256" y="1280" on="1"/>
        <pt x="512" y="1280" on="1"/>
        <pt x="768" y="1280" on="1"/>
        <pt x="1024" y="1280" on="1"/>
      </contour>
      <contour>
        <pt x="1024" y="1280" on="1"/>
        <pt x="1024" y="1536" on="1"/>
        <pt x="1280" y="1536" on="1"/>
        <pt x="1280" y="1280" on="1"/>
      </contour>
      <contour>
        <pt x="256" y="1280" on="1"/>
        <pt x="0" y="1280" on="1"/>
        <pt x="0" y="1536" on="1"/>
        <pt x="256" y="1536" on="1"/>
      </contour>
    </TTGlyph>
    <TTGlyph name="d" xMin="0" yMin="0" xMax="1280" yMax="1792">
      <contour>
        <pt x="512" y="0" on="1"/>
        <pt x="512" y="256" on="1"/>
        <pt x="768" y="256" on="1"/>
        <pt x="768" y="0" on="1"/>
      </contour>
      <contour>
        <pt x="0" y="768" on="1"/>
        <pt x="0" y="1024" on="1"/>
        <pt x="256" y="1024" on="1"/>
        <pt x="256" y="768" on="1"/>
      </contour>
      <contour>
        <pt x="512" y="1280" on="1"/>
        <pt x="768" y="1280" on="1"/>
        <pt x="768" y="1024" on="1"/>
        <pt x="512" y="1024" on="1"/>
        <pt x="256" y="1024" on="1"/>
        <pt x="256" y="1280" on="1"/>
      </contour>
      <contour>
        <pt x="1024" y="1792" on="1"/>
        <pt x="1280" y="1792" on="1"/>
        <pt x="1280" y="1536" on="1"/>
        <pt x="1024" y="1536" on="1"/>
        <pt x="768" y="1536" on="1"/>
        <pt x="768" y="1792" on="1"/>
      </contour>
    </TTGlyph>
    <TTGlyph name="dollar" xMin="0" yMin="0" xMax="1280" yMax="1792">
      <contour>
        <pt x="512" y="0" on="1"/>
        <pt x="512" y="256" on="1"/>
        <pt x="768" y="256" on="1"/>
        <pt x="768" y="0" on="1"/>
      </contour>
      <contour>
        <pt x="0" y="0" on="1"/>
        <pt x="0" y="256" on="1"/>
        <pt x="256" y="256" on="1"/>
        <pt x="256" y="0" on="1"/>
      </contour>
      <contour>
        <pt x="1024" y="512" on="1"/>
        <pt x="1024" y="768" on="1"/>
        <pt x="1280" y="768" on="1"/>
        <pt x="1280" y="512" on="1"/>
      </contour>
      <contour>
        <pt x="512" y="768" on="1"/>
        <pt x="512" y="1024" on="1"/>
        <pt x="768" y="1024" on="1"/>
        <pt x="768" y="768" on="1"/>
      </contour>
      <contour>
        <pt x="0" y="1024" on="1"/>
        <pt x="0" y="1280" on="1"/>
        <pt x="256" y="1280" on="1"/>
        <pt x="256" y="1024" on="1"/>
      </contour>
      <contour>
        <pt x="1024" y="1280" on="1"/>
        <pt x="1024" y="1536" on="1"/>
        <pt x="1280" y="1536" on="1"/>
        <pt x="1280" y="1280" on="1"/>
      </contour>
      <contour>
        <pt x="512" y="1280" on="1"/>
        <pt x="512" y="1536" on="1"/>
        <pt x="768" y="1536" on="1"/>
        <pt x="768" y="1280" on="1"/>
      </contour>
      <contour>
        <pt x="768" y="1536" on="1"/>
        <pt x="768" y="1792" on="1"/>
        <pt x="1024" y="1792" on="1"/>
        <pt x="1024" y="1536" on="1"/>
      </contour>
      <contour>
        <pt x="512" y="1536" on="1"/>
        <pt x="256" y="1536" on="1"/>
        <pt x="256" y="1792" on="1"/>
        <pt x="512" y="1792" on="1"/>
      </contour>
    </TTGlyph>
    <TTGlyph name="e" xMin="0" yMin="0" xMax="1280" yMax="1280">
      <contour>
        <pt x="512" y="512" on="1"/>
        <pt x="512" y="768" on="1"/>
        <pt x="768" y="768" on="1"/>
        <pt x="768" y="512" on="1"/>
      </contour>
      <contour>
        <pt x="1024" y="768" on="1"/>
        <pt x="1024" y="1024" on="1"/>
        <pt x="1280" y="1024" on="1"/>
        <pt x="1280" y="768" on="1"/>
      </contour>
      <contour>
        <pt x="0" y="768" on="1"/>
        <pt x="0" y="1024" on="1"/>
        <pt x="256" y="1024" on="1"/>
        <pt x="256" y="768" on="1"/>
      </contour>
      <contour>
        <pt x="1024" y="256" on="1"/>
        <pt x="1280" y="256" on="1"/>
        <pt x="1280" y="0" on="1"/>
        <pt x="1024" y="0" on="1"/>
        <pt x="768" y="0" on="1"/>
        <pt x="512" y="0" on="1"/>
        <pt x="512" y="256" on="1"/>
        <pt x="768" y="256" on="1"/>
      </contour>
      <contour>
        <pt x="1024" y="1024" on="1"/>
        <pt x="768" y="1024" on="1"/>
        <pt x="512" y="1024" on="1"/>
        <pt x="256" y="1024" on="1"/>
        <pt x="256" y="1280" on="1"/>
        <pt x="512" y="1280" on="1"/>
        <pt x="768" y="1280" on="1"/>
        <pt x="1024" y="1280" on="1"/>
      </contour>
    </TTGlyph>
    <TTGlyph name="eacute" xMin="0" yMin="0" xMax="1280" yMax="1792">
      <contour>
        <pt x="512" y="512" on="1"/>
        <pt x="512" y="768" on="1"/>
        <pt x="768" y="768" on="1"/>
        <pt x="768" y="512" on="1"/>
      </contour>
      <contour>
        <pt x="1024" y="768" on="1"/>
        <pt x="1024" y="1024" on="1"/>
        <pt x="1280" y="1024" on="1"/>
        <pt x="1280" y="768" on="1"/>
      </contour>
      <contour>
        <pt x="0" y="768" on="1"/>
        <pt x="0" y="1024" on="1"/>
        <pt x="256" y="1024" on="1"/>
        <pt x="256" y="768" on="1"/>
      </contour>
      <contour>
        <pt x="1024" y="256" on="1"/>
        <pt x="1280" y="256" on="1"/>
        <pt x="1280" y="0" on="1"/>
        <pt x="1024" y="0" on="1"/>
        <pt x="768" y="0" on="1"/>
        <pt x="512" y="0" on="1"/>
        <pt x="512" y="256" on="1"/>
        <pt x="768" y="256" on="1"/>
      </contour>
      <contour>
        <pt x="1024" y="1024" on="1"/>
        <pt x="768" y="1024" on="1"/>
        <pt x="768" y="1280" on="1"/>
        <pt x="1024" y="1280" on="1"/>
      </contour>
      <contour>
        <pt x="256" y="1024" on="1"/>
        <pt x="256" y="1280" on="1"/>
        <pt x="512" y="1280" on="1"/>
        <pt x="512" y="1024" on="1"/>
      </contour>
      <contour>
        <pt x="512" y="1280" on="1"/>
        <pt x="512" y="1536" on="1"/>
        <pt x="768" y="1536" on="1"/>
        <pt x="768" y="1280" on="1"/>
      </contour>
      <contour>
        <pt x="768" y="1536" on="1"/>
        <pt x="768" y="1792" on="1"/>
        <pt x="1024" y="1792" on="1"/>
        <pt x="1024" y="1536" on="1"/>
      </contour>
    </TTGlyph>
    <TTGlyph name="ecircumflex" xMin="0" yMin="0" xMax="1280" yMax="1792">
      <contour>
        <pt x="512" y="512" on="1"/>
        <pt x="512" y="768" on="1"/>
        <pt x="768" y="768" on="1"/>
        <pt x="768" y="512" on="1"/>
      </contour>
      <contour>
        <pt x="1024" y="1024" on="1"/>
        <pt x="1024" y="1280" on="1"/>
        <pt x="1280" y="1280" on="1"/>
        <pt x="1280" y="1024" on="1"/>
      </contour>
      <contour>
        <pt x="512" y="1024" on="1"/>
        <pt x="512" y="1280" on="1"/>
        <pt x="768" y="1280" on="1"/>
        <pt x="768" y="1024" on="1"/>
      </contour>
      <contour>
        <pt x="0" y="1024" on="1"/>
        <pt x="0" y="1280" on="1"/>
        <pt x="256" y="1280" on="1"/>
        <pt x="256" y="1024" on="1"/>
      </contour>
      <contour>
        <pt x="1024" y="256" on="1"/>
        <pt x="1280" y="256" on="1"/>
        <pt x="1280" y="0" on="1"/>
        <pt x="1024" y="0" on="1"/>
        <pt x="768" y="0" on="1"/>
        <pt x="512" y="0" on="1"/>
        <pt x="512" y="256" on="1"/>
        <pt x="768" y="256" on="1"/>
      </contour>
      <contour>
        <pt x="768" y="1280" on="1"/>
        <pt x="768" y="1536" on="1"/>
        <pt x="1024" y="1536" on="1"/>
        <pt x="1024" y="1280" on="1"/>
      </contour>
      <contour>
        <pt x="256" y="1280" on="1"/>
        <pt x="256" y="1536" on="1"/>
        <pt x="512" y="1536" on="1"/>
        <pt x="512" y="1280" on="1"/>
      </contour>
      <contour>
        <pt x="512" y="1536" on="1"/>
        <pt x="512" y="1792" on="1"/>
        <pt x="768" y="1792" on="1"/>
        <pt x="768" y="1536" on="1"/>
      </contour>
    </TTGlyph>
    <TTGlyph name="edieresis" xMin="0" yMin="0" xMax="1280" yMax="1792">
      <contour>
        <pt x="512" y="512" on="1"/>
        <pt x="512" y="768" on="1"/>
        <pt x="768" y="768" on="1"/>
        <pt x="768" y="512" on="1"/>
      </contour>
      <contour>
        <pt x="1024" y="768" on="1"/>
        <pt x="1024" y="1024" on="1"/>
        <pt x="1280" y="1024" on="1"/>
        <pt x="1280" y="768" on="1"/>
      </contour>
      <contour>
        <pt x="0" y="768" on="1"/>
        <pt x="0" y="1024" on="1"/>
        <pt x="256" y="1024" on="1"/>
        <pt x="256" y="768" on="1"/>
      </contour>
      <contour>
        <pt x="768" y="1536" on="1"/>
        <pt x="768" y="1792" on="1"/>
        <pt x="1024" y="1792" on="1"/>
        <pt x="1024" y="1536" on="1"/>
      </contour>
      <contour>
        <pt x="256" y="1536" on="1"/>
        <pt x="256" y="1792" on="1"/>
        <pt x="512" y="1792" on="1"/>
        <pt x="512" y="1536" on="1"/>
      </contour>
      <contour>
        <pt x="1024" y="256" on="1"/>
        <pt x="1280" y="256" on="1"/>
        <pt x="1280" y="0" on="1"/>
        <pt x="1024" y="0" on="1"/>
        <pt x="768" y="0" on="1"/>
        <pt x="512" y="0" on="1"/>
        <pt x="512" y="256" on="1"/>
        <pt x="768" y="256" on="1"/>
      </contour>
      <contour>
        <pt x="1024" y="1024" on="1"/>
        <pt x="768" y="1024" on="1"/>
        <pt x="512" y="1024" on="1"/>
        <pt x="256" y="1024" on="1"/>
        <pt x="256" y="1280" on="1"/>
        <pt x="512" y="1280" on="1"/>
        <pt x="768" y="1280" on="1"/>
        <pt x="1024" y="1280" on="1"/>
      </contour>
    </TTGlyph>
    <TTGlyph name="egrave" xMin="0" yMin="0" xMax="1280" yMax="1792">
      <contour>
        <pt x="512" y="512" on="1"/>
        <pt x="512" y="768" on="1"/>
        <pt x="768" y="768" on="1"/>
        <pt x="768" y="512" on="1"/>
      </contour>
      <contour>
        <pt x="1024" y="768" on="1"/>
        <pt x="1024" y="1024" on="1"/>
        <pt x="1280" y="1024" on="1"/>
        <pt x="1280" y="768" on="1"/>
      </contour>
      <contour>
        <pt x="0" y="768" on="1"/>
        <pt x="0" y="1024" on="1"/>
        <pt x="256" y="1024" on="1"/>
        <pt x="256" y="768" on="1"/>
      </contour>
      <contour>
        <pt x="1024" y="256" on="1"/>
        <pt x="1280" y="256" on="1"/>
        <pt x="1280" y="0" on="1"/>
        <pt x="1024" y="0" on="1"/>
        <pt x="768" y="0" on="1"/>
        <pt x="512" y="0" on="1"/>
        <pt x="512" y="256" on="1"/>
        <pt x="768" y="256" on="1"/>
      </contour>
      <contour>
        <pt x="1024" y="1024" on="1"/>
        <pt x="768" y="1024" on="1"/>
        <pt x="768" y="1280" on="1"/>
        <pt x="1024" y="1280" on="1"/>
      </contour>
      <contour>
        <pt x="256" y="1024" on="1"/>
        <pt x="256" y="1280" on="1"/>
        <pt x="512" y="1280" on="1"/>
        <pt x="512" y="1024" on="1"/>
      </contour>
      <contour>
        <pt x="512" y="1280" on="1"/>
        <pt x="512" y="1536" on="1"/>
        <pt x="768" y="1536" on="1"/>
        <pt x="768" y="1280" on="1"/>
      </contour>
      <contour>
        <pt x="512" y="1536" on="1"/>
        <pt x="256" y="1536" on="1"/>
        <pt x="256" y="1792" on="1"/>
        <pt x="512" y="1792" on="1"/>
      </contour>
    </TTGlyph>
    <TTGlyph name="eight" xMin="0" yMin="0" xMax="1280" yMax="1792">
      <contour>
        <pt x="512" y="0" on="1"/>
        <pt x="512" y="256" on="1"/>
        <pt x="768" y="256" on="1"/>
        <pt x="768" y="0" on="1"/>
      </contour>
      <contour>
        <pt x="1024" y="512" on="1"/>
        <pt x="1024" y="768" on="1"/>
        <pt x="1280" y="768" on="1"/>
        <pt x="1280" y="512" on="1"/>
      </contour>
      <contour>
        <pt x="0" y="512" on="1"/>
        <pt x="0" y="768" on="1"/>
        <pt x="256" y="768" on="1"/>
        <pt x="256" y="512" on="1"/>
      </contour>
      <contour>
        <pt x="512" y="768" on="1"/>
        <pt x="512" y="1024" on="1"/>
        <pt x="768" y="1024" on="1"/>
        <pt x="768" y="768" on="1"/>
      </contour>
      <contour>
        <pt x="1024" y="1280" on="1"/>
        <pt x="1024" y="1536" on="1"/>
        <pt x="1280" y="1536" on="1"/>
        <pt x="1280" y="1280" on="1"/>
      </contour>
      <contour>
        <pt x="0" y="1280" on="1"/>
        <pt x="0" y="1536" on="1"/>
        <pt x="256" y="1536" on="1"/>
        <pt x="256" y="1280" on="1"/>
      </contour>
      <contour>
        <pt x="1024" y="1536" on="1"/>
        <pt x="768" y="1536" on="1"/>
        <pt x="512" y="1536" on="1"/>
        <pt x="256" y="1536" on="1"/>
        <pt x="256" y="1792" on="1"/>
        <pt x="512" y="1792" on="1"/>
        <pt x="768" y="1792" on="1"/>
        <pt x="1024" y="1792" on="1"/>
      </contour>
    </TTGlyph>
    <TTGlyph name="equal" xMin="0" yMin="256" xMax="1024" yMax="1024">
      <contour>
        <pt x="768" y="512" on="1"/>
        <pt x="1024" y="512" on="1"/>
        <pt x="1024" y="256" on="1"/>
        <pt x="768" y="256" on="1"/>
        <pt x="512" y="256" on="1"/>
        <pt x="256" y="256" on="1"/>
        <pt x="0" y="256" on="1"/>
        <pt x="0" y="512" on="1"/>
        <pt x="256" y="512" on="1"/>
        <pt x="512" y="512" on="1"/>
      </contour>
      <contour>
        <pt x="768" y="1024" on="1"/>
        <pt x="1024" y="1024" on="1"/>
        <pt x="1024" y="768" on="1"/>
        <pt x="768" y="768" on="1"/>
        <pt x="512" y="768" on="1"/>
        <pt x="256" y="768" on="1"/>
        <pt x="0" y="768" on="1"/>
        <pt x="0" y="1024" on="1"/>
        <pt x="256" y="1024" on="1"/>
        <pt x="512" y="1024" on="1"/>
      </contour>
    </TTGlyph>
    <TTGlyph name="exclam" xMin="0" yMin="0" xMax="512" yMax="1792">
      <contour>
        <pt x="256" y="256" on="1"/>
        <pt x="512" y="256" on="1"/>
        <pt x="512" y="0" on="1"/>
        <pt x="256" y="0" on="1"/>
        <pt x="0" y="0" on="1"/>
        <pt x="0" y="256" on="1"/>
      </contour>
      <contour>
        <pt x="256" y="1792" on="1"/>
        <pt x="512" y="1792" on="1"/>
        <pt x="512" y="1536" on="1"/>
        <pt x="256" y="1536" on="1"/>
        <pt x="0" y="1536" on="1"/>
        <pt x="0" y="1792" on="1"/>
      </contour>
    </TTGlyph>
    <TTGlyph name="exclamdown" xMin="0" yMin="1024" xMax="512" yMax="1792">
      <contour>
        <pt x="256" y="1280" on="1"/>
        <pt x="512" y="1280" on="1"/>
        <pt x="512" y="1024" on="1"/>
        <pt x="256" y="1024" on="1"/>
        <pt x="0" y="1024" on="1"/>
        <pt x="0" y="1280" on="1"/>
      </contour>
      <contour>
        <pt x="256" y="1792" on="1"/>
        <pt x="512" y="1792" on="1"/>
        <pt x="512" y="1536" on="1"/>
        <pt x="256" y="1536" on="1"/>
        <pt x="0" y="1536" on="1"/>
        <pt x="0" y="1792" on="1"/>
      </contour>
    </TTGlyph>
    <TTGlyph name="f" xMin="0" yMin="1024" xMax="768" yMax="1792">
      <contour>
        <pt x="512" y="1024" on="1"/>
        <pt x="512" y="1280" on="1"/>
        <pt x="768" y="1280" on="1"/>
        <pt x="768" y="1024" on="1"/>
      </contour>
      <contour>
        <pt x="0" y="1280" on="1"/>
        <pt x="0" y="1536" on="1"/>
        <pt x="256" y="1536" on="1"/>
        <pt x="256" y="1280" on="1"/>
      </contour>
      <contour>
        <pt x="512" y="1792" on="1"/>
        <pt x="768" y="1792" on="1"/>
        <pt x="768" y="1536" on="1"/>
        <pt x="512" y="1536" on="1"/>
        <pt x="256" y="1536" on="1"/>
        <pt x="256" y="1792" on="1"/>
      </contour>
    </TTGlyph>
    <TTGlyph name="five" xMin="0" yMin="0" xMax="1280" yMax="1792">
      <contour>
        <pt x="1024" y="768" on="1"/>
        <pt x="1024" y="1024" on="1"/>
        <pt x="1280" y="1024" on="1"/>
        <pt x="1280" y="768" on="1"/>
      </contour>
      <contour>
        <pt x="512" y="256" on="1"/>
        <pt x="768" y="256" on="1"/>
        <pt x="768" y="0" on="1"/>
        <pt x="512" y="0" on="1"/>
        <pt x="256" y="0" on="1"/>
        <pt x="0" y="0" on="1"/>
        <pt x="0" y="256" on="1"/>
        <pt x="256" y="256" on="1"/>
      </contour>
      <contour>
        <pt x="1024" y="1024" on="1"/>
        <pt x="768" y="1024" on="1"/>
        <pt x="512" y="1024" on="1"/>
        <pt x="256" y="1024" on="1"/>
        <pt x="256" y="1280" on="1"/>
        <pt x="512" y="1280" on="1"/>
        <pt x="768" y="1280" on="1"/>
        <pt x="1024" y="1280" on="1"/>
      </contour>
      <contour>
        <pt x="768" y="1792" on="1"/>
        <pt x="1024" y="1792" on="1"/>
        <pt x="1024" y="1536" on="1"/>
        <pt x="768" y="1536" on="1"/>
        <pt x="512" y="1536" on="1"/>
        <pt x="256" y="1536" on="1"/>
        <pt x="0" y="1536" on="1"/>
        <pt x="0" y="1792" on="1"/>
        <pt x="256" y="1792" on="1"/>
        <pt x="512" y="1792" on="1"/>
      </contour>
    </TTGlyph>
    <TTGlyph name="four" xMin="0" yMin="512" xMax="1280" yMax="1792">
      <contour>
        <pt x="512" y="768" on="1"/>
        <pt x="768" y="768" on="1"/>
        <pt x="768" y="512" on="1"/>
        <pt x="512" y="512" on="1"/>
        <pt x="256" y="512" on="1"/>
        <pt x="256" y="768" on="1"/>
      </contour>
      <contour>
        <pt x="256" y="768" on="1"/>
        <pt x="0" y="768" on="1"/>
        <pt x="0" y="1024" on="1"/>
        <pt x="256" y="1024" on="1"/>
      </contour>
      <contour>
        <pt x="256" y="1024" on="1"/>
        <pt x="256" y="1280" on="1"/>
        <pt x="512" y="1280" on="1"/>
        <pt x="512" y="1024" on="1"/>
      </contour>
      <contour>
        <pt x="512" y="1280" on="1"/>
        <pt x="512" y="1536" on="1"/>
        <pt x="768" y="1536" on="1"/>
        <pt x="768" y="1280" on="1"/>
      </contour>
      <contour>
        <pt x="1024" y="1792" on="1"/>
        <pt x="1280" y="1792" on="1"/>
        <pt x="1280" y="1536" on="1"/>
        <pt x="1024" y="1536" on="1"/>
        <pt x="768" y="1536" on="1"/>
        <pt x="768" y="1792" on="1"/>
      </contour>
    </TTGlyph>
    <TTGlyph name="g" xMin="0" yMin="-256" xMax="1280" yMax="1280">
      <contour>
        <pt x="512" y="256" on="1"/>
        <pt x="512" y="512" on="1"/>
        <pt x="768" y="512" on="1"/>
        <pt x="768" y="256" on="1"/>
      </contour>
      <contour>
        <pt x="0" y="768" on="1"/>
        <pt x="0" y="1024" on="1"/>
        <pt x="256" y="1024" on="1"/>
        <pt x="256" y="768" on="1"/>
      </contour>
      <contour>
        <pt x="512" y="0" on="1"/>
        <pt x="768" y="0" on="1"/>
        <pt x="768" y="-256" on="1"/>
        <pt x="512" y="-256" on="1"/>
        <pt x="256" y="-256" on="1"/>
        <pt x="256" y="0" on="1"/>
      </contour>
      <contour>
        <pt x="1024" y="1280" on="1"/>
        <pt x="1280" y="1280" on="1"/>
        <pt x="1280" y="1024" on="1"/>
        <pt x="1024" y="1024" on="1"/>
        <pt x="768" y="1024" on="1"/>
        <pt x="512" y="1024" on="1"/>
        <pt x="256" y="1024" on="1"/>
        <pt x="256" y="1280" on="1"/>
        <pt x="512" y="1280" on="1"/>
        <pt x="768" y="1280" on="1"/>
      </contour>
    </TTGlyph>
    <TTGlyph name="gbreve" xMin="0" yMin="-256" xMax="1280" yMax="1792">
      <contour>
        <pt x="512" y="256" on="1"/>
        <pt x="512" y="512" on="1"/>
        <pt x="768" y="512" on="1"/>
        <pt x="768" y="256" on="1"/>
      </contour>
      <contour>
        <pt x="0" y="768" on="1"/>
        <pt x="0" y="1024" on="1"/>
        <pt x="256" y="1024" on="1"/>
        <pt x="256" y="768" on="1"/>
      </contour>
      <contour>
        <pt x="1024" y="1024" on="1"/>
        <pt x="1024" y="1280" on="1"/>
        <pt x="1280" y="1280" on="1"/>
        <pt x="1280" y="1024" on="1"/>
      </contour>
      <contour>
        <pt x="512" y="0" on="1"/>
        <pt x="768" y="0" on="1"/>
        <pt x="768" y="-256" on="1"/>
        <pt x="512" y="-256" on="1"/>
        <pt x="256" y="-256" on="1"/>
        <pt x="256" y="0" on="1"/>
      </contour>
      <contour>
        <pt x="1024" y="1280" on="1"/>
        <pt x="768" y="1280" on="1"/>
        <pt x="512" y="1280" on="1"/>
        <pt x="256" y="1280" on="1"/>
        <pt x="256" y="1536" on="1"/>
        <pt x="512" y="1536" on="1"/>
        <pt x="768" y="1536" on="1"/>
        <pt x="1024" y="1536" on="1"/>
      </contour>
      <contour>
        <pt x="1024" y="1536" on="1"/>
        <pt x="1024" y="1792" on="1"/>
        <pt x="1280" y="1792" on="1"/>
        <pt x="1280" y="1536" on="1"/>
      </contour>
      <contour>
        <pt x="256" y="1536" on="1"/>
        <pt x="0" y="1536" on="1"/>
        <pt x="0" y="1792" on="1"/>
        <pt x="256" y="1792" on="1"/>
      </contour>
    </TTGlyph>
    <TTGlyph name="germandbls" xMin="0" yMin="768" xMax="1280" yMax="1792">
      <contour>
        <pt x="1024" y="768" on="1"/>
        <pt x="1024" y="1024" on="1"/>
        <pt x="1280" y="1024" on="1"/>
        <pt x="1280" y="768" on="1"/>
      </contour>
      <contour>
        <pt x="512" y="1024" on="1"/>
        <pt x="512" y="1280" on="1"/>
        <pt x="768" y="1280" on="1"/>
        <pt x="768" y="1024" on="1"/>
      </contour>
      <contour>
        <pt x="1024" y="1280" on="1"/>
        <pt x="1024" y="1536" on="1"/>
        <pt x="1280" y="1536" on="1"/>
        <pt x="1280" y="1280" on="1"/>
      </contour>
      <contour>
        <pt x="0" y="1280" on="1"/>
        <pt x="0" y="1536" on="1"/>
        <pt x="256" y="1536" on="1"/>
        <pt x="256" y="1280" on="1"/>
      </contour>
      <contour>
        <pt x="1024" y="1536" on="1"/>
        <pt x="768" y="1536" on="1"/>
        <pt x="512" y="1536" on="1"/>
        <pt x="256" y="1536" on="1"/>
        <pt x="256" y="1792" on="1"/>
        <pt x="512" y="1792" on="1"/>
        <pt x="768" y="1792" on="1"/>
        <pt x="1024" y="1792" on="1"/>
      </contour>
    </TTGlyph>
    <TTGlyph name="grave" xMin="0" yMin="1280" xMax="512" yMax="1792">
      <contour>
        <pt x="256" y="1280" on="1"/>
        <pt x="256" y="1536" on="1"/>
        <pt x="512" y="1536" on="1"/>
        <pt x="512" y="1280" on="1"/>
      </contour>
      <contour>
        <pt x="256" y="1536" on="1"/>
        <pt x="0" y="1536" on="1"/>
        <pt x="0" y="1792" on="1"/>
        <pt x="256" y="1792" on="1"/>
      </contour>
    </TTGlyph>
    <TTGlyph name="greater" xMin="0" yMin="256" xMax="1024" yMax="1792">
      <contour>
        <pt x="0" y="256" on="1"/>
        <pt x="0" y="512" on="1"/>
        <pt x="256" y="512" on="1"/>
        <pt x="256" y="256" on="1"/>
      </contour>
      <contour>
        <pt x="768" y="768" on="1"/>
        <pt x="768" y="1024" on="1"/>
        <pt x="1024" y="1024" on="1"/>
        <pt x="1024" y="768" on="1"/>
      </contour>
      <contour>
        <pt x="256" y="512" on="1"/>
        <pt x="256" y="768" on="1"/>
        <pt x="512" y="768" on="1"/>
        <pt x="512" y="512" on="1"/>
      </contour>
      <contour>
        <pt x="768" y="1024" on="1"/>
        <pt x="512" y="1024" on="1"/>
        <pt x="512" y="1280" on="1"/>
        <pt x="768" y="1280" on="1"/>
      </contour>
      <contour>
        <pt x="512" y="1280" on="1"/>
        <pt x="256" y="1280" on="1"/>
        <pt x="256" y="1536" on="1"/>
        <pt x="512" y="1536" on="1"/>
      </contour>
      <contour>
        <pt x="256" y="1536" on="1"/>
        <pt x="0" y="1536" on="1"/>
        <pt x="0" y="1792" on="1"/>
        <pt x="256" y="1792" on="1"/>
      </contour>
    </TTGlyph>
    <TTGlyph name="h" xMin="0" yMin="768" xMax="1280" yMax="1792">
      <contour>
        <pt x="1024" y="768" on="1"/>
        <pt x="1024" y="1024" on="1"/>
        <pt x="1280" y="1024" on="1"/>
        <pt x="1280" y="768" on="1"/>
      </contour>
      <contour>
        <pt x="1024" y="1024" on="1"/>
        <pt x="768" y="1024" on="1"/>
        <pt x="512" y="1024" on="1"/>
        <pt x="512" y="1280" on="1"/>
        <pt x="768" y="1280" on="1"/>
        <pt x="1024" y="1280" on="1"/>
      </contour>
      <contour>
        <pt x="256" y="1792" on="1"/>
        <pt x="512" y="1792" on="1"/>
        <pt x="512" y="1536" on="1"/>
        <pt x="256" y="1536" on="1"/>
        <pt x="0" y="1536" on="1"/>
        <pt x="0" y="1792" on="1"/>
      </contour>
    </TTGlyph>
    <TTGlyph name="hyphen" xMin="0" yMin="768" xMax="1024" yMax="1024">
      <contour>
        <pt x="768" y="1024" on="1"/>
        <pt x="1024" y="1024" on="1"/>
        <pt x="1024" y="768" on="1"/>
        <pt x="768" y="768" on="1"/>
        <pt x="512" y="768" on="1"/>
        <pt x="256" y="768" on="1"/>
        <pt x="0" y="768" on="1"/>
        <pt x="0" y="1024" on="1"/>
        <pt x="256" y="1024" on="1"/>
        <pt x="512" y="1024" on="1"/>
      </contour>
    </TTGlyph>
    <TTGlyph name="i" xMin="0" yMin="1024" xMax="512" yMax="1792">
      <contour>
        <pt x="256" y="1280" on="1"/>
        <pt x="512" y="1280" on="1"/>
        <pt x="512" y="1024" on="1"/>
        <pt x="256" y="1024" on="1"/>
        <pt x="0" y="1024" on="1"/>
        <pt x="0" y="1280" on="1"/>
      </contour>
      <contour>
        <pt x="256" y="1792" on="1"/>
        <pt x="512" y="1792" on="1"/>
        <pt x="512" y="1536" on="1"/>
        <pt x="256" y="1536" on="1"/>
        <pt x="0" y="1536" on="1"/>
        <pt x="0" y="1792" on="1"/>
      </contour>
    </TTGlyph>
    <TTGlyph name="iacute" xMin="0" yMin="1024" xMax="512" yMax="1792">
      <contour>
        <pt x="256" y="1024" on="1"/>
        <pt x="256" y="1280" on="1"/>
        <pt x="512" y="1280" on="1"/>
        <pt x="512" y="1024" on="1"/>
      </contour>
      <contour>
        <pt x="256" y="1280" on="1"/>
        <pt x="0" y="1280" on="1"/>
        <pt x="0" y="1536" on="1"/>
        <pt x="256" y="1536" on="1"/>
      </contour>
      <contour>
        <pt x="256" y="1536" on="1"/>
        <pt x="256" y="1792" on="1"/>
        <pt x="512" y="1792" on="1"/>
        <pt x="512" y="1536" on="1"/>
      </contour>
    </TTGlyph>
    <TTGlyph name="icircumflex" xMin="0" yMin="1024" xMax="768" yMax="1792">
      <contour>
        <pt x="256" y="1024" on="1"/>
        <pt x="256" y="1280" on="1"/>
        <pt x="512" y="1280" on="1"/>
        <pt x="512" y="1024" on="1"/>
      </contour>
      <contour>
        <pt x="512" y="1280" on="1"/>
        <pt x="512" y="1536" on="1"/>
        <pt x="768" y="1536" on="1"/>
        <pt x="768" y="1280" on="1"/>
      </contour>
      <contour>
        <pt x="256" y="1280" on="1"/>
        <pt x="0" y="1280" on="1"/>
        <pt x="0" y="1536" on="1"/>
        <pt x="256" y="1536" on="1"/>
      </contour>
      <contour>
        <pt x="256" y="1536" on="1"/>
        <pt x="256" y="1792" on="1"/>
        <pt x="512" y="1792" on="1"/>
        <pt x="512" y="1536" on="1"/>
      </contour>
    </TTGlyph>
    <TTGlyph name="idieresis" xMin="0" yMin="1024" xMax="768" yMax="1792">
      <contour>
        <pt x="512" y="1536" on="1"/>
        <pt x="512" y="1792" on="1"/>
        <pt x="768" y="1792" on="1"/>
        <pt x="768" y="1536" on="1"/>
      </contour>
      <contour>
        <pt x="0" y="1536" on="1"/>
        <pt x="0" y="1792" on="1"/>
        <pt x="256" y="1792" on="1"/>
        <pt x="256" y="1536" on="1"/>
      </contour>
      <contour>
        <pt x="512" y="1280" on="1"/>
        <pt x="768" y="1280" on="1"/>
        <pt x="768" y="1024" on="1"/>
        <pt x="512" y="1024" on="1"/>
        <pt x="256" y="1024" on="1"/>
        <pt x="256" y="1280" on="1"/>
      </contour>
    </TTGlyph>
    <TTGlyph name="igrave" xMin="0" yMin="1024" xMax="512" yMax="1792">
      <contour>
        <pt x="0" y="1024" on="1"/>
        <pt x="0" y="1280" on="1"/>
        <pt x="256" y="1280" on="1"/>
        <pt x="256" y="1024" on="1"/>
      </contour>
      <contour>
        <pt x="256" y="1280" on="1"/>
        <pt x="256" y="1536" on="1"/>
        <pt x="512" y="1536" on="1"/>
        <pt x="512" y="1280" on="1"/>
      </contour>
      <contour>
        <pt x="256" y="1536" on="1"/>
        <pt x="0" y="1536" on="1"/>
        <pt x="0" y="1792" on="1"/>
        <pt x="256" y="1792" on="1"/>
      </contour>
    </TTGlyph>
    <TTGlyph name="j" xMin="0" yMin="-256" xMax="768" yMax="1792">
      <contour>
        <pt x="0" y="-256" on="1"/>
        <pt x="0" y="0" on="1"/>
        <pt x="256" y="0" on="1"/>
        <pt x="256" y="-256" on="1"/>
      </contour>
      <contour>
        <pt x="512" y="1280" on="1"/>
        <pt x="768" y="1280" on="1"/>
        <pt x="768" y="1024" on="1"/>
        <pt x="512" y="1024" on="1"/>
        <pt x="256" y="1024" on="1"/>
        <pt x="256" y="1280" on="1"/>
      </contour>
      <contour>
        <pt x="512" y="1792" on="1"/>
        <pt x="768" y="1792" on="1"/>
        <pt x="768" y="1536" on="1"/>
        <pt x="512" y="1536" on="1"/>
        <pt x="256" y="1536" on="1"/>
        <pt x="256" y="1792" on="1"/>
      </contour>
    </TTGlyph>
    <TTGlyph name="k" xMin="0" yMin="0" xMax="1280" yMax="1792">
      <contour>
        <pt x="1024" y="0" on="1"/>
        <pt x="1024" y="256" on="1"/>
        <pt x="1280" y="256" on="1"/>
        <pt x="1280" y="0" on="1"/>
      </contour>
      <contour>
        <pt x="512" y="768" on="1"/>
        <pt x="512" y="1024" on="1"/>
        <pt x="768" y="1024" on="1"/>
        <pt x="768" y="768" on="1"/>
      </contour>
      <contour>
        <pt x="1024" y="256" on="1"/>
        <pt x="768" y="256" on="1"/>
        <pt x="768" y="512" on="1"/>
        <pt x="1024" y="512" on="1"/>
      </contour>
      <contour>
        <pt x="1024" y="1280" on="1"/>
        <pt x="1280" y="1280" on="1"/>
        <pt x="1280" y="1024" on="1"/>
        <pt x="1024" y="1024" on="1"/>
        <pt x="768" y="1024" on="1"/>
        <pt x="768" y="1280" on="1"/>
      </contour>
      <contour>
        <pt x="256" y="1792" on="1"/>
        <pt x="512" y="1792" on="1"/>
        <pt x="512" y="1536" on="1"/>
        <pt x="256" y="1536" on="1"/>
        <pt x="0" y="1536" on="1"/>
        <pt x="0" y="1792" on="1"/>
      </contour>
    </TTGlyph>
    <TTGlyph name="l" xMin="0" yMin="1536" xMax="512" yMax="1792">
      <contour>
        <pt x="256" y="1792" on="1"/>
        <pt x="512" y="1792" on="1"/>
        <pt x="512" y="1536" on="1"/>
        <pt x="256" y="1536" on="1"/>
        <pt x="0" y="1536" on="1"/>
        <pt x="0" y="1792" on="1"/>
      </contour>
    </TTGlyph>
    <TTGlyph name="less" xMin="0" yMin="256" xMax="1024" yMax="1792">
      <contour>
        <pt x="768" y="256" on="1"/>
        <pt x="768" y="512" on="1"/>
        <pt x="1024" y="512" on="1"/>
        <pt x="1024" y="256" on="1"/>
      </contour>
      <contour>
        <pt x="0" y="768" on="1"/>
        <pt x="0" y="1024" on="1"/>
        <pt x="256" y="1024" on="1"/>
        <pt x="256" y="768" on="1"/>
      </contour>
      <contour>
        <pt x="768" y="512" on="1"/>
        <pt x="512" y="512" on="1"/>
        <pt x="512" y="768" on="1"/>
        <pt x="768" y="768" on="1"/>
      </contour>
      <contour>
        <pt x="256" y="1024" on="1"/>
        <pt x="256" y="1280" on="1"/>
        <pt x="512" y="1280" on="1"/>
        <pt x="512" y="1024" on="1"/>
      </contour>
      <contour>
        <pt x="512" y="1280" on="1"/>
        <pt x="512" y="1536" on="1"/>
        <pt x="768" y="1536" on="1"/>
        <pt x="768" y="1280" on="1"/>
      </contour>
      <contour>
        <pt x="768" y="1536" on="1"/>
        <pt x="768" y="1792" on="1"/>
        <pt x="1024" y="1792" on="1"/>
        <pt x="1024" y="1536" on="1"/>
      </contour>
    </TTGlyph>
    <TTGlyph name="m" xMin="0" yMin="768" xMax="2048" yMax="1280">
      <contour>
        <pt x="1792" y="768" on="1"/>
        <pt x="1792" y="1024" on="1"/>
        <pt x="2048" y="1024" on="1"/>
        <pt x="2048" y="768" on="1"/>
      </contour>
      <contour>
        <pt x="1792" y="1024" on="1"/>
        <pt x="1536" y="1024" on="1"/>
        <pt x="1280" y="1024" on="1"/>
        <pt x="1024" y="1024" on="1"/>
        <pt x="768" y="1024" on="1"/>
        <pt x="512" y="1024" on="1"/>
        <pt x="256" y="1024" on="1"/>
        <pt x="0" y="1024" on="1"/>
        <pt x="0" y="1280" on="1"/>
        <pt x="256" y="1280" on="1"/>
        <pt x="512" y="1280" on="1"/>
        <pt x="768" y="1280" on="1"/>
        <pt x="1024" y="1280" on="1"/>
        <pt x="1280" y="1280" on="1"/>
        <pt x="1536" y="1280" on="1"/>
        <pt x="1792" y="1280" on="1"/>
      </contour>
    </TTGlyph>
    <TTGlyph name="macron" xMin="0" yMin="0" xMax="1536" yMax="1792">
      <contour>
        <pt x="512" y="768" on="1"/>
        <pt x="512" y="1024" on="1"/>
        <pt x="768" y="1024" on="1"/>
        <pt x="768" y="768" on="1"/>
      </contour>
      <contour>
        <pt x="0" y="1280" on="1"/>
        <pt x="0" y="1536" on="1"/>
        <pt x="256" y="1536" on="1"/>
        <pt x="256" y="1280" on="1"/>
      </contour>
      <contour>
        <pt x="768" y="256" on="1"/>
        <pt x="1024" y="256" on="1"/>
        <pt x="1024" y="0" on="1"/>
        <pt x="768" y="0" on="1"/>
        <pt x="512" y="0" on="1"/>
        <pt x="512" y="256" on="1"/>
      </contour>
      <contour>
        <pt x="768" y="1024" on="1"/>
        <pt x="768" y="1280" on="1"/>
        <pt x="1024" y="1280" on="1"/>
        <pt x="1024" y="1024" on="1"/>
      </contour>
      <contour>
        <pt x="1280" y="1792" on="1"/>
        <pt x="1536" y="1792" on="1"/>
        <pt x="1536" y="1536" on="1"/>
        <pt x="1280" y="1536" on="1"/>
        <pt x="1024" y="1536" on="1"/>
        <pt x="768" y="1536" on="1"/>
        <pt x="512" y="1536" on="1"/>
        <pt x="256" y="1536" on="1"/>
        <pt x="256" y="1792" on="1"/>
        <pt x="512" y="1792" on="1"/>
        <pt x="768" y="1792" on="1"/>
        <pt x="1024" y="1792" on="1"/>
      </contour>
    </TTGlyph>
    <TTGlyph name="n" xMin="0" yMin="768" xMax="1280" yMax="1280">
      <contour>
        <pt x="1024" y="768" on="1"/>
        <pt x="1024" y="1024" on="1"/>
        <pt x="1280" y="1024" on="1"/>
        <pt x="1280" y="768" on="1"/>
      </contour>
      <contour>
        <pt x="1024" y="1024" on="1"/>
        <pt x="768" y="1024" on="1"/>
        <pt x="512" y="1024" on="1"/>
        <pt x="256" y="1024" on="1"/>
        <pt x="0" y="1024" on="1"/>
        <pt x="0" y="1280" on="1"/>
        <pt x="256" y="1280" on="1"/>
        <pt x="512" y="1280" on="1"/>
        <pt x="768" y="1280" on="1"/>
        <pt x="1024" y="1280" on="1"/>
      </contour>
    </TTGlyph>
    <TTGlyph name="nine" xMin="0" yMin="0" xMax="1280" yMax="1792">
      <contour>
        <pt x="512" y="512" on="1"/>
        <pt x="512" y="768" on="1"/>
        <pt x="768" y="768" on="1"/>
        <pt x="768" y="512" on="1"/>
      </contour>
      <contour>
        <pt x="1024" y="1280" on="1"/>
        <pt x="1024" y="1536" on="1"/>
        <pt x="1280" y="1536" on="1"/>
        <pt x="1280" y="1280" on="1"/>
      </contour>
      <contour>
        <pt x="0" y="1280" on="1"/>
        <pt x="0" y="1536" on="1"/>
        <pt x="256" y="1536" on="1"/>
        <pt x="256" y="1280" on="1"/>
      </contour>
      <contour>
        <pt x="512" y="256" on="1"/>
        <pt x="768" y="256" on="1"/>
        <pt x="768" y="0" on="1"/>
        <pt x="512" y="0" on="1"/>
        <pt x="256" y="0" on="1"/>
        <pt x="256" y="256" on="1"/>
      </contour>
      <contour>
        <pt x="1024" y="1536" on="1"/>
        <pt x="768" y="1536" on="1"/>
        <pt x="512" y="1536" on="1"/>
        <pt x="256" y="1536" on="1"/>
        <pt x="256" y="1792" on="1"/>
        <pt x="512" y="1792" on="1"/>
        <pt x="768" y="1792" on="1"/>
        <pt x="1024" y="1792" on="1"/>
      </contour>
    </TTGlyph>
    <TTGlyph name="ntilde" xMin="0" yMin="768" xMax="1280" yMax="1792">
      <contour>
        <pt x="1024" y="768" on="1"/>
        <pt x="1024" y="1024" on="1"/>
        <pt x="1280" y="1024" on="1"/>
        <pt x="1280" y="768" on="1"/>
      </contour>
      <contour>
        <pt x="256" y="1024" on="1"/>
        <pt x="256" y="1280" on="1"/>
        <pt x="512" y="1280" on="1"/>
        <pt x="512" y="1024" on="1"/>
      </contour>
      <contour>
        <pt x="768" y="1280" on="1"/>
        <pt x="768" y="1536" on="1"/>
        <pt x="1024" y="1536" on="1"/>
        <pt x="1024" y="1280" on="1"/>
      </contour>
      <contour>
        <pt x="256" y="1280" on="1"/>
        <pt x="0" y="1280" on="1"/>
        <pt x="0" y="1536" on="1"/>
        <pt x="256" y="1536" on="1"/>
      </contour>
      <contour>
        <pt x="1024" y="1536" on="1"/>
        <pt x="1024" y="1792" on="1"/>
        <pt x="1280" y="1792" on="1"/>
        <pt x="1280" y="1536" on="1"/>
      </contour>
      <contour>
        <pt x="768" y="1536" on="1"/>
        <pt x="512" y="1536" on="1"/>
        <pt x="256" y="1536" on="1"/>
        <pt x="256" y="1792" on="1"/>
        <pt x="512" y="1792" on="1"/>
        <pt x="768" y="1792" on="1"/>
      </contour>
    </TTGlyph>
    <TTGlyph name="numbersign" xMin="0" yMin="512" xMax="1280" yMax="1792">
      <contour>
        <pt x="1024" y="512" on="1"/>
        <pt x="1024" y="768" on="1"/>
        <pt x="1280" y="768" on="1"/>
        <pt x="1280" y="512" on="1"/>
      </contour>
      <contour>
        <pt x="512" y="512" on="1"/>
        <pt x="512" y="768" on="1"/>
        <pt x="768" y="768" on="1"/>
        <pt x="768" y="512" on="1"/>
      </contour>
      <contour>
        <pt x="0" y="512" on="1"/>
        <pt x="0" y="768" on="1"/>
        <pt x="256" y="768" on="1"/>
        <pt x="256" y="512" on="1"/>
      </contour>
      <contour>
        <pt x="1024" y="1280" on="1"/>
        <pt x="1024" y="1536" on="1"/>
        <pt x="1280" y="1536" on="1"/>
        <pt x="1280" y="1280" on="1"/>
      </contour>
      <contour>
        <pt x="512" y="1280" on="1"/>
        <pt x="512" y="1536" on="1"/>
        <pt x="768" y="1536" on="1"/>
        <pt x="768" y="1280" on="1"/>
      </contour>
      <contour>
        <pt x="0" y="1280" on="1"/>
        <pt x="0" y="1536" on="1"/>
        <pt x="256" y="1536" on="1"/>
        <pt x="256" y="1280" on="1"/>
      </contour>
      <contour>
        <pt x="768" y="1536" on="1"/>
        <pt x="768" y="1792" on="1"/>
        <pt x="1024" y="1792" on="1"/>
        <pt x="1024" y="1536" on="1"/>
      </contour>
      <contour>
        <pt x="256" y="1536" on="1"/>
        <pt x="256" y="1792" on="1"/>
        <pt x="512" y="1792" on="1"/>
        <pt x="512" y="1536" on="1"/>
      </contour>
    </TTGlyph>
    <TTGlyph name="o" xMin="0" yMin="0" xMax="1280" yMax="1280">
      <contour>
        <pt x="512" y="0" on="1"/>
        <pt x="512" y="256" on="1"/>
        <pt x="768" y="256" on="1"/>
        <pt x="768" y="0" on="1"/>
      </contour>
      <contour>
        <pt x="1024" y="768" on="1"/>
        <pt x="1024" y="1024" on="1"/>
        <pt x="1280" y="1024" on="1"/>
        <pt x="1280" y="768" on="1"/>
      </contour>
      <contour>
        <pt x="0" y="768" on="1"/>
        <pt x="0" y="1024" on="1"/>
        <pt x="256" y="1024" on="1"/>
        <pt x="256" y="768" on="1"/>
      </contour>
      <contour>
        <pt x="1024" y="1024" on="1"/>
        <pt x="768" y="1024" on="1"/>
        <pt x="512" y="1024" on="1"/>
        <pt x="256" y="1024" on="1"/>
        <pt x="256" y="1280" on="1"/>
        <pt x="512" y="1280" on="1"/>
        <pt x="768" y="1280" on="1"/>
        <pt x="1024" y="1280" on="1"/>
      </contour>
    </TTGlyph>
    <TTGlyph name="oacute" xMin="0" yMin="0" xMax="1280" yMax="1792">
      <contour>
        <pt x="512" y="0" on="1"/>
        <pt x="512" y="256" on="1"/>
        <pt x="768" y="256" on="1"/>
        <pt x="768" y="0" on="1"/>
      </contour>
      <contour>
        <pt x="1024" y="768" on="1"/>
        <pt x="1024" y="1024" on="1"/>
        <pt x="1280" y="1024" on="1"/>
        <pt x="1280" y="768" on="1"/>
      </contour>
      <contour>
        <pt x="0" y="768" on="1"/>
        <pt x="0" y="1024" on="1"/>
        <pt x="256" y="1024" on="1"/>
        <pt x="256" y="768" on="1"/>
      </contour>
      <contour>
        <pt x="1024" y="1024" on="1"/>
        <pt x="768" y="1024" on="1"/>
        <pt x="768" y="1280" on="1"/>
        <pt x="1024" y="1280" on="1"/>
      </contour>
      <contour>
        <pt x="256" y="1024" on="1"/>
        <pt x="256" y="1280" on="1"/>
        <pt x="512" y="1280" on="1"/>
        <pt x="512" y="1024" on="1"/>
      </contour>
      <contour>
        <pt x="512" y="1280" on="1"/>
        <pt x="512" y="1536" on="1"/>
        <pt x="768" y="1536" on="1"/>
        <pt x="768" y="1280" on="1"/>
      </contour>
      <contour>
        <pt x="768" y="1536" on="1"/>
        <pt x="768" y="1792" on="1"/>
        <pt x="1024" y="1792" on="1"/>
        <pt x="1024" y="1536" on="1"/>
      </contour>
    </TTGlyph>
    <TTGlyph name="ocircumflex" xMin="0" yMin="0" xMax="1280" yMax="1792">
      <contour>
        <pt x="512" y="0" on="1"/>
        <pt x="512" y="256" on="1"/>
        <pt x="768" y="256" on="1"/>
        <pt x="768" y="0" on="1"/>
      </contour>
      <contour>
        <pt x="1024" y="1024" on="1"/>
        <pt x="1024" y="1280" on="1"/>
        <pt x="1280" y="1280" on="1"/>
        <pt x="1280" y="1024" on="1"/>
      </contour>
      <contour>
        <pt x="512" y="1024" on="1"/>
        <pt x="512" y="1280" on="1"/>
        <pt x="768" y="1280" on="1"/>
        <pt x="768" y="1024" on="1"/>
      </contour>
      <contour>
        <pt x="0" y="1024" on="1"/>
        <pt x="0" y="1280" on="1"/>
        <pt x="256" y="1280" on="1"/>
        <pt x="256" y="1024" on="1"/>
      </contour>
      <contour>
        <pt x="768" y="1280" on="1"/>
        <pt x="768" y="1536" on="1"/>
        <pt x="1024" y="1536" on="1"/>
        <pt x="1024" y="1280" on="1"/>
      </contour>
      <contour>
        <pt x="256" y="1280" on="1"/>
        <pt x="256" y="1536" on="1"/>
        <pt x="512" y="1536" on="1"/>
        <pt x="512" y="1280" on="1"/>
      </contour>
      <contour>
        <pt x="512" y="1536" on="1"/>
        <pt x="512" y="1792" on="1"/>
        <pt x="768" y="1792" on="1"/>
        <pt x="768" y="1536" on="1"/>
      </contour>
    </TTGlyph>
    <TTGlyph name="odieresis" xMin="0" yMin="0" xMax="1280" yMax="1792">
      <contour>
        <pt x="512" y="0" on="1"/>
        <pt x="512" y="256" on="1"/>
        <pt x="768" y="256" on="1"/>
        <pt x="768" y="0" on="1"/>
      </contour>
      <contour>
        <pt x="1024" y="768" on="1"/>
        <pt x="1024" y="1024" on="1"/>
        <pt x="1280" y="1024" on="1"/>
        <pt x="1280" y="768" on="1"/>
      </contour>
      <contour>
        <pt x="0" y="768" on="1"/>
        <pt x="0" y="1024" on="1"/>
        <pt x="256" y="1024" on="1"/>
        <pt x="256" y="768" on="1"/>
      </contour>
      <contour>
        <pt x="768" y="1536" on="1"/>
        <pt x="768" y="1792" on="1"/>
        <pt x="1024" y="1792" on="1"/>
        <pt x="1024" y="1536" on="1"/>
      </contour>
      <contour>
        <pt x="256" y="1536" on="1"/>
        <pt x="256" y="1792" on="1"/>
        <pt x="512" y="1792" on="1"/>
        <pt x="512" y="1536" on="1"/>
      </contour>
      <contour>
        <pt x="1024" y="1024" on="1"/>
        <pt x="768" y="1024" on="1"/>
        <pt x="512" y="1024" on="1"/>
        <pt x="256" y="1024" on="1"/>
        <pt x="256" y="1280" on="1"/>
        <pt x="512" y="1280" on="1"/>
        <pt x="768" y="1280" on="1"/>
        <pt x="1024" y="1280" on="1"/>
      </contour>
    </TTGlyph>
    <TTGlyph name="ograve" xMin="0" yMin="0" xMax="1280" yMax="1792">
      <contour>
        <pt x="512" y="0" on="1"/>
        <pt x="512" y="256" on="1"/>
        <pt x="768" y="256" on="1"/>
        <pt x="768" y="0" on="1"/>
      </contour>
      <contour>
        <pt x="1024" y="768" on="1"/>
        <pt x="1024" y="1024" on="1"/>
        <pt x="1280" y="1024" on="1"/>
        <pt x="1280" y="768" on="1"/>
      </contour>
      <contour>
        <pt x="0" y="768" on="1"/>
        <pt x="0" y="1024" on="1"/>
        <pt x="256" y="1024" on="1"/>
        <pt x="256" y="768" on="1"/>
      </contour>
      <contour>
        <pt x="1024" y="1024" on="1"/>
        <pt x="768" y="1024" on="1"/>
        <pt x="768" y="1280" on="1"/>
        <pt x="1024" y="1280" on="1"/>
      </contour>
      <contour>
        <pt x="256" y="1024" on="1"/>
        <pt x="256" y="1280" on="1"/>
        <pt x="512" y="1280" on="1"/>
        <pt x="512" y="1024" on="1"/>
      </contour>
      <contour>
        <pt x="512" y="1280" on="1"/>
        <pt x="512" y="1536" on="1"/>
        <pt x="768" y="1536" on="1"/>
        <pt x="768" y="1280" on="1"/>
      </contour>
      <contour>
        <pt x="512" y="1536" on="1"/>
        <pt x="256" y="1536" on="1"/>
        <pt x="256" y="1792" on="1"/>
        <pt x="512" y="1792" on="1"/>
      </contour>
    </TTGlyph>
    <TTGlyph name="one" xMin="0" yMin="1280" xMax="768" yMax="1792">
      <contour>
        <pt x="0" y="1280" on="1"/>
        <pt x="0" y="1536" on="1"/>
        <pt x="256" y="1536" on="1"/>
        <pt x="256" y="1280" on="1"/>
      </contour>
      <contour>
        <pt x="512" y="1792" on="1"/>
        <pt x="768" y="1792" on="1"/>
        <pt x="768" y="1536" on="1"/>
        <pt x="512" y="1536" on="1"/>
        <pt x="256" y="1536" on="1"/>
        <pt x="256" y="1792" on="1"/>
      </contour>
    </TTGlyph>
    <TTGlyph name="onequarter" xMin="0" yMin="512" xMax="768" yMax="1792">
      <contour>
        <pt x="256" y="1024" on="1"/>
        <pt x="256" y="1280" on="1"/>
        <pt x="512" y="1280" on="1"/>
        <pt x="512" y="1024" on="1"/>
      </contour>
      <contour>
        <pt x="512" y="768" on="1"/>
        <pt x="768" y="768" on="1"/>
        <pt x="768" y="512" on="1"/>
        <pt x="512" y="512" on="1"/>
        <pt x="256" y="512" on="1"/>
        <pt x="0" y="512" on="1"/>
        <pt x="0" y="768" on="1"/>
        <pt x="256" y="768" on="1"/>
      </contour>
      <contour>
        <pt x="512" y="1280" on="1"/>
        <pt x="512" y="1536" on="1"/>
        <pt x="768" y="1536" on="1"/>
        <pt x="768" y="1280" on="1"/>
      </contour>
      <contour>
        <pt x="256" y="1280" on="1"/>
        <pt x="0" y="1280" on="1"/>
        <pt x="0" y="1536" on="1"/>
        <pt x="256" y="1536" on="1"/>
      </contour>
      <contour>
        <pt x="256" y="1536" on="1"/>
        <pt x="256" y="1792" on="1"/>
        <pt x="512" y="1792" on="1"/>
        <pt x="512" y="1536" on="1"/>
      </contour>
    </TTGlyph>
    <TTGlyph name="ordmasculine" xMin="0" yMin="512" xMax="768" yMax="1792">
      <contour>
        <pt x="256" y="1024" on="1"/>
        <pt x="256" y="1280" on="1"/>
        <pt x="512" y="1280" on="1"/>
        <pt x="512" y="1024" on="1"/>
      </contour>
      <contour>
        <pt x="512" y="768" on="1"/>
        <pt x="768" y="768" on="1"/>
        <pt x="768" y="512" on="1"/>
        <pt x="512" y="512" on="1"/>
        <pt x="256" y="512" on="1"/>
        <pt x="0" y="512" on="1"/>
        <pt x="0" y="768" on="1"/>
        <pt x="256" y="768" on="1"/>
      </contour>
      <contour>
        <pt x="512" y="1280" on="1"/>
        <pt x="512" y="1536" on="1"/>
        <pt x="768" y="1536" on="1"/>
        <pt x="768" y="1280" on="1"/>
      </contour>
      <contour>
        <pt x="256" y="1280" on="1"/>
        <pt x="0" y="1280" on="1"/>
        <pt x="0" y="1536" on="1"/>
        <pt x="256" y="1536" on="1"/>
      </contour>
      <contour>
        <pt x="256" y="1536" on="1"/>
        <pt x="256" y="1792" on="1"/>
        <pt x="512" y="1792" on="1"/>
        <pt x="512" y="1536" on="1"/>
      </contour>
    </TTGlyph>
    <TTGlyph name="oslash" xMin="0" yMin="0" xMax="1280" yMax="1280">
      <contour>
        <pt x="512" y="0" on="1"/>
        <pt x="512" y="256" on="1"/>
        <pt x="768" y="256" on="1"/>
        <pt x="768" y="0" on="1"/>
      </contour>
      <contour>
        <pt x="512" y="512" on="1"/>
        <pt x="512" y="768" on="1"/>
        <pt x="768" y="768" on="1"/>
        <pt x="768" y="512" on="1"/>
      </contour>
      <contour>
        <pt x="0" y="768" on="1"/>
        <pt x="0" y="1024" on="1"/>
        <pt x="256" y="1024" on="1"/>
        <pt x="256" y="768" on="1"/>
      </contour>
      <contour>
        <pt x="1024" y="1280" on="1"/>
        <pt x="1280" y="1280" on="1"/>
        <pt x="1280" y="1024" on="1"/>
        <pt x="1024" y="1024" on="1"/>
        <pt x="768" y="1024" on="1"/>
        <pt x="512" y="1024" on="1"/>
        <pt x="256" y="1024" on="1"/>
        <pt x="256" y="1280" on="1"/>
        <pt x="512" y="1280" on="1"/>
        <pt x="768" y="1280" on="1"/>
      </contour>
    </TTGlyph>
    <TTGlyph name="otilde" xMin="0" yMin="0" xMax="1280" yMax="1792">
      <contour>
        <pt x="512" y="0" on="1"/>
        <pt x="512" y="256" on="1"/>
        <pt x="768" y="256" on="1"/>
        <pt x="768" y="0" on="1"/>
      </contour>
      <contour>
        <pt x="1024" y="768" on="1"/>
        <pt x="1024" y="1024" on="1"/>
        <pt x="1280" y="1024" on="1"/>
        <pt x="1280" y="768" on="1"/>
      </contour>
      <contour>
        <pt x="0" y="768" on="1"/>
        <pt x="0" y="1024" on="1"/>
        <pt x="256" y="1024" on="1"/>
        <pt x="256" y="768" on="1"/>
      </contour>
      <contour>
        <pt x="768" y="1280" on="1"/>
        <pt x="768" y="1536" on="1"/>
        <pt x="1024" y="1536" on="1"/>
        <pt x="1024" y="1280" on="1"/>
      </contour>
      <contour>
        <pt x="256" y="1024" on="1"/>
        <pt x="256" y="1280" on="1"/>
        <pt x="512" y="1280" on="1"/>
        <pt x="512" y="1024" on="1"/>
      </contour>
      <contour>
        <pt x="256" y="1280" on="1"/>
        <pt x="0" y="1280" on="1"/>
        <pt x="0" y="1536" on="1"/>
        <pt x="256" y="1536" on="1"/>
      </contour>
      <contour>
        <pt x="1024" y="1536" on="1"/>
        <pt x="1024" y="1792" on="1"/>
        <pt x="1280" y="1792" on="1"/>
        <pt x="1280" y="1536" on="1"/>
      </contour>
      <contour>
        <pt x="768" y="1536" on="1"/>
        <pt x="512" y="1536" on="1"/>
        <pt x="256" y="1536" on="1"/>
        <pt x="256" y="1792" on="1"/>
        <pt x="512" y="1792" on="1"/>
        <pt x="768" y="1792" on="1"/>
      </contour>
    </TTGlyph>
    <TTGlyph name="p" xMin="0" yMin="256" xMax="1280" yMax="1280">
      <contour>
        <pt x="512" y="256" on="1"/>
        <pt x="512" y="512" on="1"/>
        <pt x="768" y="512" on="1"/>
        <pt x="768" y="256" on="1"/>
      </contour>
      <contour>
        <pt x="1024" y="768" on="1"/>
        <pt x="1024" y="1024" on="1"/>
        <pt x="1280" y="1024" on="1"/>
        <pt x="1280" y="768" on="1"/>
      </contour>
      <contour>
        <pt x="1024" y="1024" on="1"/>
        <pt x="768" y="1024" on="1"/>
        <pt x="512" y="1024" on="1"/>
        <pt x="256" y="1024" on="1"/>
        <pt x="0" y="1024" on="1"/>
        <pt x="0" y="1280" on="1"/>
        <pt x="256" y="1280" on="1"/>
        <pt x="512" y="1280" on="1"/>
        <pt x="768" y="1280" on="1"/>
        <pt x="1024" y="1280" on="1"/>
      </contour>
    </TTGlyph>
    <TTGlyph name="parenleft" xMin="0" yMin="-256" xMax="768" yMax="1792">
      <contour>
        <pt x="512" y="-256" on="1"/>
        <pt x="512" y="0" on="1"/>
        <pt x="768" y="0" on="1"/>
        <pt x="768" y="-256" on="1"/>
      </contour>
      <contour>
        <pt x="0" y="1024" on="1"/>
        <pt x="0" y="1280" on="1"/>
        <pt x="256" y="1280" on="1"/>
        <pt x="256" y="1024" on="1"/>
      </contour>
      <contour>
        <pt x="256" y="1280" on="1"/>
        <pt x="256" y="1536" on="1"/>
        <pt x="512" y="1536" on="1"/>
        <pt x="512" y="1280" on="1"/>
      </contour>
      <contour>
        <pt x="512" y="1536" on="1"/>
        <pt x="512" y="1792" on="1"/>
        <pt x="768" y="1792" on="1"/>
        <pt x="768" y="1536" on="1"/>
      </contour>
    </TTGlyph>
    <TTGlyph name="parenright" xMin="0" yMin="-256" xMax="768" yMax="1792">
      <contour>
        <pt x="0" y="-256" on="1"/>
        <pt x="0" y="0" on="1"/>
        <pt x="256" y="0" on="1"/>
        <pt x="256" y="-256" on="1"/>
      </contour>
      <contour>
        <pt x="512" y="1024" on="1"/>
        <pt x="512" y="1280" on="1"/>
        <pt x="768" y="1280" on="1"/>
        <pt x="768" y="1024" on="1"/>
      </contour>
      <contour>
        <pt x="512" y="1280" on="1"/>
        <pt x="256" y="1280" on="1"/>
        <pt x="256" y="1536" on="1"/>
        <pt x="512" y="1536" on="1"/>
      </contour>
      <contour>
        <pt x="256" y="1536" on="1"/>
        <pt x="0" y="1536" on="1"/>
        <pt x="0" y="1792" on="1"/>
        <pt x="256" y="1792" on="1"/>
      </contour>
    </TTGlyph>
    <TTGlyph name="percent" xMin="0" yMin="256" xMax="1536" yMax="1792">
      <contour>
        <pt x="256" y="256" on="1"/>
        <pt x="256" y="512" on="1"/>
        <pt x="512" y="512" on="1"/>
        <pt x="512" y="256" on="1"/>
      </contour>
      <contour>
        <pt x="512" y="768" on="1"/>
        <pt x="512" y="1024" on="1"/>
        <pt x="768" y="1024" on="1"/>
        <pt x="768" y="768" on="1"/>
      </contour>
      <contour>
        <pt x="768" y="1280" on="1"/>
        <pt x="768" y="1536" on="1"/>
        <pt x="1024" y="1536" on="1"/>
        <pt x="1024" y="1280" on="1"/>
      </contour>
      <contour>
        <pt x="1280" y="512" on="1"/>
        <pt x="1536" y="512" on="1"/>
        <pt x="1536" y="256" on="1"/>
        <pt x="1280" y="256" on="1"/>
        <pt x="1024" y="256" on="1"/>
        <pt x="1024" y="512" on="1"/>
      </contour>
      <contour>
        <pt x="1024" y="1536" on="1"/>
        <pt x="1024" y="1792" on="1"/>
        <pt x="1280" y="1792" on="1"/>
        <pt x="1280" y="1536" on="1"/>
      </contour>
      <contour>
        <pt x="256" y="1792" on="1"/>
        <pt x="512" y="1792" on="1"/>
        <pt x="512" y="1536" on="1"/>
        <pt x="256" y="1536" on="1"/>
        <pt x="0" y="1536" on="1"/>
        <pt x="0" y="1792" on="1"/>
      </contour>
    </TTGlyph>
    <TTGlyph name="period" xMin="0" yMin="256" xMax="512" yMax="512">
      <contour>
        <pt x="256" y="512" on="1"/>
        <pt x="512" y="512" on="1"/>
        <pt x="512" y="256" on="1"/>
        <pt x="256" y="256" on="1"/>
        <pt x="0" y="256" on="1"/>
        <pt x="0" y="512" on="1"/>
      </contour>
    </TTGlyph>
    <TTGlyph name="plus" xMin="0" yMin="768" xMax="1280" yMax="1536">
      <contour>
        <pt x="512" y="1280" on="1"/>
        <pt x="512" y="1536" on="1"/>
        <pt x="768" y="1536" on="1"/>
        <pt x="768" y="1280" on="1"/>
      </contour>
      <contour>
        <pt x="1024" y="1024" on="1"/>
        <pt x="1280" y="1024" on="1"/>
        <pt x="1280" y="768" on="1"/>
        <pt x="1024" y="768" on="1"/>
        <pt x="768" y="768" on="1"/>
        <pt x="768" y="1024" on="1"/>
      </contour>
      <contour>
        <pt x="256" y="1024" on="1"/>
        <pt x="512" y="1024" on="1"/>
        <pt x="512" y="768" on="1"/>
        <pt x="256" y="768" on="1"/>
        <pt x="0" y="768" on="1"/>
        <pt x="0" y="1024" on="1"/>
      </contour>
    </TTGlyph>
    <TTGlyph name="q" xMin="0" yMin="256" xMax="1280" yMax="1280">
      <contour>
        <pt x="512" y="256" on="1"/>
        <pt x="512" y="512" on="1"/>
        <pt x="768" y="512" on="1"/>
        <pt x="768" y="256" on="1"/>
      </contour>
      <contour>
        <pt x="0" y="768" on="1"/>
        <pt x="0" y="1024" on="1"/>
        <pt x="256" y="1024" on="1"/>
        <pt x="256" y="768" on="1"/>
      </contour>
      <contour>
        <pt x="1024" y="1280" on="1"/>
        <pt x="1280" y="1280" on="1"/>
        <pt x="1280" y="1024" on="1"/>
        <pt x="1024" y="1024" on="1"/>
        <pt x="768" y="1024" on="1"/>
        <pt x="512" y="1024" on="1"/>
        <pt x="256" y="1024" on="1"/>
        <pt x="256" y="1280" on="1"/>
        <pt x="512" y="1280" on="1"/>
        <pt x="768" y="1280" on="1"/>
      </contour>
    </TTGlyph>
    <TTGlyph name="question" xMin="0" yMin="0" xMax="1280" yMax="1792">
      <contour>
        <pt x="256" y="768" on="1"/>
        <pt x="256" y="1024" on="1"/>
        <pt x="512" y="1024" on="1"/>
        <pt x="512" y="768" on="1"/>
      </contour>
      <contour>
        <pt x="1024" y="1280" on="1"/>
        <pt x="1024" y="1536" on="1"/>
        <pt x="1280" y="1536" on="1"/>
        <pt x="1280" y="1280" on="1"/>
      </contour>
      <contour>
        <pt x="512" y="256" on="1"/>
        <pt x="768" y="256" on="1"/>
        <pt x="768" y="0" on="1"/>
        <pt x="512" y="0" on="1"/>
        <pt x="256" y="0" on="1"/>
        <pt x="256" y="256" on="1"/>
      </contour>
      <contour>
        <pt x="512" y="1024" on="1"/>
        <pt x="512" y="1280" on="1"/>
        <pt x="768" y="1280" on="1"/>
        <pt x="768" y="1024" on="1"/>
      </contour>
      <contour>
        <pt x="1024" y="1536" on="1"/>
        <pt x="768" y="1536" on="1"/>
        <pt x="512" y="1536" on="1"/>
        <pt x="256" y="1536" on="1"/>
        <pt x="0" y="1536" on="1"/>
        <pt x="0" y="1792" on="1"/>
        <pt x="256" y="1792" on="1"/>
        <pt x="512" y="1792" on="1"/>
        <pt x="768" y="1792" on="1"/>
        <pt x="1024" y="1792" on="1"/>
      </contour>
    </TTGlyph>
</ttFont>
